<?xml version="1.0" standalone="no"?>
<!DOCTYPE svg PUBLIC "-//W3C//DTD SVG 1.1//EN" "http://www.w3.org/Graphics/SVG/1.1/DTD/svg11.dtd" >
<svg>
<metadata>
Created by FontForge 20110222 at Sun Aug 31 01:32:38 2014
 By Orthosie Webhosting
LDF
</metadata>
<defs>
<font id="MomsDinerMedium" horiz-adv-x="560" >
  <font-face 
    font-family="MomsDinerMedium"
    font-weight="500"
    font-stretch="normal"
    units-per-em="1000"
    panose-1="2 0 6 3 0 0 0 0 0 0"
    ascent="800"
    descent="-200"
    x-height="418"
    cap-height="681"
    bbox="-69.9512 -266.75 920.122 724"
    underline-thickness="50"
    underline-position="-100"
    unicode-range="U+0020-3000"
  />
<missing-glyph horiz-adv-x="364" 
d="M66 33h199v600h-199v-600zM33 0v666h265v-666h-265z" />
    <glyph glyph-name=".notdef" horiz-adv-x="364" 
d="M66 33h199v600h-199v-600zM33 0v666h265v-666h-265z" />
    <glyph glyph-name=".null" horiz-adv-x="0" 
 />
    <glyph glyph-name="nonmarkingreturn" horiz-adv-x="333" 
 />
    <glyph glyph-name="space" unicode=" " horiz-adv-x="300" 
 />
    <glyph glyph-name="exclam" unicode="!" horiz-adv-x="236" 
d="M160 700q23 5 43 -2q14 -5 20.5 -14t9.5 -28q3 -17 1.5 -36t-12.5 -81q-10 -64 -20 -133q-35 -228 -55 -247q-7 -7 -12 -4t-5 13q1 12 -3 32q-3 21 -7 78q-3 56 -7 71q-5 14 -5 23t-11 65q-20 103 -21 151q0 33 5.5 47.5t24.5 32.5q26 25 54 32zM170 657q0 2 -4 3t-7 0
q-4 -1 -4 -7q0 -4 1.5 -4t6.5 2q7 4 7 6zM109 640q2 4 1 4q-3 0 -7 -10.5t-6 -19.5q-1 -6 -1 -7l5 12q6 17 8 21zM111 549q0 20 -3 20q-2 0 -1 -17q3 -36 4 -3zM198 517q1 8 -2 8q-5 0 0 -11l1 -3zM150 230q2 6 -3 8t-4 -3q1 -14 5 -16q1 6 2 11zM139 130q11 4 23 4t13.5 -4
t15.5 -9q13 -5 24 -17.5t15 -25.5q3 -12 1.5 -33.5t-7.5 -33.5q-8 -19 -25 -27.5t-47 -8.5q-39 0 -59 17q-23 20 -23 51q0 30 18 53t51 34zM194 44.5q-8 16.5 -18 25.5l-9 10l9 -18q8 -16 14 -21q9 -6 1 -13q-3 -4 -8.5 -14t-5.5 -13q0 -5 16 14q5 5 6 7q3 6 -5 22.5z
M140 40q3 7 0 11q-3 3 -4 -2v-5q0 -8 1 -8zM154 0q-8 0 -14 2q-5 2 -2 -1q2 -3 8 -5t10 -1.5t5 2.5q0 3 -7 3z" />
    <glyph glyph-name="quotedbl" unicode="&#x22;" horiz-adv-x="468" 
d="M403 657q25 14 47 -9q17 -19 17 -69q0 -37 -17 -66t-73 -86q-51 -52 -67 -75q-15 -21 -23 -21q-5 0 -6 1.5t-1 7.5q1 8 -1 12q-4 6 14.5 80t32.5 112q18 48 36 74.5t41 38.5zM414 616q0 8 -14 -5q-9 -8 -5 -8t11.5 5t7.5 8zM408 489q6 7 1 12q-3 4 -3.5 4t-2.5 -6
q-4 -15 1 -14q2 0 4 4zM380 478q0 14 -5 2q-3 -6 -5 -16l-5 -21l12 12q12 12 8 15q-5 2 -5 8zM331 413q-2 4 -6.5 2.5t-5.5 -6.5q-2 -5 -8 -9q-6 -3 -7 -12l1 -6q2 0 13 13q14 16 13 18zM216 650q19 4 26 2.5t16 -11.5q12 -12 17.5 -29.5t1.5 -37.5q-7 -37 -33 -75.5
t-94 -115.5q-42 -47 -42 -49q0 -3 -8 -3q-7 0 -9.5 5t1.5 11q3 5 8 25q5 16 21 63q16 45 25 93q8 47 12 61t13 30q17 27 45 31zM257 581q1 10 0 18l-1 -1v-9zM217 513q6 17 2 34l-3 17l-5 -32q-4 -31 -2 -34l3 4q2 4 5 11zM147 427q11 18 10 31q0 10 -1 9q-1 0 -3 -5
q-10 -21 -25 -68q-1 -2 -0.5 -2.5t3.5 2.5q5 4 5 10t11 23z" />
    <glyph glyph-name="numbersign" unicode="#" horiz-adv-x="527" 
d="M266 650q2 4 6.5 3t8.5 -5q5 -4 6 1q2 5 9 3.5t8 -7.5t-24 -82l-25 -76l57 2q55 1 63 3q5 2 8.5 12t13.5 48q23 91 35 91q3 0 7 -5q5 -6 9 -1q8 7 14 -3q3 -5 -10 -36q-8 -20 -20 -56.5t-12 -41.5q0 -3 41 -4q36 -1 43.5 -5t9.5 -23q1 -18 5 -18t6 -6t0 -10q-2 -3 -6 -3
q-5 0 -5 -8q0 -17 -13.5 -21.5t-59.5 -2.5l-47 2l-12 -40q-3 -10 -6 -21t-5 -17.5t-2 -7.5q-1 -3 3 -4q7 -2 51 -2h56l3 -8q3 -7 0 -34t-7 -33q-2 -4 -54 -1q-51 3 -64 3h-12l-27 -81q-25 -78 -30 -97q-2 -10 -4 -13t-7 -3q-8 0 -9 8q-1 10 11 66.5t21 83.5q11 32 10 33
q-1 2 -55 -1q-53 -4 -61 -4t-8 -4t-17 -49q-18 -48 -23 -68q-5 -15 -7.5 -19t-9.5 -6q-10 -1 -13 -6q-4 -5 -10 -3.5t-7 6.5q-1 6 14 41q36 90 36 102q0 2 -48 4q-47 1 -53 4q-6 2 -10.5 11.5t-4.5 18.5q0 8 5 28t7.5 23t66 4t65.5 3t13 45l11 43h-17q-16 0 -56 -3
q-34 -3 -44 -1.5t-13 10.5q-4 12 1.5 39t12.5 27q4 0 5 7q2 5 10 5.5t55 -1.5q41 -2 51.5 -1.5t10.5 4.5q0 7 9.5 36t16.5 42q9 18 15 48t8 32zM115 463q-1 5 -8 5.5t-9 -4.5q-1 -2 1 -3.5t7 -1.5q7 -1 8.5 0t0.5 4zM356 400q-1 1 -61 2l-60 2l-9 -37q-6 -28 -10 -44
q-2 -5 5 -6q6 -1 42 -2q49 -3 61 -4l11 -2l11 44q11 45 10 47zM90 292l10 1h-9q-33 0 -33 -5q0 -4 8 -4.5t11 2.5q4 4 13 6zM459 253q6 6 -6 6q-7 0 -20 -1l-27 -4l25 -2q25 -2 28 1z" />
    <glyph glyph-name="dollar" unicode="$" horiz-adv-x="489" 
d="M278 723q4 1 7 1t4.5 -5t2 -13.5t0.5 -23.5v-35l11 -1q2 -1 6.5 -1.5t11 -1t9.5 -1.5q20 -2 35 -8q26 -10 57 -37t38 -46q8 -22 0.5 -50.5t-24.5 -40.5q-11 -7 -29 -6q-33 2 -52 33q-19 30 -6 56q11 23 49 30l18 4l-20 15q-45 33 -87 33q-12 0 -14.5 -1.5t-3.5 -8.5
q-2 -10 -3 -105l-1 -95l9 -4q8 -5 22 -16q13 -11 58 -41q68 -45 88 -76q22 -34 24.5 -85.5t-15.5 -87.5q-17 -35 -53.5 -64.5t-70.5 -37.5q-18 -4 -37 -13l-20 -10l2 -32q2 -34 5 -43q4 -14 -5 -17t-14 11q-4 9 -5 43l-2 34l-13 -3q-46 -6 -79 3q-17 6 -29 14q-16 10 -48 41
t-38 43q-18 31 -6 62q8 22 33.5 41t50.5 22q16 2 34 -7q17 -7 22 -13t7 -23q3 -23 -1.5 -35t-19.5 -25q-23 -20 -68 -23l-26 -2l30 -29q31 -28 41 -35q16 -11 42.5 -14.5t51.5 1.5l16 3l2 105q2 107 4 112q1 4 -6.5 10t-33.5 21q-81 48 -108 75q-48 51 -44 132
q6 122 116 176q32 16 49 16h18l1 26q3 24 3 38q0 13 4 15zM269 526q0 10 1 27q1 56 -1 65t-16 5q-4 -1 -7 -1q-52 -11 -60 -75q-4 -34 9 -64.5t37 -40.5q10 -4 10 -7q0 -2 11 -6.5t13 -2.5zM370 527q3 12 2 13q-1 0 -4 -3t-3.5 -14t3.5 -18l1 1q-1 8 1 21zM125 506
q0 8 0.5 13.5t-0.5 5.5t-6 -13.5t-7 -21.5q-1 -9 1 -9q9 1 12 25zM173 480l-1 4q-1 3 -2 8l-4 11l-7 -14q-7 -14 -7 -15t3.5 0t8.5 2.5t9 3.5zM231 412q-1 4 -8 7q-4 2 -4.5 1.5t1.5 -4.5q4 -7 9 -7q4 0 2 3zM125 374q-3 19 -15 36q-2 3 -2 1q0 -6 6 -23.5t12 -26.5
q11 -20 25 -29q2 -2 2 -1t-1 3q-5 8 -14 18q-11 9 -13 22zM227 365q-7 13 -8 12.5t5 -13.5q2 -3 3 -5.5t2 -4t2 -2.5l1 -1q2 1 -5 14zM339 168q-10 13 -24 25l-16 13l-2 -33q-2 -50 -3 -96l-3 -62l17 2q14 2 28 11.5t22 22.5q13 21 7.5 53t-26.5 64zM145 145l-6 5
q-6 4 -6 -1t7 -5z" />
    <glyph glyph-name="percent" unicode="%" horiz-adv-x="727" 
d="M182 699q4 4 15 1q10 -3 17 -2q6 2 12 -4q5 -6 41 -18t65 -18q26 -5 75 -4q39 1 55 4.5t56 18.5q15 6 20 2q6 -3 14 3q15 11 21 -3q2 -5 -10 -15q-19 -17 -47 -99t-69 -142q-20 -30 -25 -45q-11 -33 -35 -78t-45 -69q-25 -31 -52 -91q-42 -97 -75 -131q-23 -24 -28 -10
l-1.5 1.5t-2 0t-3.5 -2t-5 -4.5q-10 -10 -15 -8q-13 5 10 33q32 40 74 135q27 61 36 79t28 47q18 27 50 88t52 105q30 69 54 104q11 15 23.5 40.5t10.5 27.5q-1 1 -24 -5q-26 -6 -63.5 -7.5t-66.5 2.5q-32 6 -38 7q-5 3 25 -30q46 -47 55 -82.5t-13 -79.5
q-18 -37 -50.5 -66.5t-65.5 -38.5q-18 -4 -42 -4q-85 0 -137.5 48.5t-51.5 127.5q0 56 31 102q17 26 45 45.5t58 26.5q18 4 22 8zM224 663q-5 5 -14 6q-10 1 -22 -11q-38 -38 -42 -143q-2 -58 6 -90t28 -51q18 -16 24.5 -13.5t18.5 29.5q35 75 35 149q0 35 -6 59
q-14 53 -28 65zM277 589q3 3 -2 14l-4 6l1 -3q2 -8 2 -14q0 -3 0.5 -3.5t2.5 0.5zM327 579q2 8 -7 17l-10 9l6 -13q6 -11 8 -17q1 -3 3 0v4zM370 511q0 5 -3 5t-3 -7q0 -2 1 -3.5t2 -0.5q3 1 3 6zM72 434q-2 7 -5 7q-2 0 1 -8l5 -6q1 0 -1 7zM329 421q-3 -2 -8.5 1t-8.5 -9
q-4 -11 -3 -12t12 11zM92 409q-7 10 -9 4q0 -2 4 -6t6 -4q3 0 -1 6zM351 303q1 3 1.5 5t1 3t-0.5 1t-6 -9t-5 -11q0 -6 6 5q2 3 3 6zM505 322q21 6 46 5.5t40 -7.5q13 -5 18 -6q6 -1 27 -22q21 -24 48 -50q25 -26 32.5 -42.5t9.5 -47.5q1 -29 -6 -49q-17 -52 -66.5 -84
t-112.5 -32q-46 -1 -82 16t-56 47t-24 93t12 97q13 28 41 48q30 22 73 34zM559 306q-5 3 -8 2.5t-14 -8.5q-28 -21 -40 -72q-6 -22 -6 -69q0 -49 9.5 -79.5t30.5 -51.5q11 -11 11 -16q0 -6 9.5 -6t9.5 3t14 26q13 22 17 38.5t4 48.5q0 51 -12.5 112.5t-24.5 71.5zM402 172
q3 8 2 26v1l-1 14q-1 -2 -2 -8q-3 -15 -2 -27l1 -10q1 0 2 4z" />
    <glyph glyph-name="ampersand" unicode="&#x26;" horiz-adv-x="792" 
d="M288 696q20 4 50.5 2.5t47.5 -7.5q34 -14 67.5 -46.5t47.5 -66.5q7 -16 7 -36.5t-6 -33.5t-22.5 -31t-32.5 -29q-23 -16 -42 -23q-17 -7 -19 -9q-1 -1 6 -10t19 -24.5t27 -33.5q58 -69 98 -117q42 -53 45 -53t19 23.5t24 38.5q23 49 21 105q-2 32 -3 35q-3 2 -57 4
q-56 3 -59 6t-2 9v1q0 4 15 4t102 -2h38q110 -3 112 -8v-6.5t-8.5 -4t-20.5 -2t-37 -0.5h-61v-43q1 -43 -6 -66q-13 -47 -48 -93l-17 -21l11 -17q9 -14 24 -36q14 -20 18 -29q6 -13 19.5 -27t26.5 -21q17 -10 41 -10q23 1 32 4q9 4 13 0q17 -14 -20 -21q-11 -3 -28 -4
q-31 -2 -64 -11q-88 -23 -129 0q-14 8 -34 28l-18 20l-49 -20q-114 -47 -173 -36q-26 4 -63 16t-59 23q-72 36 -91 100q-6 19 -5.5 51.5t5.5 51.5q15 50 45 83t85 60l39 20l-14 18q-14 17 -30.5 48t-23.5 54t-7 54q0 21 1.5 28.5t10.5 25.5q12 24 30 37q41 33 102 48z
M355 663q-8 8 -12.5 8.5t-15.5 -4.5q-20 -9 -29 -29q-9 -22 -7 -58t14 -60q6 -11 31.5 -45t28.5 -34t11 12t14 24q6 15 5 39q-4 44 -16.5 90t-23.5 57zM212 595q2 9 1 9.5t-4 -4.5q-4 -6 -2 -10q2 -3 4 3q0 1 1 2zM237 542q-3 18 -5 18q-2 -3 0 -20.5t4 -17.5q3 0 1 20z
M456 551q-1 11 -4 11q-1 -1 -0.5 -8t2.5 -16t3 -10q2 -3 2 1q0 3 -3 22zM215 495l-3 14q-1 -2 -1 -8q0 -9 3 -13q3 -5 2 4q-1 2 -1 3zM251 343q-9 13 -11 13q-11 0 -16 -58q-8 -94 7 -146t65 -100q25 -25 45 -34q14 -7 19.5 -7.5t14.5 1.5q8 3 52 20.5t46 19.5q1 1 -22 36
t-39 57t-30.5 47t-14.5 32q0 4 -53 55q-54 53 -63 64zM201 259q1 10 0 20q-1 -5 -1 -10zM396 271q-8 11 -11 13l1 -5q3 -6 10 -12l7 -6zM243 74q2 3 -4 10q-6 5 -6 2q0 -10 8 -13q1 0 2 1zM551 13q-19 14 -26 11q-1 -1 0 -2q2 -3 15 -9.5t18 -6.5t-7 7z" />
    <glyph glyph-name="quotesingle" unicode="'" horiz-adv-x="252" 
d="M170 649q12 8 26 6q34 -3 49 -34.5t-2 -62.5q-16 -27 -72 -88q-47 -50 -59.5 -65.5t-20.5 -31.5q-8 -17 -18.5 -28t-15.5 -10q-3 1 -7 7q-3 5 4 12q7 8 7 14q0 8 11 22q9 13 16.5 35t23.5 86q18 70 30.5 99t27.5 39zM228 609q-5 13 -8 13q-6 -2 2 -12q5 -5 4 -24v-15
q0 1 2 6q7 14 0 32zM217 556q7 10 5 9q-1 0 -5 -3q-7 -8 -7 -15zM204 539l-9 3q-6 1 -7.5 0t-1.5 -4q0 -7 -8 -15t-8 -11t-11 -14q-11 -10 -10 -15t28 25z" />
    <glyph glyph-name="parenleft" unicode="(" horiz-adv-x="330" 
d="M306 693q2 1 5 2t4 1.5t2 0.5q2 0 7.5 -4t5.5 -6q0 -4 -27 -43q-53 -80 -70.5 -157.5t-14.5 -228.5q2 -88 9.5 -141t29.5 -125q25 -85 59 -132q12 -17 3 -27q-6 -5 -10 -3.5t-18 13.5q-15 14 -30 25q-32 22 -74 76.5t-59 96.5q-7 18 -21 65.5t-17 66.5q-9 49 1.5 116
t37.5 136q32 81 91.5 171t85.5 97zM169 455q5 17 3 16q-1 -1 -5 -8q-18 -40 -14 -36q1 1 4 5t4 5q3 4 8 18zM201 406q1 6 0 12q-1 3 -1 -1q-1 -2 0 -6v-7zM178 61q-1 2 -3 11.5t-3 15.5l-4 17v-14q0 -15 6 -27q3 -8 4 -8.5t0 5.5z" />
    <glyph glyph-name="parenright" unicode=")" horiz-adv-x="324" 
d="M60 698q8 8 35 -7t50 -39q32 -33 86 -120.5t69 -129.5q10 -26 15 -38q3 -6 2 -16q-1 -8 3 -36q4 -27 2.5 -76t-6.5 -74q-20 -90 -66 -173q-33 -59 -106 -131q-40 -41 -58 -53.5t-28 -7.5q-5 3 -6 9t4 11t21 35.5t23 49.5q40 105 55 175q4 17 6 76t0 79q-3 26 -6 109
q-8 200 -39 270q-11 22 -24.5 42t-22.5 25q-18 11 -9 20zM178 410q1 1 -3 20l-4 18l1 -18q2 -25 6 -20zM217 309q0 20 -6 43l-6 16q0 -2 5 -32q4 -28 5 -38q1 -4 1 0q1 4 1 11zM273 189q2 6 1 34l-2 29l-2 -24q-4 -38 1 -41q1 -1 2 2zM117 -143q3 4 -4 4t-13 -10l-4 -11l8 7
q9 6 13 10z" />
    <glyph glyph-name="asterisk" unicode="*" horiz-adv-x="457" 
d="M317 683q27 15 43.5 1.5t16.5 -48.5q0 -22 -5 -34t-18 -21q-14 -10 -14 -11q2 -1 31 -4q30 -4 42.5 -8t23.5 -15q20 -19 19.5 -36t-20.5 -29q-20 -11 -48.5 -6.5t-56.5 23.5q-12 8 -13 7q-1 -2 10 -30q20 -50 16 -73q-4 -25 -33 -36t-47 5q-7 6 -9 11.5t-4 23.5
q-2 25 -5 41q-4 13 -3 19q1 4 -2 2q-2 -1 -8 -5q-10 -8 -13 -10q-2 -3 -22 -11.5t-30 -10.5q-22 -5 -36.5 5.5t-14.5 31.5q0 38 84 57q21 4 35 8q3 1 -6 6q-3 3 -8 5q-47 24 -66.5 54t-1.5 52q12 14 32 19.5t34 -2.5q11 -6 23.5 -22t20.5 -34l9 -22l1 14q0 25 12.5 49.5
t30.5 33.5zM358 646q0 8 -3 13q-3 4 -1 -4v-3l3 -14q1 2 1 8zM215 612q-6 8 -11 13q-3 2 -3.5 1.5t0.5 -4.5q1 -5 11 -13l10 -7zM192 593q-11 17 -20 26l-8 8l2 -8q6 -19 28 -36l10 -8zM253 551q1 0 -3 8t-4 5v-4t1 -5.5t3 -4t3 0.5zM392 539q-6 6 -19 7h-10q0 -1 4 -3
q8 -4 19 -7h9zM165 460q-24 17 -28 8q-1 -6 3 -13q9 -14 31 -5q6 2 -3 8q-1 1 -3 2zM320 392v1h-2q-1 0 -3 -1t-4 -1q-7 -2 -9 -6q-1 -3 3 -2l6 3q9 5 9 6z" />
    <glyph glyph-name="plus" unicode="+" horiz-adv-x="505" 
d="M266 528q5 13 13 13q7 0 9 -5t-1.5 -12.5t2 -8.5t8.5 3t10 2.5t7 -7.5q0 -5 -4 -22q-14 -53 -8 -103l4 -34l11 -2q95 -15 160 0q18 4 23 3t5 -10q0 -6 -4 -8t-19 -5q-7 -1 -9.5 -2.5t-2.5 -7.5q0 -12 -16 -13q-7 0 2 -2q10 -2 10 -10v-8l-42 -1q-45 0 -87 2q-45 2 -45 -1
q0 -4 -2 -14q0 -8 2 -8q3 2 8 -3.5t3 -10.5q-9 -21 2 -81q3 -19 4.5 -33.5t1 -22t-2.5 -7.5q-3 0 -10 -7.5t-11.5 -7t-11.5 10.5q-7 12 -8 28l-1 15l-1 -17q-2 -12 -3.5 -14.5t-7.5 -3.5l-9 -1l1 59q1 54 -2 91q-2 22 -3 27t-7 6q-7 1 -75 -1q-67 -1 -74 2q-5 3 -18 6
q-12 1 -13 5q-2 5 2 10t10 5q8 0 8 8t3 8t1 5q-1 6 3 10q7 6 105 -8q54 -8 55 -7q2 4 7.5 45t7.5 75q5 57 10 70z" />
    <glyph glyph-name="comma" unicode="," horiz-adv-x="252" 
d="M136 128q12 3 17.5 2.5t16.5 -4.5q64 -24 79 -117q3 -16 2.5 -21t-4.5 -25q-9 -45 -35 -73q-36 -38 -94 -41q-27 -1 -25 9q0 2 1 4q4 5 22 7q47 6 73 26.5t37 61.5l3 15l-11 -2q-12 -3 -37 -3q-25 1 -40 9q-50 26 -50 83q0 56 45 69zM223 -8q1 1 0 9q-1 5 -2 5t-6 -8
l-7 -11l7 2q5 1 8 3z" />
    <glyph glyph-name="hyphen" unicode="-" horiz-adv-x="282" 
d="M35 278q9 10 24 0q6 -5 21.5 -6.5t87.5 -2.5q99 -2 106 -5q12 -5 6 -32q-3 -14 -5 -36t-7 -26q-4 -4 -90 -4q-85 0 -117 -4q-33 -3 -37.5 2t0.5 40q4 36 4 51q1 17 7 23zM261 242q0 5 -8 5q-5 0 -5.5 -1t3.5 -8t7 -6t3 10zM257 211q2 10 0 13q-1 2 -2 -3q-1 -1 -2 -4
q-3 -12 -3 -13q-1 -4 2 -4q2 0 5 11zM67 182.5q0 1.5 -9 4.5t-9 -1q0 -5 9 -5t9 1.5z" />
    <glyph glyph-name="period" unicode="." horiz-adv-x="230" 
d="M107 131q6 5 14 6t30 -2q19 -3 38.5 -12t27.5 -19q18 -19 9 -52q-10 -36 -36 -58q-18 -16 -39 -17.5t-37 9.5t-26 32t-7 47q1 17 9.5 38t16.5 28z" />
    <glyph glyph-name="slash" unicode="/" horiz-adv-x="471" 
d="M440 662q6 6 8 6t12 -5t10 -10q0 -16 -33 -92q-35 -79 -129 -222q-56 -84 -70 -120q-14 -33 -23 -49.5t-35 -53.5q-28 -40 -48 -77q-20 -36 -28 -47q-8 -9 -15 -6q-8 4 -14 -1q-7 -4 -12 1q-9 10 0 32.5t52 100.5q71 127 88 181q24 74 42 101q8 14 47 68q59 81 95 139
q30 48 40 48q5 0 13 6zM416 563q6 13 9.5 22t2.5 9q-8 0 -39 -61q-20 -38 -27 -50q-9 -14 -28.5 -52t-19.5 -41q0 -6 17 21q51 79 85 152zM325 467l10 24q-1 0 -38 -51q-37 -50 -49 -78q-13 -29 -11 -29l3 3q2 2 6 7t9 11q16 21 37.5 55.5t32.5 57.5zM252 303q0 6 -2 7
q-3 2 -13 -11t-18 -27q-15 -30 -18 -49q7 8 29 42.5t22 37.5zM196 176q3 5 1 5q-1 0 -10 -15l1 -2q5 7 8 12z" />
    <glyph glyph-name="zero" unicode="0" horiz-adv-x="565" 
d="M249 437q17 2 40 1t30 -4t18.5 -4t12.5 2q2 3 8 2.5t9 -4.5t31 -13q66 -20 110 -64q41 -40 51.5 -82.5t-1.5 -115.5q-5 -34 -11 -49.5t-20 -34.5q-35 -47 -83.5 -69.5t-119.5 -25.5q-69 -3 -114 11q-67 20 -117.5 63.5t-69.5 95.5q-7 20 -8 49.5t4 51.5q18 74 83 128
t147 62zM315 412q-34 3 -40 5q-7 2 -9 -4t-10 -8q-9 -1 -24 -24q-24 -35 -32.5 -71t-8.5 -104q0 -79 16 -144q5 -21 13 -39.5t12 -20.5q5 -2 44 -6q31 -3 64.5 -0.5t36.5 8.5q3 5 19 71.5t19 86.5q3 26 1 64.5t-8 59.5q-7 24 -28 71t-25 50q-6 2 -40 5zM206 380q5 8 4 8
t-8.5 -8t-3.5 -8q3 0 8 8zM146 377l5 7q-2 -1 -13 -8q-16 -10 -16 -11t8 2q10 3 16 10zM469 350q-12 9 -12 4q0 -1 1 -5q4 -8 11 -9q8 -2 7.5 1t-7.5 9zM420 323q0 7 -6 15l-6 7l4 -9q4 -8 6 -14zM462 233q2 6 -6 29q-5 18 -7 18q-1 -1 6 -30q5 -17 7 -17zM499 258
q-1 4 -5 11l-5 8l2 -8q4 -9 8 -11zM47 219q2 18 1 20l-4 -14q-4 -21 -2 -23l4 8q1 4 1 9zM94 223q-3 3 -6 8q-2 6 -2 3q0 -11 6 -28q11 -33 15 -32q1 0 1 2q0 8 -5.5 26.5t-8.5 20.5zM170 190q1 13 0 25q-1 5 -1 0q-1 -4 -1 -13l1 -15q0 1 1 3zM443 196q-1 7 -3 7
q-3 0 -5 -29q-2 -27 -8 -57l-7 -39q1 2 4 10q6 15 13 55.5t6 52.5zM80 132q-13 24 -18 24q-9 0 12 -27q3 -5 7 -9l11 -12zM466 117q8 11 7 15q-1 1 -6 -4.5t-10 -13.5t-5 -11q0 -5 5 2q2 3 9 12zM156 112l-4 15l-1 -3q-2 -3 3 -15l4 -11zM528 112q2 7 1 7q-1 -1 -15 -23
q-11 -19 -28 -38l-14 -16l14 13q11 10 25.5 29.5t16.5 27.5zM164 70q0 7 -3 16l-2 9l-1 -8q-2 -9 2 -15q3 -5 3.5 -5.5t0.5 3.5zM464 72q1 4 2 6v3q-1 0 -8 -9q-7 -10 -2.5 -10t8.5 10zM151 41q-10 9 -18 9q-5 0 -5.5 -0.5t3.5 -3.5q8 -5 15 -9t11 -6t4 -1t-10 11zM418 13
q8 4 6 12l-3 5l-3 -8q-4 -10 -7.5 -10t-1.5 -1q2 -2 9 2z" />
    <glyph glyph-name="one" unicode="1" horiz-adv-x="363" 
d="M302 418q16 3 39 3q16 -1 19 -2t3 -6.5t-6.5 -7.5t-43.5 -6q-50 -6 -50.5 -6.5t-4.5 -44.5q-4 -38 -4.5 -120.5t2.5 -143.5l3 -59h24q21 0 48 -4q18 -3 21.5 -4.5t3.5 -7.5t-6 -6q-8 -2 -95 2q-90 3 -193 -12q-45 -6 -50 -4q-4 2 -3.5 8t5 9t48.5 8l42 6l3 48q2 54 2 149
q0 79 -2.5 112t-10.5 51q-7 13 -7 17t-25 2q-37 -3 -41 -2.5t-5 6.5t1.5 8t11.5 4q27 7 139 -1q69 -5 132 4zM179 107q1 12 0 24q-1 5 -1 0v-12zM165 61q-7 15 -12 9q-1 -2 -1 -7q0 -16 13 -16q5 0 5 2t-5 12z" />
    <glyph glyph-name="two" unicode="2" horiz-adv-x="467" 
d="M203 426q12 1 55 2q45 0 62 -5q29 -8 55.5 -31.5t42.5 -55.5q10 -19 10 -44t-8 -42q-20 -38 -60 -69.5t-111 -63.5l-30 -15l59 3q95 2 131 11q10 2 13 5t8 14q7 18 9 41q1 18 4 24t11 6q6 0 9.5 -6t2.5 -14q-3 -14 -4 -96q-3 -87 -8 -92q-4 -4 -38.5 -5t-195.5 -2
q-228 -1 -231 2t-2 9q2 6 64 41.5t99 52.5q35 16 38 23q4 8 22 28q43 47 59 81q6 14 7.5 22.5t1.5 31.5t-1.5 31t-9.5 25q-19 38 -52 59l-13 9l-25 -5q-78 -14 -100 -49q-12 -18 -11.5 -21t16.5 -3q23 0 46 -13.5t35 -34.5q18 -32 1.5 -56t-59.5 -26q-41 -3 -63 16
q-39 36 4 125q14 29 28.5 43t41.5 24q11 4 41.5 11t45.5 9zM275 375q-9 13 -11 13q-6 -2 2 -10q5 -4 10 -14q5 -9 6 -5q2 4 -7 16zM366 348q-17 28 -20 26q0 -2 10 -17q11 -16 16 -29q6 -16 9 -16q1 0 -0.5 5.5t-5.5 14t-9 16.5zM342 342q-3 4 -5 7l-3 4q-1 -2 6 -12
q1 -4 3 -6.5t3 -4t2 -1.5q1 2 -6 13zM100 306q-4 0 -9 2q-4 2 -4 1t2 -5q3 -7 10 -5q9 3 5 6q-1 1 -4 1zM311 286q3 3 0 12q-1 6 -2 7l-1 -9q1 -10 3 -10zM363 294q-3 11 -6 11q-3 1 -1 -7q2 -9 -2 -15q-3 -5 -2 -12t5 0q1 1 2 3q6 11 4 20zM127 240q0 5 -3 10q-3 4 -3 -2
q-1 -1 -1 -3q0 -11 3.5 -11t3.5 6zM98 216l12 1l-10 12l-10 12l-3 -12q-4 -12 -3 -13t14 0zM372 222q5 10 4 13q0 2 -4 -4q-2 -3 -4 -8q-6 -13 -3 -12q2 1 7 11zM274 162q7 7 5 8q-2 3 -9 -8q0 -2 -1 -3t0 -1t5 4zM108 42q-7 8 -18 0q-5 -4 1 -4h7q11 0 12 1q0 1 -2 3z
M439 27v14q-8 -1 -8 -13q0 -8 -7 -9q-11 -1 -11 -4t12 -3h14v15zM386 15.5q0 3.5 -8 3.5t-8 -3.5t8 -3.5t8 3.5z" />
    <glyph glyph-name="three" unicode="3" horiz-adv-x="428" 
d="M174 431q43 4 78 0q87 -11 129 -56.5t25 -110.5q-15 -60 -78 -96l-26 -16l16 -13q19 -15 31 -22q34 -21 50.5 -45t25.5 -65q5 -23 1 -54q-6 -70 -38.5 -110.5t-106.5 -70.5q-57 -23 -112 -28t-93 9q-15 6 -31.5 19.5t-25.5 27.5t-15.5 38t-6.5 43q0 40 28 54q13 6 35 5
q23 -2 36 -11q40 -28 23 -69q-8 -19 -37 -40l-18 -13l11 -8q18 -15 50 -20q15 -2 19 5q5 7 14 11.5t14 2.5t18 10.5t26 32.5q34 54 41.5 115t-15.5 106q-12 25 -28 34t-52 14q-32 4 -34 7q-4 2 -4.5 9.5t2.5 8.5q2 0 12 1q40 5 75 42q26 30 32.5 64t-5.5 81q-10 39 -28 59.5
t-41 20.5q-9 0 -12 3t-25.5 -3t-38.5 -14t-30 -21l-14 -13l18 -2q18 -2 24 2q6 3 12 -4q4 -6 15 -12q15 -7 22.5 -24.5t2.5 -34.5q-5 -20 -22.5 -30t-43.5 -9q-38 2 -54 36q-8 17 -7 38t9 36q16 32 55.5 53.5t91.5 26.5zM378 346q-6 11 -9 13q-1 2 -1 0q0 -3 7 -16
q10 -20 11 -48l2 -22q1 2 2 10q5 34 -12 63zM58 273q-6 5 -14 22l-7 10l1 -3q4 -22 21 -34q7 -6 23 -7t27 4l8 3l-7 8l-7 7l-2 -7q-3 -7 -8 -8q-7 -3 -18.5 -1t-16.5 6zM306 103q-10 12 -10 3q0 -2 5.5 -5.5t8.5 -3.5q2 0 -4 6zM282 20q-2 13 -5 15q-1 2 -1 -1t1 -9l6 -15
q1 1 -1 10zM341 18q-4 8 -5 9l3 -12l6 -10v1q1 3 -4 12zM320 -69q4 10 -1 10q-8 0 -8 -13q0 -7 2 -8q3 0 7 11zM104 -111q-3 11 -6 13q-3 3 -3 -2v-11q1 -17 -4 -27q-5 -13 -3 -11.5t9 13.5q9 14 7 25zM382 -128q5 8 7.5 13.5t1.5 5.5t-8 -12q-6 -13 -17 -28l-8 -11q2 1 5 4
q10 9 19 28zM288 -152q5 5 2 13l-3 9l-3 -12q-5 -17 1 -14q1 1 3 4z" />
    <glyph glyph-name="four" unicode="4" horiz-adv-x="509" 
d="M337 432q9 15 16 14q6 -1 7 -6q5 -20 -85 -120q-28 -32 -77 -94q-62 -81 -84.5 -107.5t-53.5 -58.5l-40 -41l10 -1q9 -2 90 -5.5t110 -3.5h24l2 15q3 21 2 68.5t-4 79.5q-10 83 0 86q5 2 10 -1t39 3q74 13 89 2l8 -4l-1 -126l-1 -125l22 1q24 2 51 5q30 3 34 1q3 -2 3 -9
q0 -8 -10 -10q-10 -1 -46 -4t-45 -3h-8v-55q0 -54 6 -99q7 -44 5 -52t-18 -10.5t-67 -3.5q-63 -2 -69 2q-4 3 -5 13t-2 54q-1 59 2 105q3 44 2 45t-89 4q-148 5 -165 15q-15 8 11 35q6 6 19 17q49 47 113 130q80 103 123 152q52 58 72 92zM325 232q1 11 -1 11q-21 -3 -8 -20
q5 -7 7 1q1 3 2 8zM346 176l-3 48q0 -2 -2 -10q-2 -19 -1.5 -47.5t4 -28.5t2.5 38zM301 173q0 24 -4 35l-4 12v-18q0 -19 4 -35l4 -15v21zM274 -184.5q-3 17.5 -5 18t-2 -13.5q0 -36 9 -36q5 0 3 8q-2 6 -5 23.5zM343 -201q-5 0 -9 7q-4 1 -4 -4q0 -8 1.5 -9.5t7.5 -1.5
q10 0 10 4t-6 4z" />
    <glyph glyph-name="five" unicode="5" horiz-adv-x="446" 
d="M369 459q2 4 8 3t7 -8.5t3 -48.5q3 -54 1 -70q-3 -20 -17.5 -26.5t-70.5 -13.5q-95 -11 -161 -11h-43l-2 -11q-2 -10 0 -47q4 -63 0 -77q-1 -3 2 -3q3 1 14 5q54 21 106 30q21 4 50 2q46 -3 79.5 -23t61.5 -62q28 -43 35.5 -79t-4.5 -74q-21 -62 -72 -107.5t-124 -64.5
q-20 -6 -61 -5q-28 0 -39.5 1.5t-37.5 9.5q-42 14 -56.5 23t-22.5 27q-7 16 -4 51.5t12 47.5q6 8 18 17l12 9l20 -5q51 -13 56 -55q3 -41 -54 -67q-12 -5 -18 -5q-5 0 -5.5 -3t5.5 -5q15 -6 43 -15t37 -10q34 -4 39 -3.5t14 8.5q16 16 40 59.5t32 73.5q13 48 5 97
q-7 45 -34 107l-14 32l-14 -2q-15 -2 -50.5 -13t-56.5 -20q-34 -13 -40 -5q-4 4 2 15q4 9 4.5 30t-1.5 98q-3 86 -11 88q-3 2 -3.5 8t2.5 8t3 19v4q0 17 12.5 20t86.5 5q13 1 20 1q100 3 147 5l36 3l1 14q0 12 2 18zM295 376q2 1 -1 1h-6l-6 -1q7 -1 13 0zM224 347l15 2
q-1 0 -9 1q-16 2 -36 -1q-21 -2 -41 -1h-13q1 -1 4 -1q20 -8 80 0zM175 320h-36q-10 0 -16 -1q-13 -2 -13 -5q3 -4 32 0q31 5 33 6zM399 -6.5q0 2.5 -5 8.5q-4 5 -4 3v-3q2 -6 2 -9q0 -2 3.5 -2t3.5 2.5zM426 -18q1 9 0 17l-1 -1v-7zM342 -39q0 9 -3 14q-2 3 -2 0t1 -8
l4 -13v7zM383 -54q0 6 -5 10q-4 4 -4 0q-1 -4 4 -11q4 -4 4.5 -4t0.5 5zM330 -113q3 8 2 8t-7 -11q-5 -9 -3 -9q5 4 8 12zM105 -132q0 5 -3 10q-3 1 -3 -7q0 -10 3 -10q3 1 3 7zM72 -156q2 2 1 14l-1 12l-3 -12q-3 -14 1 -15q1 0 2 1zM350 -149q17 15 11 14q-2 0 -6 -2
q-5 -2 -29 -24l-18 -17q1 -1 11 6q16 9 31 23z" />
    <glyph glyph-name="six" unicode="6" horiz-adv-x="511" 
d="M313 642h5.5h6h3.5q13 2 58.5 -3.5t59.5 -10.5q17 -5 31.5 -16t19.5 -24q8 -18 3 -39t-20 -36q-19 -19 -54 -23q-17 -1 -22.5 -0.5t-13.5 5.5q-11 7 -16 13q-8 9 2.5 44t26.5 52q10 11 6 12q-1 0 -2 1q-5 2 -43 4l-36 2l-28 -29q-35 -36 -54 -66.5t-33 -72.5
q-7 -19 -15.5 -57.5t-7.5 -40.5q1 -1 10 5q14 12 30.5 16.5t47.5 5.5q91 3 151 -35t78 -108q5 -20 3.5 -51t-8.5 -56q-22 -75 -79.5 -115.5t-144.5 -40.5q-91 0 -160 43.5t-91 114.5q-7 21 -7 82q0 60 -3 60q-5 0 0 29t15.5 67.5t20.5 62.5q35 82 95 133.5t138 66.5
q14 3 27 5zM158 548q6 7 9.5 10.5t2.5 3.5q-2 0 -15 -14q-6 -6 -9.5 -10t-2.5 -4t15 14zM178 526q2 7 0 8q-1 0 -3 -3q-9 -12 -4 -12t7 7zM218.5 520.5q2.5 4.5 3.5 7.5t0 3q-2 0 -6.5 -9.5t-3.5 -10.5q0 -1 2 2t4.5 7.5zM155 473q2 16 2 17l-3 -2l-5 -5q-8 -8 -4 -14
q3 -5 2 -10.5t-5 -5.5q-3 0 -3 -9q0 -18 6 -5q6 11 10 34zM295 356q-18 13 -46 6q-23 -4 -39 -18q-11 -10 -8 -16q4 -5 1.5 -10t-8.5 -6q-7 -1 -9 -11.5t-3 -48.5q0 -76 17.5 -152.5t39.5 -95.5q9 -7 37 -7h27l10 11q21 24 35 75q6 24 8 67t-2 72q-6 46 -22.5 82.5
t-37.5 51.5zM353 321q-7 11 -7 6q0 -1 8 -18l6 -12q0 1 -1 6q-2 12 -6 18zM469 281q-5 9 -19 24q-13 14 -10 8q3 -4 18 -23q13 -17 14 -18q2 0 -3 9zM91 248q2 2 1 23l-1 21l-3 -21q-2 -25 3 -23zM41 257q2 9 0 17l-1 -1v-7zM461 232q0 7 -3 12q-2 -4 -3 -9q0 -12 3 -12
q3 2 3 9zM435.5 186q-1.5 14 -8.5 21q-6 5 -6 2q-1 0 -1 -2q0 -6 6 -20.5t8 -14.5q3 0 1.5 14zM41 174q2 7 0 13q0 2 -1 -1v-6zM50 141q-2 11 -5 15q-3 5 -3 0q0 -7 5 -17l4 -9zM111 72q-8 11 -19 39q-11 23 -14 23q-2 -5 10 -29t22 -35l8 -9zM376 80q1 14 -1 14t-8 -21
t-5 -22q2 -2 5 3t6 13t3 13zM134 38q-3 5 -10 13q-7 9 -7 6t5 -7t5 -8t5 -6q3 -1 3.5 -0.5t-1.5 2.5zM408 41q-3 6 -10 9q-4 2 -5 2t1 -4q1 -5 -3.5 -15.5t-8.5 -10.5l-1 -2q1 -2 16 6q9 6 11 8.5t0 6.5z" />
    <glyph glyph-name="seven" unicode="7" horiz-adv-x="438" 
d="M63 429q4 4 14.5 5t60.5 -1q63 -1 120 -7q51 -5 112 -6q43 0 52.5 -1t12.5 -5q6 -9 -7 -33t-59 -90q-45 -65 -99 -161q-28 -51 -45 -77q-33 -52 -42 -75q-5 -13 -10.5 -38.5t-9 -46.5t-1.5 -21l2 1l7.5 2.5t8.5 2.5q18 7 39.5 7.5t32.5 -5.5q11 -7 18 -21t6 -27
q-4 -25 -20.5 -42.5t-37.5 -17.5q-24 0 -44 14t-27 35q-15 45 9 137q12 43 49 101q20 31 51 88q54 96 73 123q11 15 9 19.5t-20 4.5q-20 -1 -52 3q-40 4 -83.5 3.5t-65.5 -5.5q-23 -5 -31.5 -10t-11.5 -15q-4 -10 -10 -15q-5 -3 -5 -6.5t4 -19.5q6 -22 3 -27
q-1 -4 -14.5 -6.5t-16.5 1.5q-3 3 -5 47q-3 46 -6 57q-7 21 7 21q3 0 9 35q9 56 23 72zM370 391.5q0 2.5 -10.5 2.5t-10.5 -1.5t10.5 -2.5t10.5 1.5zM56 296q5 7 3 14q-3 6 -4 1q0 -1 -1 -4q-3 -15 -2 -15t4 4zM198 -145q-4 8 -7 7q-2 0 -1 -4q2 -6 2 -8q0 -3 4.5 -3t1.5 8z
M214 -200q0 8 -5 13q-3 3 -3 1t1 -6q2 -9 2 -13t3 -4q2 0 2 9z" />
    <glyph glyph-name="eight" unicode="8" horiz-adv-x="520" 
d="M189 636q30 9 52 10.5t25 -5.5q2 -7 64 -19q16 -3 51 -22.5t49 -33.5q52 -52 32 -121q-6 -18 -17.5 -38t-20.5 -28q-27 -23 -71 -38l-27 -9l23 -7q66 -19 108 -47t55 -61q10 -26 7.5 -73.5t-14.5 -73.5q-15 -31 -77.5 -62.5t-131.5 -43.5q-21 -4 -48.5 -4t-31.5 3
q-4 2 -14 -1q-10 -4 -23 3q-13 6 -41 13q-51 12 -76 36q-43 40 -43 116q1 55 26 102q11 22 24 36t35 26q17 10 43.5 20.5t34.5 10.5q6 0 14 6q10 6 1 11q-6 3 -27 11q-42 16 -75.5 41.5t-47.5 52.5q-9 17 -9 42t8 43q19 38 61 66q38 25 82 38zM279 608q-17 8 -32 10l-16 1
l-10 -33q-20 -72 -24 -136t10 -84q6 -6 37 -15q29 -7 41.5 -6t17.5 11t15 25l10 17v44q-2 115 -27 150q-6 8 -22 16zM127 431q0 12 -6 17q-4 4 -5.5 4t-2.5 -5q-2 -4 2 -14t9 -13q1 -1 2 2t1 9zM305 313q-12 9 -43 7t-34 -12q-3 -8 -16 -29q-36 -61 -26 -152q4 -40 16 -80
t22 -46q6 -5 6 -12q0 -5 2 -6.5t10 -1.5q33 -1 64 6q15 3 18.5 5.5t8.5 13.5q7 16 13 44q6 30 5 86q-3 75 -21 129q-13 39 -25 48zM171 228q3 14 1 15q-1 2 -10 -39q-1 -7 2 -9q3 6 3 9q0 10 4 24zM142 226q3 13 2 14l-6 -11q-5 -11 -2 -14q1 -2 3 3q2 3 3 8zM498 192
q0 2 -4 14q-4 7 -4 5q0 -6 4 -14q3 -5 4 -5zM88 196q6 14 6 16l-7 -10q-5 -10 -10 -17q-3 -6 -1 -7q4 1 12 18zM376 154l-5 24q-1 -1 -1 -6q0 -11 2.5 -26t4.5 -15v3v8.5t-1 11.5zM42 148q4 5 3 15l-2 5q0 -1 -3 -15q-1 -8 0 -8t2 3zM136 151q0 21 -3 21q-6 0 0 -30l2 -7
q1 2 1 16zM439 120q0 7 -3 13q-1 2 -2 3l-1 -5q0 -9 -5 -17q-8 -16 -3 -15q2 1 6 6q8 9 8 15zM200 -12q1 1 -2 3t-8 5q-8 5 -8 2q1 -3 9 -7.5t9 -2.5z" />
    <glyph glyph-name="nine" unicode="9" horiz-adv-x="528" 
d="M210 436q26 4 41 4t50 -6q52 -8 79.5 -21t55.5 -41q44 -44 74 -125q39 -107 -3 -217q-2 -7 -9.5 -27.5t-11.5 -29.5q-12 -34 -22 -48.5t-34 -34.5q-61 -51 -72.5 -59.5t-44.5 -27.5q-38 -22 -67.5 -28t-84.5 -4q-40 2 -49 3.5t-19 7.5q-25 17 -37.5 51.5t-2.5 58.5
q6 14 22 23.5t35 9.5q18 0 35 -10t25 -25q4 -9 2.5 -26.5t-7.5 -25.5q-6 -9 -35 -23l-29 -14l11 -5q5 -3 15 -4.5t17.5 -1t7.5 2.5q0 3 18 3q36 -1 71 28.5t61 83.5q23 46 27 104l2 27h-11q-10 0 -21 -6q-10 -6 -30 -10q-72 -16 -149.5 22t-109.5 105q-10 21 -10 45
q1 25 12 59t27 61q29 46 75 79t96 42zM307 409q-6 4 -28 5.5t-29 -1.5q-18 -8 -33.5 -50t-22.5 -102q-9 -76 -0.5 -135.5t29.5 -71.5q10 -5 10 -12q0 -5 7 -4q8 2 22 4q15 2 41 18q20 12 26.5 20.5t6.5 23.5q0 8 8 15q22 21 11 142q-6 58 -18.5 98t-29.5 50zM423 358
q-22 24 -24 19q0 -1 11 -15q12 -14 15 -20q5 -6 8.5 -2.5t-10.5 18.5zM64 308q0 8 -7 -3q-4 -6 -4 -6.5t5 2.5q6 4 6 7zM383 250q0 7 -5 20l-4 13l1 -17q2 -21 6 -22q2 -1 2 6zM75 191q-8 15 -10 15q-1 0 -1 -4q0 -3 8 -15t10 -12v2l-3 6zM492 172q0 4 -3 12q-2 9 -2 2
t2 -13q3 -6 3 -1zM458 116q0 9 -8 23l-5 9q-1 -2 7 -25l5 -10q1 0 1 3zM508 126q0 10 -2 11q-1 1 -2 -2q-1 -1 -1 -3q-2 -4 1 -11q3 -1 4 5zM503 86q2 12 0 13q-1 0 -3 -1q-4 -1 -4.5 -10t2.5 -11q1 -1 2 0.5t2 3.5t1 5zM385 23q1 5 -1 5t-8.5 -23t-4.5 -25l6 16l1 2
q5 21 7 25zM450 -29q4 13 -4 0q-1 -2 -3 -5q-15 -28 -9 -27q8 3 16 32zM153 -122q-2 6 -10 13l-7 7l6 -11q8 -13 10 -14q2 0 1 5zM139 -154q0 6 -10 0q-3 -1 -7 -4q-13 -7 -19 -7q-7 -1 -7 -7q0 -5 4 -4q3 1 14 6q13 6 22 10q3 2 3 6z" />
    <glyph glyph-name="colon" unicode=":" horiz-adv-x="223" 
d="M109 422q14 5 38 5t26 -5q1 -3 15 -16t17 -24q9 -25 -5.5 -60t-38.5 -47t-59.5 -1t-49.5 35q-16 29 2 64.5t55 48.5zM152 406q0 7 -28 0q-9 -2 -11 -3q-1 -1 1 -2q3 0 15 1q19 2 28 -4q10 -6 18 -14t8 -12q0 -5 2 -1q2 5 -4.5 13t-16.5 13q-12 6 -12 9zM66 334q2 6 0 14
q0 -4 -1 -7zM113 125q16 9 39 8q43 -1 61 -32q14 -23 8.5 -54.5t-26.5 -52.5q-29 -29 -69 -20.5t-51 46.5q-7 23 -3 47t17 39q9 11 24 19zM173 67q-5 11 -7 1q-1 -3 -1 -8q1 -7 -0.5 -9.5t-5.5 -2.5q-7 -1 -11 6q-4 8 -6.5 8t-2.5 -8q0 -16 18 -16q7 0 9 1.5t5 10.5
q3 13 2 17zM138 -7q-2 3 -11 5q-7 1 -7 -1q-1 -2 11 -5q7 -1 7 1z" />
    <glyph glyph-name="semicolon" unicode=";" horiz-adv-x="232" 
d="M138 426q8 2 15.5 1.5t7.5 -2.5q0 -3 17 -11q47 -23 51 -77q2 -21 -5 -35t-25 -29q-22 -17 -35 -18.5t-37 12.5q-18 9 -25 16.5t-13 21.5q-11 30 -2 63t33 49q11 7 18 9zM144 401l-2 2q-7 0 -17 -9.5t-15 -22.5q-4 -9 -3 -10l5 6q3 4 6 10q9 19 26 24zM184 313q6 5 4 11
l-2 2q0 -3 -7 -10t-2 -7q2 1 7 4zM145 298q-10 7 -18 18q-5 8 -6 7q0 -1 1 -4q3 -9 9 -20.5t9 -12.5q3 -3 16.5 -2.5t20.5 3.5q-2 3 -7 3q-14 1 -25 8zM124 119q19 4 45 -4t40 -22t18 -27t4 -43q0 -34 -8 -58q-17 -48 -40 -77t-48 -33q-13 -3 -36 -0.5t-29 7.5q-8 7 -3 16
t29 30q17 15 39.5 42t22.5 33q0 1 -7 1q-12 0 -27.5 6.5t-23.5 15.5q-21 21 -21 52q0 52 45 61zM166 92q-19 8 -25 3l16 -6q18 -4 19 -3t-0.5 1.5t-4 2t-5.5 2.5zM107 82q3 5 5 8.5t1 3.5q-2 0 -8.5 -11.5t-5.5 -12.5q1 0 2 1.5t3 4t3 6.5zM163 56q3 7 3 8.5t-4 1.5
q-10 0 -10 -10q0 -5 1.5 -6.5t4 0t5.5 6.5zM111 29q-3 9 -7 16q-5 10 -5 3q0 -4 5.5 -15t8.5 -11q1 0 -2 7zM208 -10q4 10 2 12q-1 1 -3 -3q-2 -6 -2 -12q1 -7 3 3zM175 -73q6 13 7 17h-1q-3 -4 -11 -19q-10 -20 -7 -19q3 3 12 21zM129 -106q10 17 9 18t-12 -14
q-9 -15 -14 -19q-4 -3 -3.5 -3.5t4.5 -0.5q6 0 16 19z" />
    <glyph glyph-name="less" unicode="&#x3c;" horiz-adv-x="552" 
d="M482 597q38 22 46 9q7 -11 -11 -21q-9 -5 -73 -53q-152 -114 -224 -157l-24 -14l10 -6q67 -39 156 -111q17 -13 46.5 -36.5t35.5 -28.5q60 -49 93 -62q10 -4 12.5 -6t1.5 -8q-1 -5 -3.5 -6.5t-15.5 -1.5l-19 1l17 -8q25 -12 15 -21q-5 -5 -13 -2.5t-41 19.5
q-86 42 -188 139q-25 24 -37.5 32.5t-59.5 32.5q-53 26 -71 37.5t-18 18.5q0 6 31 26q29 18 86 60q144 107 248 167zM194 328q-28 27 -29 27q-2 2 -11 -6l-9 -7l38 -20l39 -20zM343 233q-49 39 -65 50l-22 15l11 -12q10 -11 30 -24q30 -20 85 -63q4 -3 4 -1q0 1 -43 35z" />
    <glyph glyph-name="equal" unicode="=" horiz-adv-x="509" 
d="M102 381q6 2 191 1t189 -2q4 -2 4 -9.5t-5 -9.5q-5 -1 -13 -2q-5 0 -5.5 -0.5t12.5 -3.5q8 -2 8 -10q0 -5 -2.5 -8t-13.5 -4t-27.5 -0.5t-51.5 1.5q-83 4 -139 8q-89 7 -111 9q-49 3 -51 8q-2 4 3.5 12.5t11.5 9.5zM73 292q5 5 30 4t184 -10q208 -12 218 -18q4 -1 2 -9
q0 -5 -3 -6.5t-14 -2.5q-16 -3 -21 -7q-7 -8 -67 -9t-110 5q-36 6 -131 8l-92 1v8q0 6 3 7t20 2l24 1l-20 5q-17 4 -22.5 9.5t-0.5 11.5z" />
    <glyph glyph-name="greater" unicode="&#x3e;" horiz-adv-x="530" 
d="M110 624q20 7 77 -39q12 -10 53 -43q38 -30 89 -66q55 -40 87 -65q37 -29 44 -35q5 -3 9 -1.5t18 13.5q43 34 43 7q0 -9 -20.5 -28.5t-17.5 -24.5q4 -5 3 -11q-1 -8 -12 -9q-10 0 -34 -19q-26 -20 -63 -44q-47 -31 -152 -114q-44 -36 -48 -36q-3 0 -7 6q-2 4 -6.5 2
t-23.5 -16q-26 -19 -33.5 -23t-12.5 0q-5 5 -3.5 9.5t12.5 12.5q13 10 40 34q50 46 153 114q120 81 124 92q0 1 -2.5 3t-7 4.5t-10.5 5.5q-113 59 -261 207q-49 49 -47 57q1 4 9 7zM329 442q-31 26 -61.5 49.5t-49.5 37t-19 10.5q0 -2 39 -36t64 -54q18 -14 42 -31t41 -27.5
t17 -8.5t-73 60z" />
    <glyph glyph-name="question" unicode="?" horiz-adv-x="393" 
d="M213 685q8 1 21 2q8 0 34 -9q48 -16 71.5 -34t40.5 -52q24 -48 0 -105.5t-106 -147.5q-48 -53 -61 -74.5t-15 -52.5q-2 -21 4.5 -27t3.5 -13q-3 -12 -27 -2q-16 7 -26.5 40.5t-11.5 81.5v35l21 42q21 42 21 46q0 5 15 43.5t26 61.5q17 38 20 55.5t-5 36.5q-6 13 -13 13
q-18 0 -18 11q0 7 -15 13q-31 12 -63 -5q-20 -9 -36.5 -25t-23.5 -32q-4 -8 -7 -17t-4 -14t1 -6q1 0 15 12q20 18 42.5 18t40.5 -16q25 -23 25 -52t-25 -45q-28 -20 -61.5 -12.5t-48.5 37.5q-7 13 -7 49q0 25 1.5 33t7.5 21q19 38 61 61.5t102 28.5zM347 465q8 14 7 15
l-2 -2q-1 -1 -3 -4l-4 -6t-3.5 -6.5t-2.5 -5.5l-1 -6q2 2 9 15zM177 126q34 17 72 -19q23 -22 21 -63q-2 -32 -17.5 -52t-41.5 -23q-31 -2 -51.5 18.5t-22.5 56.5q-4 60 40 82zM176 40q1 7 0 12q-1 3 -1 0q-1 -2 0 -7v-7zM205 23q3 4 -3 6t-6 -2q0 -5 3 -6.5t6 2.5z" />
    <glyph glyph-name="at" unicode="@" horiz-adv-x="902" 
d="M489 682q20 3 79.5 0.5t73.5 -5.5q58 -13 93 -36q16 -10 58.5 -49.5t60.5 -61.5q24 -28 34.5 -57.5t12.5 -75.5q1 -39 -5 -69q-23 -112 -121 -202q-78 -71 -123 -71q-17 0 -74 3q-58 4 -74.5 11.5t-20.5 32.5l-2 14l-17 -13q-46 -35 -101 -39q-21 -1 -28 -3q-6 -3 -11 1
q-6 3 -10 0q-6 -3 -29.5 13.5t-34.5 33.5q-19 29 -10 85q16 94 81.5 186t134.5 116q17 6 55 6t56 -6q31 -11 49 -28l7 -6l2 7q2 9 2 18q2 23 20 13q8 -4 13 1q6 5 12 5t7 -6q1 -5 8 -6t39 0q46 1 50 -1q6 -4 3.5 -12t-10.5 -14q-18 -16 -48 -94q-16 -42 -45 -98
q-25 -49 -34.5 -74.5t-10.5 -48.5q-2 -19 2 -29t17 -22q11 -8 14.5 -9t15.5 2q13 3 35 15.5t33 22.5q35 34 60 97t34 145q6 54 5 73t-13 42q-20 36 -52 72.5t-66 62.5q-31 22 -68 31t-101 9q-120 -1 -209 -35q-19 -8 -32.5 -22.5t-38.5 -56.5q-63 -105 -93.5 -218.5
t-18.5 -199.5q7 -51 33 -111t53 -88q11 -11 23.5 -16.5t71.5 -24.5q72 -24 100.5 -30t60.5 -5q44 3 125 31q155 54 239 201q10 17 18 17q16 0 1 -25q-2 -3 -4 -7q-79 -131 -203 -188q-28 -13 -78.5 -28.5t-78.5 -19.5q-23 -3 -33 -3t-34 4q-31 5 -125.5 35.5t-126.5 45.5
q-43 21 -75.5 47t-45.5 50q-11 21 -24 63.5t-16 65.5q-4 36 5 73q5 16 5 35q0 55 21 118.5t55 113.5q17 25 54 60.5t65 54.5q58 38 109.5 55t138.5 26zM583 466q-14 9 -18 9q-6 -1 -24.5 -16t-37.5 -35q-46 -48 -74.5 -117t-32.5 -141q-1 -33 4 -35q5 -3 5 -20t2 -17
q4 0 24.5 12.5t33.5 23.5q14 11 18 17t8 21q6 23 15 43q8 23 8 27q0 5 3 7q4 2 45 82t49 101q3 7 2 10t-7 10q-9 10 -23 18zM469 417l13 17q-3 0 -10.5 -7.5t-13.5 -17.5l-6 -13q2 3 17 21zM880 379.5q0 30.5 -2 39.5q-2 6 -3 -20v-21q1 -43 3 -40q2 11 2 41.5zM408 363
q4 6 2 6q-1 0 -6 -6t-5 -8q0 -5 7 4zM72 282q1 14 1.5 24t-0.5 10q-2 0 -5.5 -36.5t-2.5 -54.5v-23l3 23q2 28 4 57zM592 234q0 7 -5 2l-2 -4l-4 -18q1 1 5 7q6 10 6 13zM578 194q1 5 1 9q0 8 -3 -2q0 -2 -1 -4q-2 -10 0 -11zM308 179q0 13 -1 14t-3 -4q-2 -6 -2 -13t3 -9
q2 -1 2 4q1 3 1 8zM66 137q2 10 0 19l-1 -1v-10zM298 103q-10 13 -15 28q-4 13 -5 13t-2 -5q-3 -9 5 -25t16 -20q8 -3 9 -3q1 1 -8 12zM564 120q-1 7 -3 16q-2 8 -2 2q-1 -3 -1 -9q0 -17 3 -17t3 8zM138.5 110q-3.5 21 -5.5 21q-2 -1 -1.5 -8t3 -18t5.5 -17l4 -7
q-2 8 -5.5 29zM343 102q3 3 -1 6.5t-8 -0.5t1 -6t8 0zM611 84q-5 3 -8.5 3t-3.5 -3t8 -3l6 2zM124 25q0 6 -3 6q-4 0 -5 -3t3 -6q3 -2 4 -2t1 5z" />
    <glyph glyph-name="A" unicode="A" horiz-adv-x="679" 
d="M313 688q2 3 11 2t12 -4q3 -4 4 -14q3 -10 18 -43q13 -29 17.5 -43.5t14.5 -60.5q9 -46 25 -87q10 -28 33 -84t29 -66q6 -11 34 -79t38 -96q24 -66 43 -88q8 -11 27 -13q20 -2 36 -2q28 -1 23 -14q-2 -5 -86 -5t-87 -2q-6 -4 -74.5 -1t-91.5 8q-8 1 -10.5 6t2.5 9.5
t29 1.5q20 -3 37 -3.5t17 2.5q0 1 -31 96l-32 94l-66 4q-66 4 -94 0q-28 -3 -31 -5q-1 -2 -27 -88q-26 -87 -28 -91q-3 -6 -3 -8t52.5 -2t56.5 -4q4 -5 2 -9q-2 -5 -84 -7q-100 -2 -101 -2q-12 -1 -15.5 0t-3.5 6q-1 7 6 10t28 5q22 2 29.5 5t11.5 12q4 7 41 129
q34 115 47.5 150t37.5 75q24 39 35.5 68.5t23.5 82.5q5 23 23 86.5t21 68.5zM336 558q-7 30 -8 33l-1 -15q4 -34 11 -57l6 -20v10q-2 16 -8 49zM274 448q-1 14 -9 -6q-1 -1 -1 -4q-6 -15 -29 -55q-24 -39 -34 -61q-6 -14 -20 -52t-14 -42q0 -3 33 -1q30 2 88 -1q49 -3 57 -3
q0 1 -29 90q-28 90 -36 95q-7 5 -6 20v20zM420 368v1v1l-1 1v1l-17 37q0 -3 7 -21.5t14.5 -36t8.5 -16.5q1 2 -12 33zM402 255q2 6 -7 26l-8 15q0 -1 1 -6q7 -31 14 -35zM460 226q-6 15 -9 16l-2 -3q0 -6 4 -18q5 -17 7 -18q1 0 2 3q3 6 -2 20zM403 152q-12 49 -20 60l-6 11
v-11q0 -11 5 -28q2 -9 10 -29.5t15.5 -37.5t8.5 -16t-13 51zM438 133q-11 27 -13 29t-1 -2q2 -8 16 -50t16 -42q1 0 1 3q1 11 -19 62zM499 10q0 1 -10 18l-8 12v-1q1 -7 4 -18q1 -12 7.5 -12t6.5 1zM442 12q0 3 -5 9q-4 5 -4 3q0 -1 1 -3q2 -6 2 -9t3 -3t3 3zM569 20
q-3 3 -6.5 4t-5.5 0t-2 -4q0 -10 14 -7q4 1 4 2t-4 5z" />
    <glyph glyph-name="B" unicode="B" horiz-adv-x="581" 
d="M8 682q3 5 9 5t38 -4q34 -4 128 -2q148 3 198 0t84 -16q46 -17 71.5 -65.5t15.5 -96.5q-8 -38 -39.5 -74t-77.5 -59q-26 -14 -6 -14q11 0 33 -8.5t38 -18.5q45 -30 68 -95t6 -116q-13 -37 -59.5 -72t-98.5 -46q-69 -15 -222 -9q-114 3 -147 4q-27 0 -32.5 1t-5.5 6
q-1 6 6 8t38 4q27 2 27 7q0 12 5 102q4 68 4 95t-4 91q-12 205 -11 286q0 7 1 20q1 35 -2.5 41.5t-24.5 7.5q-7 1 -12 1q-31 3 -31 11q0 3 3 6zM321 662q-11 4 -16 3q-10 -1 -27 -2h-6q-14 0 -16 -5t1 -35q1 -8 1 -13q4 -37 -4 -96q-8 -57 -8 -106v-49l38 1q34 0 53 2
q12 2 15 4.5t11 17.5q20 40 14 133q-8 129 -56 145zM234 652q-1 10 -6 10t-3 -14q2 -16 2 -26q0 -12 6 -16q6 -3 6 2q0 3 -1 14q-2 20 -4 30zM386 651q-2 8 -4.5 9.5t-11.5 1.5q-11 0 -10 -3t7 -3t13 -9q8 -12 8 -6q0 2 -2 10zM127 644v15h-14q-9 0 -11.5 -1t-4.5 -7
q-5 -30 -3.5 -100t7.5 -70q4 0 3 9q-3 11 -5 62t-1 66q2 20 8 24t10 -2t2 -18l-1 -11l5 9q5 8 5 24zM205 649v10h-30h-29v-17v-19l3 12q2 8 4 10t8 1q8 -1 9 -11t4 -10t1 -30q-2 -29 0 -57l3 -27l4 33q5 31 4 56v14q-1 31 -0.5 36t4.5 5h2q8 0 10 -8l2 -5q0 2 1 7zM423 654
q-3 3 -7.5 4.5t-7.5 1.5t-3 -2q0 -5 4 -11t7 -6q5 0 6 -5q3 -5 8 -5t9 -3q5 -5 2 0q-7 20 -18 26zM527 570l-12 27q0 -1 1 -4q0 -3 6 -30q5 -24 8 -27q3 -2 3 3q1 11 -6 31zM396 566q3 8 -2 17q-3 6 -4 7v-6q2 -7 3 -17v-9zM459 557q-5 15 -6 15t-1 -1.5t1 -3.5q2 -6 2 -9
t5 -10q3 -4 2 -1q0 2 -3 10zM142 528q0 17 -2 24q-1 2 -2 -1q0 -4 1 -15l3 -23v15zM423 495q0 9 -3 17l-2 6v-7q0 -9 2 -17l3 -5v6zM402 444q3 8 0 27l-3 18v-27l2 -20zM475 471q2 13 -1.5 13t-3.5 -14q0 -27 5 1zM172 402q4 14 -2 41l-6 27l2 -22q1 -13 2 -40v-19zM110 408
q0 28 -2 42l-2 14v-19q0 -19 2 -42l2 -23v28zM207 406q1 19 0 39q0 9 -1 -1v-19zM405 384q4 11 2 11.5t-6 -9.5q-5 -11 -3 -11q3 0 7 9zM161 312q2 54 2 59q-1 1 -4 -2q-10 -7 -3 -77l4 -37zM371 309l-15 30h-56q-54 0 -54 -1v-5t1 -12t2 -15q10 -107 4 -204q-4 -78 -4 -84
v-9h51q49 0 57 2q7 2 15 28q20 65 23 134q1 50 -3.5 77t-20.5 59zM412 320l-8 8q-7 5 -5 -2q1 -5 7 -17l8 -14v11q0 11 -2 14zM480 292q-5 5 -14 10l-10 5l11 -9q10 -10 10 -14t3 0q4 3 0 8zM460 263q-6 20 -10 20q-6 -1 3 -36q10 -32 19 -40q3 3 -12 56zM536 256
q-9 19 -11.5 20t9.5 -22q11 -23 17.5 -49t6.5 -44.5t-8 -19.5q-18 -2 -27 -37q-2 -8 -7 -27l1 -3q7 3 28 33q6 7 7 12q7 14 8 39q2 24 -6 52q-9 28 -18 46zM517 243q-9 19 -10 19q-2 0 -1 -5.5t5 -14.5t9 -17q6 -11 8 -10q2 0 -11 28zM236 178q0 60 -3 69l-2 -22
q-2 -65 2 -91q1 -8 2 3q0 11 1 41zM420 225q3 6 -1 11t-4 2q-1 -1 -1 -7q0 -10 2 -12q1 -1 3 3q1 1 1 3zM119 213q2 5 -4 6q-4 1 -5 -5q-2 -6 -3 -48q-2 -54 -4 -85l1 -19q2 13 8 85q6 62 7 66zM434 163q-1 26 -3 27l-1 -2v-9v-13q0 -25 3 -27t2 14q0 4 -1 10zM538 157
q2 2 1 9l-1 7l-2 -7q-1 -9 2 -9zM150 37q-4 19 -9 65l-4 40v-26q0 -29 3 -57q4 -23 2.5 -30t-9.5 -7q-6 0 -8 9l-4 11v-4q-1 -8 -5 -17l-5 -9h22h21zM432 106q1 6 0 12q-1 3 -1 -1v-6zM414 52q-2 2 -4 15v13l-3 -14q-5 -28 -8 -36.5t-8 -10.5t-4.5 -2.5t5.5 -0.5t8 3.5
t8 13.5q9 16 6 19zM484 59l1 12q-1 0 -6 -7t-11.5 -7.5t-10.5 4.5q-8 10 -21 -20l-9 -17l8 3q8 1 28 11q13 7 16.5 10t4.5 11zM209 25q-2 7 -6 8q-4 -2 -4 -6q0 -11 3 -14.5t14 -3.5h14v12q0 9 -1 9t-2 -4q-3 -7 -9.5 -7.5t-8.5 6.5z" />
    <glyph glyph-name="C" unicode="C" horiz-adv-x="582" 
d="M310 689q12 8 17 6q6 -2 39 -5q114 -7 150 -78q9 -18 19 -50l11 -32l-2 29q-2 31 0 73l2 43l9 -1l8 -1l2 -89q2 -88 5 -105q4 -16 3 -21q-2 -4 -11 -4.5t-12 3.5q-3 3 -26 74q-19 58 -30 78t-31 34q-25 17 -67 24t-77 0q-7 -1 -18.5 -25.5t-33.5 -57.5q-36 -56 -45 -89
q-15 -59 -10 -180.5t26 -198.5q7 -28 20 -49.5t39 -51.5q23 -25 33 -29.5t41 -1.5q76 9 112 49q16 18 39 68t32 87q4 15 6.5 19t7.5 5q11 1 13 -9q2 -12 -3 -87q-5 -89 -1 -107q3 -20 -2 -23q-14 -11 -18 17q-3 20 -1 67q1 53 -1 53l-2 -3q-35 -75 -47 -91q-12 -15 -22 -24
q-10 -8 -33 -19.5t-39 -15.5t-53 -7t-42 -1q-5 3 -20 5q-25 4 -60 18.5t-62 32.5q-49 32 -85.5 91t-52.5 131q-5 27 -5 67t7 70q20 94 76.5 171t131.5 115q22 11 36 15t27 11zM283 655q0 6 -17 -14q-11 -12 -7 -12q5 2 10 2q3 0 8.5 10t5.5 14zM220 620q8 8 6 8
q-1 0 -15.5 -11t-14.5 -12t4.5 1t10.5 6.5t9 7.5zM176 583q3 4 5 7t3 5l1 2q-1 0 -14 -14t-13 -15q0 -8 15 11q2 2 3 4zM226 557q4 6 6.5 11t3.5 8l2 2q-1 0 -16 -18q-20 -25 -11 -30q3 -2 3 2t12 25zM167 461q3 18 2 19t-6 -15q-8 -29 -9 -48q-1 -14 -5 -30q-4 -15 0 -36
q4 -17 7 -17q2 7 5 57q4 56 6 70zM63 373v12.5v5.5q-1 0 -3 -9.5t-3.5 -22t-2.5 -20.5v-9q0 2 4 16q4 12 5 27zM111 339q4 42 1 38q0 -1 -2 -9l-4 -68v-2q2 4 5 41zM196 258q-3 28 -5 65v1l-1 18q0 -1 -1 -9q-3 -13 -3 -27q0 -12 -6 -19l-7 -6l7 -24q17 -56 20 -54q1 0 0 3
q-1 9 -4 52zM75 252q-5 25 -5 3q0 -11 4 -13q3 -2 1 8v2zM136 221q0 3 -5 21l-4 19v-16q0 -15 4 -21q4 -4 5 -3zM135 141q-9 15 -18 40q-7 18 -8 18q-4 0 10 -40q10 -28 15.5 -39.5t16.5 -26.5q12 -16 13 -10q0 5 -10 22q-11 19 -19 36zM198 128q0 11 -2.5 16t-6.5 3
q-4 -1 -3.5 -3.5t5.5 -10.5q7 -12 7 -7v2zM192 92q-7 11 -8 11q-6 0 7 -18q6 -8 7 -8q2 1 -6 15zM210 23q1 1 -5 6.5t-6 1.5t4.5 -7t6.5 -1zM235 13q-3 5 -4.5 5.5t-6.5 -2.5q-4 -3 6 -6q8 -3 7 -1z" />
    <glyph glyph-name="D" unicode="D" horiz-adv-x="666" 
d="M154 674q1 4 8.5 4t9.5 -3t35 -3q114 0 189 -11q88 -13 164 -64q38 -25 60.5 -56t36.5 -77q6 -19 7 -32.5t2 -53.5q0 -58 -6 -84q-31 -149 -128 -246q-32 -32 -61 -47t-73 -23q-26 -5 -91.5 -4t-118.5 7q-58 7 -114 8q-47 2 -58 3.5t-12 5.5q-3 7 2.5 12.5t24.5 15.5
q25 12 35.5 22.5t15.5 26.5q5 17 6 256q1 198 1 263q0 23 -3 32q-9 21 -45 24q-12 1 -15.5 2.5t-3.5 5.5q0 7 10 11.5t19 1.5q12 -3 57 -1.5t46 4.5zM189 620q0 21 -1 25.5t-5 4.5q-5 0 -5 -4t7 -44q4 -25 6 -27v6q-2 8 -2 39zM296 645q-1 4 -9.5 5t-11.5 -3q-2 -3 -14 -3
t-15 -5q-8 -9 4 -256q6 -98 2 -150q-10 -136 -3 -175q3 -21 13 -42l10 -21l21 -1q19 -1 45 8t43 22q44 34 73 107t35 166q7 111 -20 189q-18 51 -45 90.5t-55 54.5q-16 8 -44 8q-18 0 -23 1t-6 5zM130 545q0 19 -4 33q-6 19 -4 -2q1 -8 3 -23l4 -26zM592 545q-16 19 -17 14
q-1 -2 5 -9q33 -39 38 -47l1 1q-1 3 -4 8q-10 17 -23 33zM636 417v17q-2 -1 -8 -2q-7 -1 -7 -5t6 -8t4.5 -9.5t1.5 -7.5q2 -1 2 3q1 4 1 12zM514 369q-2 30 -3 33l-1 -8v-20.5v-28.5q0 -57 1 -57q3 0 4 28.5t-1 52.5zM634 319q3 24 2 43l-1 21l-5 -13q-4 -12 -1 -43l3 -32z
M611 270q4 5 3 8q-2 5 -5 0q-1 -3 -1 -7q0 -5 0.5 -5t2.5 4zM195 195q1 24 0 47q-1 12 -1 -1v-24zM150 204q1 12 -3 17t-4 -3v-13q0 -17 2 -17.5t5 16.5zM229 190q1 7 0 12q-1 3 -1 0q-1 -2 0 -7zM472 108q4 14 4 15l-10 -17q-6 -15 -3 -15q4 4 9 17zM236 13q4 1 -4 10
l-8 10v-9q0 -6 3.5 -9.5t8.5 -1.5zM436 9q0 3 -2.5 4t-6 0t-6.5 -4q-4 -5 -3.5 -5.5t6.5 0.5q7 2 10 2q2 0 2 3zM392 -1.5q1 0.5 0 3.5t-11 -3l-9 -6l9 3q10 2 11 2.5z" />
    <glyph glyph-name="E" unicode="E" horiz-adv-x="547" 
d="M396 686q22 1 69 0q21 0 29 -0.5t18 -5.5t12.5 -8.5t6 -20t4 -29.5t1.5 -47q3 -73 1 -76q-1 -2 -9 -2q-5 0 -6.5 2.5t-2.5 12.5q-4 30 -26.5 72t-47.5 67l-15 15h-23q-26 0 -90 -5.5t-67 -7.5q-4 -4 -4 -43t4 -72q5 -38 7 -105q1 -46 2.5 -55t6.5 -10q5 -2 73 -4l66 -2
v10q0 10 6 11q5 2 5.5 7.5t-0.5 34.5q-4 48 -3.5 64t6.5 17q5 1 8 -2t8 -64t3 -73q-2 -13 -6 -16t-4 -73v-70l-7 -1q-8 -1 -10 3q-3 4 -3 68q0 63 -1 64t-75 3l-74 2v-32q0 -38 -3 -106q-2 -41 -5 -138l-2 -65h18q17 0 93.5 7.5t86.5 6.5l11 -2l24 42q22 39 28 55t7 38
q1 24 7 31q7 7 14 6q5 -1 6 -8.5t2 -47.5q1 -29 2 -92q0 -26 -1 -32t-7 -10q-7 -5 -29.5 -7.5t-31.5 1.5q-7 3 -9 0q-2 -4 -8.5 -3.5t-7.5 4.5q-3 8 -95 -1q-65 -7 -119 -7q-44 0 -136 3.5t-97 5.5q-5 1 -4 8q1 5 6.5 6t32.5 2l38 1l4 39q3 37 3 109q0 69 3 114
q10 153 2 247q-6 64 -11 93l-5 33l-20 4q-18 2 -28 7.5t-9 11.5q2 9 38 1q41 -8 230 6q80 6 110 8zM471 665q-9 7 -9 3t8 -13q11 -14 12 -14t-1 5t-5 11t-5 8zM226 631q1 9 1 15.5t-1 6.5q-2 0 -4 -13.5t-1 -22.5q1 -6 2 1q1 5 3 13zM107 644q3 4 2 5t-6.5 1t-6.5 -1.5
t0 -7.5q2 -7 6 -35q4 -27 10 -31q5 -3 5 2q0 4 -1 20q-2 26 -7 34q-5 7 -2 13zM181 645q-2 5 -25 5h-23v-12l1 -8q1 0 2 6q2 9 10 9q5 0 6.5 -3t3.5 -17q4 -21 6 -24q2 -4 1 -16q-2 -11 2 1l2 6q6 19 11 21q4 2 5 13.5t-2 18.5zM226 562q1 7 0 14q-1 -4 -1 -7zM237 417
q-2 70 -6 101l-4 30v-25q0 -19 5 -81q5 -60 5 -76v51zM192 500q-9 42 -11 42q-1 0 -2 -3q-3 -6 2 -28q5 -20 11 -61l6 -39v31q0 33 -6 58zM138 451q1 8 0 16q-1 -6 -1 -9zM116.5 389q2.5 3 0.5 34l-1 32l-1 -34q-1 -35 1.5 -32zM133 297q0 3 -1 8l-10 42q-1 -1 -1 -19v-4
q-1 -31 12 -92q12 -61 14 -94q2 -32 6 -40q3 -6 4 -6t5 4q3 4 2 12.5t-8 43.5q-10 52 -13 82q-4 36 -10 63zM182 248q1 8 0 17l-1 -1v-8zM107 134q1 13 0 25q0 5 -1 0v-14zM232 132q1 12 0 24q0 5 -1 0v-12zM131 53q-2 19 -6.5 19t-4.5 -31v-32h15q14 0 14 2q0 4 -4.5 12.5
t-6.5 8.5q-5 2 -7 21zM189 64.5q0 4.5 -3 4.5q-5 0 2 -21q1 -3 3 -7q8 -23 8 -29t10 -6l7 1q0 1 -2 2q-5 3 -9 23q-4 18 -10 24q-6 4 -6 8.5zM172 29q-6 22 -10 23q-4 2 -3.5 0t4.5 -17q5 -17 3 -21q-1 -3 4.5 -6t7.5 -1q1 0 -6 22zM530 34q0 19 -1 19t-9.5 -19.5
t-7.5 -20.5q3 -1 10 1q5 1 6.5 4t1.5 16zM490 24q2 8 1 11q0 2 -3 -3q-3 -4 -8 -14q0 -2 3 -2t7 8z" />
    <glyph glyph-name="F" unicode="F" 
d="M430 682q10 2 59 1q41 0 53.5 -3.5t16.5 -15.5q2 -10 -1.5 -86t-6.5 -80q-3 -5 -9.5 -4t-8.5 18q-5 47 -42 99q-12 17 -30 34t-24 17q-5 0 -59 -6q-55 -6 -92 -8l-40 -2l-2 -119q-1 -110 -4 -151q-1 -23 -0.5 -27.5t6.5 -6.5q8 -2 91 -4l84 -1l-1 48q-2 47 -8 67
q-10 36 2 38q6 1 10.5 -8.5t10.5 -36.5q5 -27 4 -96.5t-8 -138.5q-3 -27 -15 -16q-5 3 -4.5 21t4.5 78l2 26l-67 -1q-71 0 -90 2l-24 2l-2 -30q-6 -96 1 -174q2 -17 8.5 -55.5t8.5 -42.5q1 -1 33 -4q25 -3 33.5 -6.5t5.5 -10.5q-3 -8 -55 -2q-59 7 -92.5 7.5t-87.5 -4.5
q-59 -6 -74.5 -5.5t-16.5 6.5q-1 8 6 10.5t35 4.5q32 2 45 4l9 2l-1 133q-1 133 4 213q11 181 -7 257q-5 23 -9.5 26.5t-25.5 1.5q-57 -5 -51 14q2 5 53.5 6.5t91.5 -1.5q42 -4 101 -4q61 0 180 14zM529 662q-12 0 -35 3l-24 2l17 -19q18 -18 33 -44l15 -26l2 20q2 20 2 41
v23h-10zM150 642q0 7 -2 8.5t-10 1.5q-10 1 -10 0q-1 0 2 -3q6 -4 10 -41l4 -37l5 13q6 14 3 31q-2 16 -2 27zM188 626v24h-8h-9l5 -11q4 -12 4 -18q0 -7 4 -13q3 -5 4 3v15zM225 545q0 102 -3 102q-9 0 -5 -81q3 -60 3 -91q0 -35 3 -33q2 2 2 103zM131 496q-2 28 -5 37
q-1 4 -1 -1q-1 -25 5 -52q2 -9 2 1q0 5 -1 15zM174 491q-3 1 -9 26l-6 25l-2 -20q-2 -24 -1.5 -30.5t6.5 -8.5q7 -3 7 -13q-1 -11 4 -59t7 -53t2 1q1 3 1 8q0 25 -3.5 73.5t-5.5 50.5zM130 383q0 5 -3 5t-3 -7t-2 -15.5t3 2.5q5 10 5 15zM215 280q2 50 1 50l-1 -2
q-1 -4 -3 -10q-3 -14 -1 -51l2 -37zM192 267q0 10 -1 11t-3 -3q0 -1 -1 -2q-2 -5 2 -11q3 -2 3 5zM139 261q0 11 -3 11t-3 -11t3 -11t3 11zM138 212q1 7 0 14q-1 -4 -1 -7zM138 178q1 10 0 18l-1 -1v-9zM177 153q-1 23 -3 31t-7 7q-12 -2 0 -43q4 -16 7 -17q4 -1 3 22z
M216 125l-3 33q-3 0 -6 -1q-9 -2 4 -45l6 -20zM125 29q-3 4 -6 33l-4 30v-33q-1 -24 0 -29t6 -5q3 0 4 1t0 3zM170 55q-3 22 -4 22q-1 1 -6 -5q-5 -5 -5 -26v-21h19q18 0 18 4.5t-6 1.5q-6 -5 -9 0t-7 24zM230 31q-2 7 -3 7q0 -4 -5 -4t-5 -6t8 -6q4 0 5 1.5t0 7.5z" />
    <glyph glyph-name="G" unicode="G" horiz-adv-x="660" 
d="M312 695q6 4 47 3t58 -6q88 -22 126 -116l7 -18l-1 60l-1 60h9l9 -1l2 -43q2 -34 4 -113q2 -51 1.5 -61t-4.5 -10q-8 0 -11.5 5.5t-7.5 24.5q-6 29 -19 66t-23 54q-49 82 -154 77l-34 -1l-13 -12q-41 -41 -67 -148t-26 -241q0 -88 10.5 -135.5t42.5 -102.5l18 -30l20 -5
q67 -15 106 -14q17 1 20.5 2t5.5 8q2 12 6 45q6 63 -7 129l-4 18l-35 2q-23 2 -29 3.5t-7 5.5q-1 9 7 11t34 0q38 -4 98.5 -2t70.5 7q12 5 48 5t39 -6q4 -8 -1.5 -11t-24.5 -4q-55 -1 -55 -10q0 -5 6 -47q12 -81 2 -100q-10 -18 -60 -41q-50 -22 -56 -25q-16 -8 -24 -9
t-34 -1q-58 0 -128 18q-17 4 -22 0q-11 -10 -17 5q-3 6 -28 17q-137 60 -177 240q-7 32 -8.5 78.5t4.5 76.5q17 106 90 179q74 75 155 101q27 10 32 12zM273 655q0 3 -1 4q-11 -1 -11 -10q0 -7 -5 -14t-3 -9q0 -1 4.5 4.5t9 13t6.5 11.5zM224 630.5q0 3.5 -1 3.5t-7 -3
q-5 -4 -2 -9t6 0q4 5 4 8.5zM177 579l8 15q-1 0 -10 -11.5t-12 -15.5q-1 -4 2.5 -4t11.5 16zM129 546q2 4 0 4q-4 0 -15 -12q-18 -21 -18 -34q0 -3 10.5 2t15.5 21q5 14 7 19zM153 517l7 24q-1 0 -7 -9q-20 -31 -29 -120.5t3 -151.5q6 -33 9 -37q3 -2 3 9q1 15 -3 41
q-10 80 -6.5 127t23.5 117zM78 374q-2 14 -8 14q-4 0 -5 -3.5t-1 -14.5q2 -42 9 -69q1 11 5 11q3 0 3 20t-3 42zM193 288q2 61 1 61l-4 -8q-2 -6 -2.5 -57.5t2.5 -54.5q1 0 1.5 7.5t1 22t0.5 29.5zM95 186q0 9 -6 25l-5 16l1 -18q2 -16 6 -25l4 -7v9zM195 201q0 18 -3 19
q-3 2 -2 -8q0 -6 2 -17q2 -8 2.5 -8.5t0.5 14.5zM554 180q4 9 3.5 10.5t-7.5 0.5q-8 -1 -7 -8q2 -20 5 -20q0 6 6 17zM524 175q0 11 -1.5 13.5t-7.5 1.5q-10 0 -18 -2l-9 -2l13 -8q13 -7 13 -13t5 -6t5 16zM187 94q-8 12 -11 12t7 -12.5t11 -12.5t-7 13zM224 75q0 2 -5 13
l-4 7v-1q1 -9 9 -19zM178 68q-20 25 -21 19q-1 -2 6 -10q8 -11 6 -14q-1 -1 3 -5t11 -9t16 -10l3 -1l-3 5q-7 9 -21 25zM537 42q-1 12 -4 30l-3 17v-16q0 -10 -1.5 -13.5t-7.5 -7.5q-9 -5 -13 -18t-2 -14q1 -1 16 4q11 5 13 7.5t2 10.5zM564 49q0 3 -4 5q-5 2 -4 -3
q0 -4 3 -4.5t5 2.5z" />
    <glyph glyph-name="H" unicode="H" horiz-adv-x="724" 
d="M85 676q2 2 9.5 2t7.5 -2.5t58 -5.5q50 -2 67 -3q1 0 9 -0.5t19.5 -1t21.5 -1.5q18 -1 27 -2t15 -2.5t6.5 -4.5t-0.5 -7q-2 -3 -9 -4t-35 0q-36 1 -39 -2.5t2 -39.5q5 -31 7 -134l2 -101l66 1q114 2 138 10l9 4l2 38q2 39 -1 97q-4 58 -2 95l2 35h-11q-11 0 -34 5
q-15 4 -18.5 6.5t-4.5 8.5q0 6 1.5 7t11.5 0q8 -1 46 -6q35 -6 97 -5.5t66 7.5q3 5 9 5t8 -4q2 -5 43 -4h41l1 -8q1 -9 -3 -9l-45 -3l-40 -2l-3 -104q-1 -97 -5 -186q-8 -206 5 -326l1 -16l38 -1l39 -1v-8v-8l-80 -1q-83 -1 -130 4q-57 6 -76 6q-20 1 -23.5 2t-4.5 7l-1 8
h38q37 0 40 2q1 1 -3 34q-4 32 -4 167q-1 134 -5 134q-15 -6 -131 -10q-78 -2 -80 -5q-2 -2 -5 -105q-5 -136 -5 -140q-1 -38 3 -57l4 -21l34 -3q34 -4 37 -7t1 -10q-2 -5 -5 -5.5t-18 0.5q-75 8 -150.5 7t-116.5 -10q-22 -5 -26 -1q-13 13 19 20q12 3 30 5l27 4l2 142
q1 142 7 213q4 50 4 68.5t-4 61.5q-6 68 -8 103q-2 42 -4 44q-1 1 -30 -3q-25 -2 -32 -0.5t-5 8.5q1 6 10 9t37 5q27 2 29 5zM109 648q-4 10 -8 4q-2 -3 -2 -10q0 -11 6 -11q11 0 4 17zM184 640l1 10h-18q-18 0 -18 -4.5t6 -1.5q16 8 23 -6l4 -8zM220 628q0 8 -3 14
q-2 -1 -2 -8q-1 -15 2.5 -15t2.5 9zM497 638q2 6 -3 6t-6 -7q-7 -32 -2 -31q2 1 5 14q4 14 6 18zM561 589q0 43 -1.5 49t-11.5 4q-4 -1 -4.5 -4.5t0.5 -16.5q3 -20 6 -23q2 -4 1 -30q-2 -18 -1 -22.5t5 -7.5q5 -3 5 5q1 7 1 46zM589 617q1 27 -2 27q-7 0 -7 -36q0 -21 3 -22
q4 -2 6 31zM562 455q3 36 0 53l-2 9q-2 -1 -4 -27q-10 -81 -6 -89q1 -1 1 2q3 10 6 12q4 2 5 40zM144 447q-1 35 -6 51l-5 16l2 -19l6 -51l4 -33zM190 460q1 19 -3 31l-3 14v-14q0 -15 2 -32l2 -17zM610 423q2 71 -1.5 71t-3.5 -20q0 -19 -4 -47q-3 -28 -1 -68q4 -57 7 5
q1 22 3 59zM233 418q0 10 -3.5 10t-2.5 -16q1 -13 3 -10q3 6 3 16zM146 387q3 10 2 14l-2 -2q-1 -5 -5 -7q-4 -3 -2 -17l3 -8v2q0 7 4 18zM188 342q-2 24 -3.5 30t-5.5 7q-5 1 -5 -5q0 -4 1 -16q2 -29 2 -42q1 -26 5 -64q4 -49 4 -76q0 -32 4 -32q3 0 1.5 48.5t-5.5 75.5
q-3 20 1 29q3 9 1 45zM490 359q3 13 0 17q-3 2 -3 -3q-1 -3 -1 -11l1 -17zM130 296q0 7 -3 23l-2 8q-1 -1 -1 -17q0 -22 3 -22t3 8zM563 278q1 18 0 36q-1 -6 -1 -19zM502 325q0 2 -8 2q-7 0 -8 -3.5t5 -5.5q4 -2 7.5 0.5t3.5 6.5zM497 191q2 71 1 87l-1 17l-2 -14
q-3 -17 -4.5 -72t0.5 -70q3 -14 4 3q1 12 2 49zM526 265q1 10 0 20q-1 -4 -1 -10zM226 204q1 31 0 59l-2 23q-1 0 -3 -5q-4 -10 0 -59l4 -49zM592 278q0 6 -3 8q-2 1 -2 -2q-1 -2 -1 -4q0 -8 3 -8t3 6zM104 254q1 8 0 17l-1 -1v-8zM139 218q0 19 -1 24.5t-5 7.5t-5 1.5
t1 -6.5q1 -8 5 -33l5 -23v29zM534 195q-2 49 -5 51q-1 1 -2 -5q-1 -10 3 -60q2 -31 1.5 -37t-5.5 -11q-4 -3 -5 -8t0 -21q3 -25 9 -49q6 -25 5 -29q-2 -4 -10 -4q-5 0 -7 3t-6 15q-3 12 -5 15t-6 2q-11 -3 -7 -24l2 -14l21 -2q17 -1 30 -4q7 -1 7 0t-1 3q-4 4 -10.5 68
t-8.5 111zM585 152q1 24 -2 48l-2 20v-28q-1 -24 2 -48l2 -21v29zM140 162q-2 10 -4 9q-3 0 -3 -13q0 -12 2 -12q1 0 3 2q4 5 2 14zM163 149q1 7 0 14q-1 -3 -1 -7zM562 126q-1 27 -5 27q-3 0 -1 -5q2 -9 4 -34q2 -28 5 -34q2 -5 2 0q-1 2 -1 6q-2 18 -4 40zM220 123
q0 11 -2 11t-1 -11t2 -11t1 11zM192 78q4 2 3 17q-1 12 -3 12q-1 0 -4 -2q-5 -5 -3 -17q2 -7 3 -9.5t4 -0.5zM611 34q-2 31 -7 29q-3 -4 -8 -3q-4 1 -4.5 -1.5t0.5 -11.5q1 -16 -4 -16q-4 0 -6 -9q-1 -7 1 -8.5t13 -1.5h15v22zM172 40l-4 18l-1 -6q-1 -7 -8 -8t-7 -12
q0 -7 1.5 -8.5t9.5 -1.5h11zM124 26.5q0 4.5 -3 4.5t-5 -4q-1 -5 3 -5q5 0 5 4.5z" />
    <glyph glyph-name="I" unicode="I" horiz-adv-x="340" 
d="M53 681q29 4 190 -2q24 -1 36 -2t20 -2.5t7.5 -4.5t-1.5 -8q-3 -4 -7.5 -5t-22.5 0l-26 1l-3 -13q-9 -28 -4 -113q4 -62 -1 -142q-4 -59 -4.5 -84t3.5 -94q6 -89 6 -145q0 -49 1 -57q2 -4 8 -5.5t36 -2.5q48 -1 48 -9q0 -2 -2 -5q-3 -5 -48 -6q-49 0 -169 3
q-115 3 -121 9q-1 3 1 7q1 5 48 5h47v87q0 84 5 138q5 51 0 120q-1 17 -2 37t-2 36.5t-2 20.5q-1 24 -8 69q-7 43 -6 96l1 52h-9q-10 0 -37 -4q-23 -5 -30 -4t-6 9q1 11 54 18zM133 639v23l-11 1q-14 2 -17 -3.5t-2 -30.5q3 -48 6 -38q1 4 2 15q1 17 2.5 20.5t7.5 4.5
q8 1 10 -7zM192 656q0 6 -11 6t-12 -6q-8 -41 -10 -75q-2 -33 2 -63q9 -71 11 36v14q1 75 3 79q2 3 10 3q7 0 7 6zM195 585q1 12 0 22q-1 5 -1 0q-1 -4 -1 -12l1 -12zM135 556q1 10 0 18l-1 -1v-9zM138 521q1 7 0 14q-1 -3 -1 -7zM121 481q-1 19 -4 19t-3 -22.5t3 -26.5
q3 -5 4 3.5t0 26.5zM191 454q1 37 0 37q-3 0 -3.5 -39.5t1 -84.5t3.5 -59q2 -8 1 29v19q-2 50 -2 98zM224 445q1 30 -4 30q-4 0 -3 -41q1 -32 3 -32q2 -1 4 43zM152 431q2 10 -2 10t-4.5 -5.5t2.5 -10.5q3 -3 4 3v3zM170 324q0 29 -2 43q-2 8 -3 -2q-3 -41 3 -94l5 -28
q1 4 7 4q5 0 8.5 9.5t3.5 22.5l-2 9q-1 -4 -8.5 -3.5t-9.5 4.5q-1 5 -2 35zM145 282q-1 40 -5 44q-2 1 -2 -3q-1 -6 0 -31q2 -39 5 -43l2 16v17zM158 162q0 25 -3 27t-2 -14q0 -4 1 -10q1 -26 3 -27l1 3v8.5v12.5zM190 45q-4 4 -6 32l-3 28l-1 -37q0 -36 4.5 -37.5t6.5 4.5
t-1 10zM143 91q-2 8 -11 7q-2 0 -2 -2q0 -4 7 -7q5 -2 6 -2t0 4zM159 9q-3 2 -8 32l-5 29v-32v-32h8q6 1 5 3zM226 39q1 26 -4 28q-3 1 -4 -5q-2 -10 4 -32l4 -16v25zM208 6q0 7 -5 8q-2 0 -3 -1q-2 -4 -11 -4t-9 -3t14 -3t14 3z" />
    <glyph glyph-name="J" unicode="J" horiz-adv-x="426" 
d="M87 669q4 3 170 3t168 -3q2 -4 0 -10q-1 -4 -8 -5t-39 -1t-38.5 -1t-8.5 -6q-2 -8 -3 -268q0 -227 -4 -280t-22 -100q-16 -43 -50 -77.5t-67 -42.5q-16 -4 -26 -10q-9 -5 -31 -8q-49 -4 -87.5 24t-38.5 67q0 24 15 47q5 9 9.5 12t16.5 5q17 4 26 8q18 9 45 -20
q26 -26 25 -48t-29 -52q-8 -7 -12 -13t-3 -7q3 -3 20.5 -2t18.5 5q2 4 14 6q10 1 14.5 8t10.5 28q7 22 11 66.5t1 53.5q-3 4 1 19q5 25 -10 206q-6 86 -5 231l2 146l-44 1q-33 0 -39 1t-6 7q-2 8 3 10zM310 632l1 21h-35h-35l-1 -16q0 -17 -2 -39q-2 -19 -1 -19t3 2q5 4 9 3
q3 -1 4.5 5.5t2.5 24.5q3 23 4.5 27t6.5 4t7 -2t3 -10l2 -8q0 1 1 4q0 9 3 9q2 0 4 6q1 5 7.5 6t9.5 -4q3 -3 5 -19l1 -10v15zM224 649q0 1 -15 1h-15l-1 -45q-1 -64 -3 -85q-1 -35 1 -36l3 5q5 9 3 44q-2 36 0 68.5t7 34.5t9 -1.5t7 4.5q4 9 4 10zM276 573q1 8 0 15
q-1 -5 -1 -8zM259 445q1 55 -5 74q-2 -7 -2 -35t3 -48l1 -19zM308 379q0 39 -3 41q-1 1 -1 -18t1 -39.5t2 -21.5l1 5v13v20zM282 384q1 6 0 14q-1 -4 -1 -7zM308 262q0 13 -1 13q-6 0 -7.5 -11t4.5 -13q2 -1 3 2t1 9zM305 101q4 35 2 72l-1 23q-1 -5 -3 -52q-1 -3 -1 -5
q-4 -71 -2 -72l1 3q1 5 2 13t2 18zM233 166.5q0 6.5 -3 11.5q-3 0 -3 -4q0 -8 -4 -9q-3 -1 3 -3q7 -2 7 4.5zM215 151.5q1 10.5 -1.5 10.5t-2.5 -10.5t1.5 -10.5t2.5 10.5zM274 149q0 10 -5 10t-5 -13q0 -16 -1 -43l-2 -30l6 16q7 16 10 17q8 5 0 23q-3 9 -3 20zM232 99
q1 7 0 14q-1 -3 -1 -7zM214 34q0 21 -3 43l-2 14q0 -2 -1 -27q0 -32 -2 -56l-1 -22l5 14q4 14 4 34zM274 -5q-3 3 -4 13q-1 6 -3 -4q-1 -5 -3 -14l-4 -28q1 0 9 15q8 14 5 18zM233 -43q0 2 -2.5 2t-8.5 -17q-5 -17 -7 -23q-1 -3 -0.5 -3.5t3.5 2.5q6 5 6 13q0 9 4 16t5 10z
M86.5 -92.5q16.5 16.5 14.5 20.5q-2 5 -2 0t-11 -15t-16 -10q-6 0 -9 -6q-1 -3 2 -4q5 -2 21.5 14.5z" />
    <glyph glyph-name="K" unicode="K" horiz-adv-x="719" 
d="M544 672q84 7 87 -1q1 -4 0 -7t-6 -5t-13.5 -3t-23.5 -2l-38 -2l-12 -11q-13 -12 -49 -55q-40 -48 -92 -101l-55 -56l2 -22q1 -20 5.5 -28.5t15.5 -8.5q7 0 9 -2.5t6 -15.5q5 -13 12 -22.5t31 -34.5q35 -35 55 -60.5t49 -71.5q85 -132 116 -147q13 -7 43 -7q28 0 31 -5
q4 -8 -5 -10q-13 -3 -156 -3h-161l1 8q1 7 4.5 8t23.5 2l27 1l-23 37q-39 64 -131 187q-48 62 -53 62q-4 -17 -9 -226l-2 -63l41 -1q41 -1 44.5 -6.5t-1.5 -10.5q-6 -4 -65 -2q-59 1 -66 -4q-6 -4 -8.5 -3.5t-6.5 5.5q-5 5 -14 5.5t-57 -1.5q-67 -2 -82 -4q-26 -4 -26 7
q0 6 9 9t37 6l37 4l-3 83q-2 108 11 183q9 52 11.5 75t0.5 55q-6 112 -19 180q-6 35 -6 46v14l-14 1q-22 3 -28 6t-6 9q0 5 3 6q7 1 89 -2q53 -2 132 1q73 3 77 1q4 -1 3 -9l-1 -8l-39 -1l-40 -1l3 -15q6 -33 6.5 -110t-5.5 -140q-1 -9 -1 -15.5v-7.5q2 0 11 14q10 15 53 57
q44 44 61 72q18 31 31.5 48t42.5 49q35 37 38 43q3 4 -4 4q-6 1 -33 1q-43 0 -43 7q0 2 3 6q2 4 11 5t44 1q57 1 80 3zM214 644q0 3 -16 3h-16l2 -15q4 -29 7 -68q5 -53 6 -56l1 8v23v34l-1 69h9q8 0 8 2zM127 608q-1 4 -8 20l-8 17v-15q0 -17 2 -23t8 -5q6 2 6 6zM164 642
q0 2 -6.5 2t-4.5 -7q2 -8 2 -10q0 -3 4 4q5 7 5 11zM446 566l17 21q-2 -1 -15 -14q-27 -29 -24 -29q2 0 22 22zM179 473q1 8 0 15q-1 -5 -1 -8zM233 425q0 19 -1 19q-2 0 -5 -15t-2 -18q5 -12 7 2q1 5 1 12zM205 398q0 15 -3 29q-2 9 -3 -1v-20q1 -27 3 -28q3 6 3 20z
M324 395.5q0 10.5 -1 10.5t-12 -10q-7 -8 -7.5 -10.5t2.5 -10.5q5 -9 6.5 -9t-0.5 7.5t5 9.5t7 12.5zM297 347q-8 17 -10 18t-11 -11q-9 -11 -5.5 -14.5t3.5 0.5t10 4q7 0 10 -3t9.5 -18t20 -36t26 -35.5t15.5 -12.5q2 2 -18 28q-38 49 -50 80zM171 329q3 16 -1 19
q-2 3 -2 -7v-8v-19zM381 296q-13 27 -26 42l-14 14l11 -19q9 -17 24.5 -40.5t17.5 -23.5q1 0 -3 7.5t-10 19.5zM223 275q4 70 3 71q-4 3 -7 -13q-9 -54 -2 -111q1 -10 2 3q2 13 4 50zM143 221q2 10 2 58q-1 43 -3 40q-2 -8 -2 -58q0 -42 2 -42zM120 224q1 13 0 25q-1 6 -1 0
q-1 -4 -1 -13l1 -14zM434 160q1 4 -20 27q-22 23 -22 21q0 -5 10 -18t20 -23t12 -7zM397 146q-14 23 -16 23q-8 -2 5 -20q40 -57 72 -111l17 -29h15q12 2 12 4q-3 5 -12 4q-6 -1 -9.5 2.5t-14.5 22.5q-14 27 -34 54q-24 33 -35 50zM216 116q2 5 0 26l-1 10q-1 -13 -3.5 -16
t-0.5 -14q3 -6 5 -6zM490 138q-9 9 -10 3q0 -3 11 -13q9 -8 9.5 -7.5t-1.5 4.5q-5 8 -9 13zM166 92q-2 13 -4 15q-2 1 -3 -7q-1 -5 -2 -13q-1 -17 3 -47.5t8 -30.5q3 0 3.5 10.5t-1 29t-4.5 43.5zM548 83q-18 16 -18 12q1 -4 20 -20q14 -14 14 -11q0 1 -2 3q-6 9 -14 16z
M197 79q-3 15 -6 15q-1 -3 -1 -17t2 -31t4 -19q1 -2 2 5q2 20 -1 47zM134 46q1 21 -5 24q-2 -2 -2 -15t3 -17q2 -4 4 8zM603 22q-14 14 -13 10l6 -12q4 -11 12 -11q5 0 5 2q0 1 -10 11zM531.5 15.5q-5.5 6.5 -6.5 6.5t1 -6.5t6 -6.5q5 0 -0.5 6.5zM564 10q5 1 5 1.5t-4 3.5
q-7 4 -9 0q-2 -3 0 -4.5t8 -0.5z" />
    <glyph glyph-name="L" unicode="L" 
d="M25 670q3 2 7 0q6 -1 45 -5q42 -4 144 0t105 2q4 -2 4 -9q0 -5 -3 -6.5t-13 -2.5q-18 -2 -41 -2t-23 -3v-4q3 -7 1 -51q-4 -213 9 -287q11 -65 3 -70q-4 -2 -6 -76t-6 -108q-4 -36 -2 -37.5t106 -3.5h19q77 -2 92 2.5t27 33.5q1 5 3 7q8 21 11.5 26t8.5 5q14 0 8 -16
q-2 -7 -2 -8l4 4q1 3 3 6q4 11 4 56q0 32 1 39.5t5 9.5q8 4 13.5 -0.5t6.5 -14.5q2 -11 -1 -43q-2 -21 -6 -69q-2 -31 -6 -42.5t-15 -13.5q-6 -2 -190 -0.5t-230 3.5q-76 3 -97 7q-7 1 -10 6t1 9q5 6 71 0l16 -2v45q0 87 -14 314q-7 119 -6 172q3 49 0 76l-2 27l-22 2
q-21 2 -25 4q-3 2 -2.5 9.5t4.5 8.5zM164 638q0 6 -11 6q-8 0 -9.5 -1.5t-0.5 -10.5l8 -77q5 69 10 75q3 2 3 8zM202 608l1 36h-10h-11l3 -27q2 -28 4.5 -31.5t0.5 -9.5q-1 -4 0 -5t5 0t5.5 7t1.5 30zM115 543q2 16 0 52l-3 38v-52q0 -51 3 -38zM128 409q-2 80 -3 81
q-1 2 -1 -31t1 -69.5t2 -44.5l1 25v39zM183 478q0 13 -3 13t-3 -9t3 -13q2 4 3 9zM220 421q-5 40 -7 60l-1 -57q-1 -67 3 -69q2 0 4 2t4 6q3 8 -3 58zM155 415q0 54 -1 54q-5 0 -5 -42q0 -36 2 -52q2 -9 3 7q0 10 1 33zM237 154q4 132 -3 159q-1 3 -1 0q-1 -1 -1 -4
q-2 -18 -2 -121t3 -105l1 9q1 9 2 25.5t1 36.5zM150 243q4 2 2 10q-2 7 -4 3q-1 -2 -3 -8q-5 -15 -2 -147q1 -63 4 -63q8 0 9.5 7t0.5 34q-2 32 -7 66q-4 31 -4.5 63t4.5 35zM174 202q0 14 -3.5 14t-1.5 -23q3 -32 5 -48l2 -15q0 3 -1 24q-1 38 -1 48zM203 32q-3 4 -4 40v1
l-3 28q0 -1 -2 -10q-3 -18 -3 -49l-1 -33h18q14 0 18 3t4 13q0 5 -12 4q-12 -2 -15 3zM113 49q1 7 0 13q-1 2 -1 -1v-6zM531 24q2 9 1 9.5t-6 -5t-3 -14.5q4 -12 7 6q1 2 1 4zM172 11q0 3 -1 7q-2 4 -3.5 4.5t-9.5 -3.5q-10 -4 -27 -3q-17 2 -17 -1l10 -1q10 -2 24 -2.5
t24 -0.5z" />
    <glyph glyph-name="M" unicode="M" horiz-adv-x="782" 
d="M144 675q76 4 101 -3q14 -5 26 -34.5t31 -106.5q16 -66 36 -126q27 -86 34 -125l4 -22l11 37q13 40 34 89q22 51 30.5 76t19.5 74q17 76 28.5 105.5t23.5 29.5h15t41 0.5t51 0.5q101 1 116 5t21 1q4 -3 5.5 -10t-1.5 -10t-31 -9t-39.5 -12t-18.5 -17q-9 -16 -12.5 -38.5
t-3.5 -74.5q-2 -58 -6 -157q-10 -188 -5 -248q3 -40 7 -56.5t12 -20.5q7 -4 55 -4q32 0 40.5 -1t10.5 -5q7 -14 -10 -18q-10 -2 -144 1q-149 2 -171 2h-36v10q0 7 2.5 8.5t19.5 2.5q21 1 38 10q14 8 19.5 15t9.5 20q3 13 3.5 110.5t-3.5 127.5q-12 111 -2 273l2 23l-10 -39
q-26 -107 -57 -181q-17 -40 -36 -96t-19 -67q0 -4 -4 -9q-5 -3 -8 -21q-4 -18 -7 -24q-8 -18 -32 -106q-5 -16 -8 -36q-1 -13 -2.5 -15t-9.5 -2h-11l-6 23q-9 39 -15 66q-18 78 -51 147q-34 71 -38 106q-2 22 -9 53.5t-13 44.5q-14 33 -25 55q-18 38 -41 115l-7 21v-61
q0 -63 4 -124q5 -65 8 -142q11 -264 11 -287v-10l50 1l50 1v-8v-8l-47 -3q-48 -5 -106 -5q-40 -1 -51.5 0t-20.5 5q-10 5 -12.5 11t3.5 9q5 2 42.5 0.5t52.5 -4.5h1q14 -3 16 7t-1 70v4q-4 99 -7 178q-3 108 -8 165q-4 55 -5 127t2 83l2 8l-23 -2q-53 -6 -54 3q-2 6 1 8.5
t48.5 7.5t88.5 8zM130 618q-9 21 -9.5 19.5t5.5 -23.5q7 -21 10 -21q1 7 -6 25zM264 598q-7 24 -11 25q-3 1 -2 -2q1 -2 3 -5q4 -7 9 -26q5 -18 7 -17q1 1 -6 25zM567 602q-2 11 -7 11q-2 -3 3 -9q4 -5 4 -2zM640 592q2 16 -2 16q-2 -3 -2 -16l1 -12zM187 582q-24 25 -29 23
q0 -5 14 -30.5t19 -29.5q7 -6 30 -69q6 -17 11.5 -31.5t9.5 -22.5l3 -8q1 1 -23 79q-16 52 -22 66.5t-13 22.5zM621 506q-1 21 -2 24.5t-6.5 3.5t-6.5 -3.5t-1 -26.5q0 -31 3.5 -34.5t-0.5 -25.5q-7 -50 -2 -79q2 -3 3 -3q3 3 6 46q3 45 5 56q2 13 1 42zM582 376q1 30 0 59
q0 16 -1 0v-30zM537 448q-1 5 -6 5q-4 0 -4 -12t1 -60q2 -74 4 -86l3 -7q1 2 2 16v1q3 21 7 45t-1 58q-3 33 -6 40zM295 424q-4 10 -7 4q-2 -3 6 -18l7 -11q0 1 -1 7q-3 13 -5 18zM317 238q0 2 -4 24l-5 21l1 -21q1 -22 5 -25.5t3 1.5zM261 243q-8 26 -11 26q-2 0 2 -14
t9.5 -28.5t8.5 -16.5v2q-2 5 -9 31zM602 174q-1 63 -3 73q-2 5 -2 -10q-1 -14 -1 -46q2 -68 4 -73q2 -3 3 24q0 13 -1 32zM576 161q0 16 -2 33q-2 13 -2 0q0 -5 1 -14l3 -32q1 3 0 13zM632 157q1 9 0 17l-1 -1v-7zM551 102q1 10 0 21q-1 -5 -1 -11zM555 68q0 7 -3 9
q-1 0 -2 -1t-1 -4q0 -6 3 -8q1 -1 2 0.5t1 3.5zM612 38q1 1 -4 14l-6 12v-10q0 -12 8 -16q1 -1 2 0zM570 47q-1 4 -5 5q-2 1 -3 0.5t0 -2.5q1 -4 5 -6q2 0 3 0.5t0 2.5zM584 22q-3 10 -10 2q-4 -5 -12 -6q-5 -1 0 -1q2 -1 8 -1q11 0 13 1t1 5z" />
    <glyph glyph-name="N" unicode="N" horiz-adv-x="651" 
d="M20 665q78 5 125 1q36 -3 47.5 -10t30.5 -37q23 -33 72 -87q50 -55 94 -110q28 -37 63 -78.5t59.5 -68.5t25.5 -25q2 2 0 198l-2 196h-56h-56l1 8l1 9h113h112v-8v-8l-47 -1l-48 -1v-69q0 -56 3 -201q2 -131 -1 -138q-2 -7 -7 -7q-2 0 -3 -4t-0.5 -15.5t2 -30.5t4.5 -51
q4 -38 5.5 -88t-1.5 -54t-11 -4t-33 32q-27 34 -77 85q-41 42 -62 68t-55 76q-28 42 -54 72q-34 38 -50 59.5t-49 71.5q-19 28 -31.5 46t-13 17.5t2.5 -34.5q12 -153 6 -305q-4 -83 -4 -122l-1 -32l50 1q49 2 53.5 -2.5t1.5 -10.5q-2 -3 -15 -4.5t-68 -2.5q-150 -4 -152 2
q-1 4 -1 7t7.5 4.5t18 2.5t31.5 2q52 1 54 4q2 2 4 115t1 186q-2 99 -7 159q-10 140 -3 162l2 8l-60 -3q-87 1 -89 5q0 7 12 10t55 5zM202 613q0 5 -12 17l-11 12l15 -28q17 -32 19 -32q0 1 -5 12q-6 15 -6 19zM175 588q-12 22 -15 22q-2 0 6 -19q11 -24 14 -22q3 4 -5 19z
M124 548q0 6 -4 11q-2 4 -2 -1q-1 -2 -1 -6q0 -11 3.5 -11t3.5 7zM272 432q-19 25 -20 24q-1 0 8 -12q37 -53 40 -53q1 0 -2.5 6t-10.5 16t-15 19zM232 401q-18 21 -36 41l-8 8q1 -2 14 -22q12 -18 37 -51t27 -33l-2 4l-3 12q-6 16 -29 41zM321 322q-18 28 -22 28q-1 0 1 -4
q2 -6 17.5 -28.5t23.5 -31.5l8 -9l-7 12q-11 19 -21 33zM400 296q-9 10 -13 10q-5 0 35 -47q7 -9 9 -9q1 0 -4.5 9t-13.5 20.5t-13 16.5zM477 260q0 4 -12 13l-12 9l11 -13q12 -14 13 -9zM526 214q1 15 -3 19t-3 -1q0 -3 2 -14l3 -20zM410 162q-29 36 -38 46l-15 15l12 -17
q30 -43 74 -86l14 -13q-1 2 -7 9q-15 16 -40 46zM506 151q-1 2 -4 2q-2 -1 -1 -5t3.5 -10t4.5 -8q1 -1 1 1q1 11 -4 20zM517 84q0 4 -11 15l-11 12l10 -14l11 -15zM539 63q0 7 -1.5 8t-7.5 -2q-3 -3 3 -8q5 -4 5.5 -4t0.5 6z" />
    <glyph glyph-name="O" unicode="O" horiz-adv-x="680" 
d="M302 679q24 2 61 2q79 1 119 -17q64 -29 120.5 -101t69.5 -144q14 -71 0.5 -156.5t-46.5 -133.5q-31 -46 -80 -91t-87 -64q-33 -15 -90 -11q-69 5 -153 62q-108 72 -148.5 167.5t-17.5 223.5q4 23 8 49q2 19 9 35t13 16q5 0 12 14q13 28 41 60t55 50q20 13 21.5 13
t19.5 9q27 13 73 17zM419 648q-10 9 -24.5 13t-18.5 0q-2 -3 -49 -3q-42 0 -57 -4t-21 -16q-11 -23 -21 -81q-12 -78 -12 -234v-128l10 -37q11 -39 18 -56q5 -14 12 -36q6 -17 15 -36q6 -15 14 -21t31 -14q23 -9 54 -12t53 0.5t20 11.5q-1 5 5 33q24 101 28 274q1 73 -2 106
t-17 102q-14 68 -19 97q-4 22 -6.5 27.5t-12.5 13.5zM464 650q-2 0 -7 2t-5 -2q-1 -5 7 -12l7 -6v9q1 9 -2 9zM225 633q1 4 -1 4q-2 1 -8 -4q-5 -3 -5 -4t5 -1q7 0 9 5zM513 623l-1 1h-1l-2 2l-19 11q0 -1 2 -4q12 -16 15.5 -19t7.5 0t3.5 4.5t-5.5 4.5zM566 571q1 3 -18 21
l-11 10q0 -1 3 -4q6 -7 17 -21q2 -2 4 -3.5t3 -2t2 -0.5zM497 592q-6 8 -8 10l-1 -1q1 -3 6 -10q4 -6 7 -9t3 -2q2 1 -7 12zM175 565.5q5 13.5 3.5 14t-9.5 -12.5q-5 -10 -5.5 -13.5t2.5 -7.5l4 -7v7q0 6 5 19.5zM136 552q4 9 6.5 14.5t1.5 5.5t-14 -19.5t-17 -27.5l-6 -11
l10 9q10 11 19 29zM476 540q3 2 -3 13q-5 11 -5 5q1 -18 8 -18zM627 488l-14 24q-1 -2 6 -17l11 -25q3 -8 6 -8t-9 26zM570 487q-8 19 -11 19q-1 0 -1 -4t8 -42q9 -38 15 -39t6 3q0 3 -3 19q-4 24 -14 44zM196 446q3 11 2 22l-2 12v-12q0 -12 -2 -21l-2 -11zM160.5 453.5
q0.5 8.5 -2.5 8.5t-3 -16l2 -11l1 3q2 7 2.5 15.5zM530 377q-3 33 -10 51l-6 17l2 -28q4 -53 15 -86q1 -5 2 0q0 12 -3 46zM193 338q2 72 1 74q-2 2 -4 -26.5t-2.5 -58.5t1.5 -46q1 -10 2 4q1 12 2 53zM498 367q1 8 0 17l-1 -1q-1 -3 -1 -8l1 -10zM646 343q0 7 -4 9
q-1 0 -2 -2q-1 -4 -1 -10q2 -9 3 -9q4 5 4 12zM633 292q4 5 -1 5t-5 -7l1 -5v1l2.5 2.5t2.5 3.5zM158 225q0 6 -5 36l-4 31l1 -31q2 -30 5 -36q2 -3 2.5 -3t0.5 3zM602 243q-2 23 -6 25q-2 1 -3 -8t0 -34v-43l6 18q6 18 3 42zM498 218q1 13 -2 15l-3 -5q-1 -5 0 -15
q0 -16 2 -15q3 0 3 20zM128 199q-2 7 -5 7q-5 0 4 -15l5 -7v1q-2 5 -4 14zM526 170q0 12 0.5 21t-0.5 9t-5 -29.5t-3 -39.5v-11l3 10q3 10 5 40zM569 149q2 16 0.5 16t-4.5 -15q-4 -20 -1 -20q3 3 5 19zM599 125q3 6 0 6q-2 0 -5 -4q-2 -5 -7 -5t-2 -4q7 -6 14 7zM488 85
q1 6 1 12v9v3q-4 0 -10.5 -29t-3.5 -32q2 -3 6 6q5 12 7 31zM531 72q5 5 2 7q-3 3 -6 -4q-4 -7 -2.5 -8t6.5 5z" />
    <glyph glyph-name="P" unicode="P" 
d="M38 678q36 2 136 1t143 -4q101 -7 143 -28q51 -26 78.5 -72t19.5 -93t-51 -86.5t-108 -59.5q-54 -15 -111 -14l-42 2l-2 -32q-3 -68 -4.5 -161t1.5 -107l2 -11h46l46 1v-8q0 -5 -2.5 -6.5t-12.5 -3.5q-18 -2 -43 -2q-30 0 -35 -5t-12 -1q-7 3 -57.5 2t-57.5 -5t-11 -1
t-38.5 5t-43.5 4.5t-9 9.5v8l34 -1l35 -1l4 43q28 332 -11 573q-5 30 -5 32t-35 1q-36 -3 -37 2q-4 9 4.5 12.5t35.5 5.5zM180 651q2 8 -2 8q-6 0 -2 -11q3 -5 4 -1v4zM229.5 649q-0.5 6 -3 7.5t-13.5 2.5q-14 0 -13 -2q2 -3 2 -19q1 -12 3 -14l3 3v8q0 8 4.5 10.5
t11.5 -1.5q4 -3 5 -2t0.5 7zM317 652q-5 4 -36 5l-32 2l1 -52q2 -50 3 -58q1 -5 -1.5 -95t-4.5 -98q-1 -6 1.5 -8t13.5 -4q18 -4 43 -3l26 1l18 35q17 34 23 58t6 56q-1 51 -17 101.5t-33 53.5q-6 1 -11 6zM111 636q0 4 -9 10q-9 7 -9 2q-1 -5 4 -29l4 -24l2 17q3 16 5 18
q3 2 3 6zM367 644.5q0 4.5 -6 6.5l-6 1l6 -8q6 -9 6 -12q0 -4 11 -9l10 -5l-10 11q-11 11 -11 15.5zM438 581l7 6l-7 7l-8 7v-14q0 -26 13 -58l3 -5q4 4 2 17t-8 22l-8 13zM392 566q0 7 -3 12q-2 4 -2 0q0 -2 1 -6l4 -12v6zM130 475q-3 45 -8 61l-4 16l1 -27q3 -41 7.5 -89
t7.5 -50q1 -2 2 6q0 5 -1 14q-2 20 -5 69zM172 464q-1 43 -4 56q-2 9 -2 -4v-19q3 -62 5 -60q1 0 1 27zM399 445q0 11 -1.5 11t-2.5 -11t1.5 -11t2.5 11zM510 427q7 10 4 10q-1 1 -3 1q-5 0 -12 -6t-7 -11q0 -3 -8 -14l-8 -12l13 11q12 10 21 21zM391 402q2 15 0 16l-4 -4
q-1 -5 -8 -21q-5 -15 -3 -19t9 10q5 9 6 18zM225 293q0 58 -2 58q-2 -4 -3.5 -50t0.5 -54q1 -5 2 4q1 10 3 42zM148 88q1 25 -2 42l-2 11q-1 -2 -2 -28q-2 -36 1 -42t4 3q1 4 1 14zM180 118q4 20 -1 27q-3 -2 -2 -20l1 -13q1 1 2 6zM114 79q0 15 -3 16q-1 1 -2 -1
q-1 -3 -1 -7q0 -13 -2 -37l-1 -27l5 21q4 18 4 35zM221 25q-1 15 -6.5 15t-7.5 -16q-1 -8 0.5 -10t7 -2t6.5 2t0 11zM189 14q-8 4 -9 13q-3 8 -3 5q0 -4 -16 -2l-16 2l1 -11l1 -12h25q21 1 21 2t-4 3z" />
    <glyph glyph-name="Q" unicode="Q" horiz-adv-x="665" 
d="M303 680q38 7 80 -1q63 -10 106 -29t78 -52q73 -68 93 -191q5 -34 3 -109q-3 -106 -14.5 -146t-51.5 -76q-33 -31 -80.5 -61.5t-60.5 -30.5q-8 0 -15.5 -4t-7.5 -8q0 -9 9 -46.5t14 -46.5q6 -13 19 -22q37 -26 52 -26q7 0 13 -5q4 -3 8 -2.5t19 7.5q35 16 35 -1
q0 -8 -27 -23q-26 -15 -42.5 -20.5t-41.5 -7.5q-56 -4 -114.5 29.5t-84.5 83.5q-11 22 -11 45q0 24 3 41q2 13 1.5 16t-7.5 6q-12 5 -37 11q-65 16 -129 80q-44 43 -62.5 82.5t-27.5 108.5q-8 60 -2 106t27 93q36 77 104.5 130.5t151.5 68.5zM369 661q-17 2 -19 3
q-6 1 -33.5 -3t-45.5 -9l-15 -5l-7 -21q-26 -85 -33 -287q-3 -95 10 -171t41 -118q11 -16 17 -21.5t22 -13.5q43 -21 85 -21h22l14 35q20 47 28 90q42 217 -25 486q-10 39 -12.5 43.5t-16.5 7.5q-22 4 -32 5zM230 632q0 5 -23 -8q-39 -22 -76 -59t-56 -74q-4 -9 -3 -9
q0 -1 4 1q8 3 12 4q6 1 12 21q4 15 13 30t13 15t31 28q29 28 40 31.5t22 10t11 9.5zM462 566q-2 17 -4 22q-4 6 -2 -4q1 -5 4 -17l4 -19zM563 572q0 1 -1 2.5t-3 4t-4 4.5q-8 7 -8 6t1 -3q3 -6 8 -10.5t7 -3.5zM216 573q3 8 0 9q-1 0 -3 -3q-1 -1 -1 -2q-2 -4 -2 -6t1 -2
q3 0 5 4zM211 541q0 9 -5 9q-4 0 -7.5 -7t-10.5 -30q-13 -40 -15.5 -57t-3.5 -61v-42q2 3 12 77v2q13 92 25 97q5 2 5 12zM478 498q-5 18 -7 20l1 -12q4 -30 10 -35q4 -2 4.5 -2t-1.5 4q-1 4 -7 25zM560 482q-11 16 -11 7q0 -5 3 -5q7 0 14.5 -37t10.5 -90l2 -49l-1 62
q-1 52 -4.5 74t-13.5 38zM631 449q-7 24 -7 19t4 -19t5 -16zM88 455q1 4 1 5v2q-3 0 -12.5 -18.5t-8.5 -20.5q1 0 3 2t4.5 6t5 8.5t4.5 9t3 6.5zM196 372q3 7 2 19l-2 11v-11q0 -6 -2 -19l-2 -8zM499 309q-4 51 -6 60q-1 8 -2 -12q-1 -15 -1 -48l1 -76l6 12q4 9 4.5 18
t-2.5 46zM556 359q-2 9 -6 11q-4 1 -4 -3q0 -3 2 -10q2 -16 2 -84q-1 -70 2 -71q1 -1 2 0t1 4q0 6 6 6t5 11q-8 56 -8 104q0 21 -2 32zM624 355q-3 3 -4 9v-19q1 -28 4 -30q3 -1 3 17q0 20 -3 23zM128 254q3 6 -4 41l-6 25v-4q-1 -39 8 -60q1 -4 2 -2zM195 306q1 6 0 14
q-1 3 -1 0q-1 -3 -1 -8l1 -8zM640 229q2 16 -2 16q-2 -2 -2 -15l1 -13zM156 144q-8 23 -16 27q-7 3 -7 2q0 -2 10 -20.5t14.5 -24.5t2.5 2q-1 4 -4 14zM549 149q4 23 1 23q-1 -1 -6 -13q-7 -19 -19 -44l-12 -27q1 0 16 21q16 21 20 40zM216 43q-5 6 -6.5 6.5t-2.5 -2.5
q-1 -1 1 -3t6 -3q6 -3 6.5 -2.5t-4.5 4.5zM510 37q2 5 0 5t-12 -10l-10 -11l10 6q11 6 12 10zM254 32q-1 4 -5 5q-2 1 -3 0t0 -3q1 -4 5 -5q2 -1 3 0t0 3zM458 6q4 3 1 3t-12 -3l-6 -2l5 -1q8 0 12 3zM372 -30q2 5 -1 5t-4.5 -5.5t0.5 -8.5q3 -3 3 1q0 2 2 8zM470 -184
q-4 0 -11 2t-7 -2q0 -3 11 -4t11 1.5t-4 2.5z" />
    <glyph glyph-name="R" unicode="R" horiz-adv-x="628" 
d="M199 672q124 6 187 -5q28 -5 61.5 -16.5t44.5 -19.5q26 -19 46 -71t14 -85q-17 -87 -167 -117l-34 -7l22 -6q78 -21 111 -61q19 -24 27 -53t13 -89q5 -79 17 -101q4 -9 15 -17q15 -11 16 -9q0 2 -3 10q-10 28 -2 40q3 5 16.5 7.5t20.5 -1.5q14 -7 20.5 -24.5t1.5 -33.5
q-7 -20 -37 -31.5t-70 -8.5q-29 1 -45 9.5t-43 34.5q-31 32 -44.5 63.5t-26.5 105.5q-10 52 -19 77t-25 43q-8 9 -24 18.5t-28 13.5l-9 2l1 -161q0 -160 4 -163q4 -2 33 -5q25 -2 33 -5t6 -10q-1 -6 -9.5 -6.5t-58.5 3.5q-40 4 -121 3t-101 -6q-16 -3 -22 -1.5t-5 9.5
q1 7 18 10q16 4 34 6l18 2l-2 58q-1 59 3 133q4 75 0 149t0 153q4 77 1 107l-2 26l-34 1l-34 1l1 8l1 9l64 4q30 2 116 7zM316 654q-20 2 -39 2h-21l-4 -27q-4 -29 -1 -146q3 -118 4 -119t30 1q28 3 39 12q23 17 38 61.5t15 93.5q0 31 -5.5 49.5t-25.5 51.5l-11 19zM232 651
l-36 1q-6 -1 -12 -1l-17 -1l-4 -17q-4 -14 -7 -30q-1 -10 0 -12.5t7 -4.5q6 -1 7 -3.5t0 -10.5q-2 -13 1 -14.5t3 -8.5q0 -4 2 1v6q3 13 0 45q-3 22 -2.5 28t5.5 11q4 6 10 7t8 -4q3 -3 5 2q4 6 11.5 5t10.5 -7l2 -7v7q1 7 6 8zM125 645q1 0 -1.5 1t-6.5 1q-9 0 -10.5 -1.5
t-1.5 -10.5q0 -8 1.5 -10.5t6.5 -3.5t6 0.5t1 10.5q0 12 5 13zM145 645q1 2 -8 2l-6 -2q1 0 3 -2q5 -2 6 -8q0 -5 2 1q3 6 3 9zM419 622q-5 18 -9 20q-4 1 3 -24t9 -27q1 -1 2 2q0 9 -5 29zM211 609q4 10 2 12q-1 1 -3 -3q-2 -6 -2 -13q1 -7 3 4zM124 573q0 7 -3 11t-4 -6
v-2q0 -12 3 -11q4 1 4 8zM492 556q-2 11 -12 22l-10 11l8 -16q6 -11 13 -28q4 -13 4 -5q0 6 -3 16zM463 554q1 2 -3 11l-5 8l2 -9q4 -11 6 -10zM223 513q1 12 0 24q-1 5 -1 0q-1 -4 -1 -12l1 -14q1 1 1 2zM402 497q0 13 -4 12q-2 -1 -3 -11q1 -13 3 -13q4 4 4 12zM484 501
q-4 13 -8 -3q-1 -1 -1 -3q-2 -11 -6 -19q-5 -7 -2 -7t11 9q11 13 6 23zM442 480q3 8 2.5 9t-4.5 -2t-6.5 -7t-2.5 -5q5 -8 11 5zM233 395q0 58 -3 58q-4 0 -5 -101q0 -13 4 -14q2 0 3 8q1 11 1 49zM405 416q7 10 4 12q-1 1 -2 0.5t-2 -2t-2 -4.5q-4 -10 -9.5 -10t-9.5 -6
t-10 -6q-7 0 -7 -3q0 -4 27 8q3 1 11 11zM196 399q0 26 -3.5 26t-1.5 -24q2 -25 3 -26q1 0 1 3t0.5 9t0.5 12zM147 376q-4 38 -7 37q-1 0 -1 -8q0 -14 4 -60.5t6 -53.5q1 -8 2 2q2 33 -4 83zM420 280q-14 14 -23 21h-2q2 -3 15 -15q22 -22 23 -21l-1 2q-2 2 -5 5.5t-7 7.5z
M198 254q1 8 0 17l-1 -1q-1 -3 -1 -8l1 -9zM140 216q-3 20 -4 26l-2 8q0 -1 -1 -14q0 -18 5 -27q4 -7 4 -2q-1 2 -2 9zM225 144q-2 65 -5 83q-1 10 -1 -13q0 -14 1 -41q1 -73 4 -83l2 13q0 15 -1 41zM114 208q-1 11 -3 17q-2 7 -3 1q0 -2 -1 -6q-2 -12 -2 -21q0 -6 1 -7t4 2
q4 4 4 14zM402 211q-1 7 -5 14q-3 5 -4 5l1 -8q2 -13 6 -15l2 2v2zM504 120q0 15 -2 25l-3 10v-10q0 -11 3 -25l2 -15v15zM106 92q-1 49 -2 48.5t-2 -42.5q0 -51 2.5 -51t1.5 45zM509 81q-2 18 -3 19v-16q1 -8 2 -12q3 -8 1 9zM180 32q-2 6 -4.5 7.5t-4 -1t-1.5 -8.5
q0 -11 7 -11q5 0 5.5 2.5t-2.5 10.5zM530 -5q-11 5 -15.5 9.5t-11.5 -3.5l-7 -7h7q10 0 23 -2l15 -2z" />
    <glyph glyph-name="S" unicode="S" horiz-adv-x="457" 
d="M187 689q67 18 110 -3q18 -8 40 -29.5t37 -43.5l15 -23l-2 35q-1 37 1 50q3 12 8 16.5t10 -0.5t2 -25q-4 -19 1 -64q10 -91 1 -97q-5 -4 -9.5 2t-4.5 17q0 9 -16.5 39.5t-33.5 52.5q-28 38 -59 53q-16 8 -46 7.5t-56 -8.5q-26 -9 -29 -11q-3 -3 -8 -18q-6 -16 -6 -66
l-1 -50l11 -17q18 -27 50.5 -52.5t100.5 -65.5q69 -41 101.5 -72.5t45.5 -71.5q6 -17 6 -60v-42l-11 -24q-43 -88 -127 -121q-7 -3 -22 -9l-20 -8q-96 -41 -181 45q-24 24 -38 53l-15 30v-67v-66l-8 1l-9 1l-2 107q-3 107 -1 112q1 4 9 4t10 -8q11 -57 33 -101
q30 -61 86 -89q20 -9 28 -11t30 -2q32 0 33 4q2 4 14 7q26 7 55 39q61 67 10 129q-15 19 -37 34t-66 37q-88 45 -133 90q-43 43 -58 91q-8 22 -7 64q0 66 23 112q14 29 52 55t83 38zM120 574q1 7 0 13q-1 2 -2 -1v-6l1 -7zM152 416q-19 35 -22 35q0 -16 23 -52
q10 -16 26.5 -35.5t20.5 -19.5q2 0 -14.5 19t-18.5 22q-3 6 -15 31zM115 381q-18 45 -29 59q0 -12 20.5 -53.5t34.5 -56.5q2 -3 2 -2q0 3 -8 14q-15 24 -20 39zM196 408q-8 11 -18 20q-8 8 4 -8q18 -21 20 -21q1 0 -6 9zM274 379l-4 3q-3 2 -9.5 6.5t-14.5 9.5l-23 12l1 -1
q9 -7 28.5 -19t21.5 -11zM206 310q-24 18 -33 27q-12 11 -12 8q0 -6 22.5 -24t41.5 -29l10 -4q-3 3 -29 22zM250 310q-5 8 -10 10h-3q1 -2 9 -9l7 -6q0 1 -3 5zM398 288q4 1 -12 17q-12 11 -13 9q-1 -1 13 -17q9 -10 12 -9zM361.5 295.5q-13.5 17.5 -15.5 16.5l5 -8
q8 -12 14.5 -20.5t7.5 -7.5q2 2 -11.5 19.5zM332 279q-12 15 -15 15q-9 0 10 -16q2 -2 4 -3l13 -11zM424 255q-4 9 -11 18l-3 4l2 -7q3 -9 7 -14q3 -3 6 -10q2 -4 4 -4q1 1 -5 13zM288 237q-11 5 -11 3q-1 -2 16 -12q21 -14 32 -24l11 -12l-3 10q-3 7 -16 17.5t-29 17.5z
M363 212q-2 6 -13 16l-12 11l12 -18q16 -23 14 -14q0 2 -1 5zM437 209q-4 27 -7 25q-2 -4 3 -23l6 -19zM356 44q-2 4 -7 -2q-1 -2 -3 -5l-8 -10l10 7q10 7 8 10z" />
    <glyph glyph-name="T" unicode="T" horiz-adv-x="602" 
d="M339 686q8 1 64 0t96 -9q38 -8 66 -8t32.5 -5.5t2.5 -35.5q-8 -133 -12 -143q-2 -4 -8.5 -3.5t-8.5 4.5q-1 5 2 45q3 39 0 40t-10 17q-15 29 -53 48q-18 10 -20 16q-1 4 -5.5 6t-19.5 4q-26 3 -61 5l-37 1v-325v-326l42 2q16 1 30.5 1t14.5 -1q4 -1 3 -9q0 -6 -5 -7.5
t-32 -3.5q-23 -1 -57 -3q-126 -10 -178 -7q-44 2 -53 4t-8 10q1 7 9 7.5t48 -2.5l30 -2l-1 118q0 114 6 201q5 76 4 168.5t-7 126.5q-5 28 -5 30t-62 1l-61 -1l-20 -21q-35 -36 -35 -67q0 -16 -7 -17q-4 -2 -5 -6t0 -25q3 -32 4 -38q2 -8 1 -9t-7 -1q-12 1 -15.5 14t-2.5 56
q0 38 4 74.5t10 48.5l4 8l90 2q72 1 94.5 3.5t24.5 7.5q1 4 7 4t9.5 -3t46.5 0q45 4 51 5zM322 640l-2 22h-10q-7 0 -8.5 -1t-0.5 -6q2 -7 7 -9q4 -1 4.5 -6.5t-0.5 -27.5q0 -28 2 -29q5 5 7 21.5t1 35.5zM256 629v30l-5 -2q-5 -1 -3 -44q1 -43 4 -47q2 -4 3 6q1 13 1 57z
M281 649q-2 10 -6 10t-2 -8q4 -15 7 -15q3 3 1 13zM570 642q0 8 -6 8q-5 0 -5 -1t4 -6q1 -1 3 -3.5t2.5 -3.5t1.5 -1v7zM348 612q1 10 0 19l-1 -1q-1 -4 -1 -10l1 -10zM349 417q0 130 -3 130q-2 0 -2 -64t0.5 -128.5t2.5 -66.5l1 17q0 17 0.5 47t0.5 65zM244 390
q0 38 0.5 62t-0.5 26q-2 0 -2 -17q0 -18 -3 -82t-4 -77l-1 -13q1 0 3 5q4 7 7 96zM323 437q1 13 0 25q-1 5 -1 0q-1 -5 -1 -14l1 -14q1 1 1 3zM268 390q-1 20 -2 19t-1 -14q0 -20 2 -20t1 15zM272 184v149l-1 12q-1 -7 -4 -24q-3 -22 1 -24q3 -2 0 -21q-7 -35 -1 -98l2 -20z
M316 302q-5 43 -5 2q0 -23 4 -23q3 0 1 21zM302 226q3 5 0 12q-3 1 -3 -5q0 -10 1 -9q1 0 2 2zM270 45q1 12 -3 17q-2 3 -2 -6v-18l1 -23q1 1 2 5q2 14 2 25zM305 38q0 28 -1 28q-4 0 -5 -16t3 -30q2 -7 2 8q0 4 1 10zM241 28q2 18 -5 20q-4 1 -5 -2t-1 -18q0 -22 2 -22
q9 1 9 22zM335 30q0 14 -3 14q-2 0 -2 -16q0 -15 2 -14q3 2 3 16z" />
    <glyph glyph-name="U" unicode="U" horiz-adv-x="629" 
d="M-6 680q1 4 12 4.5t56 -1.5q92 -3 158 -5l93 -1v-8q0 -6 -4 -7t-28 -3q-31 -1 -32 -6q-5 -18 -6 -131.5t3 -182.5q13 -233 44 -282q24 -37 84 -49l23 -5l28 14q49 24 70.5 58t28.5 99q6 52 -8 195q-9 79 -7 154q4 120 -5 129q-2 2 -40 4q-28 1 -33.5 2.5t-6.5 6.5
q-1 7 2 10q3 1 47 0q48 -3 91 -4q50 -3 55 -4q7 -1 9 -6.5t-2 -9.5q-3 -4 -44 -3q-43 3 -47 4q-4 0 -5 -5q-2 -9 -1 -106q1 -111 8 -175.5t7 -138.5q0 -76 -7 -103q-10 -40 -27.5 -65.5t-49.5 -45.5q-67 -44 -155 -40q-35 1 -56 6t-50 20q-20 10 -31 18.5t-36 33.5
q-37 38 -42 46q-17 34 -18 359q0 162 3 184l2 22h-15q-16 0 -41 3q-20 1 -25 4t-2 11zM109 658q2 4 -4 4q-9 0 -9 -10q0 -3 1 -3.5t5 2.5q6 4 7 7zM226 642q1 5 -2 5t-3 -18l1 -14q0 1 2 8q2 14 2 19zM133 625q0 6 -4.5 6t-4.5 -3q0 -2 4 -6q3 -2 4 -2t1 5zM177 626
q0 5 -3.5 5t-3.5 -4q0 -5 -2 -10l-1 -4q0 -1 4 3q6 6 6 10zM201 501q3 3 1 35l-2 31l-4 -20q-3 -20 -3 -52l1 -23q1 2 2 9q3 16 5 20zM160 434q-2 44 -5 48t-3 -47q0 -41 0.5 -49t5.5 -8q6 0 5 10q-2 14 -3 46zM228 299q-2 39 -5 39q-2 -2 -2 -14.5t2.5 -33.5t5.5 -38l2 -8
q-1 21 -3 55zM188 235q1 2 -2 22q-2 19 -5 19q-4 -3 1 -22zM212 195q-5 23 -8 23q-2 0 -5 -2q-5 -3 4 -26q12 -33 16 -33q2 0 0 5q-3 17 -7 33zM214 65q-24 24 -30 33l-7 7q0 -4 16.5 -24t30.5 -32q14 -13 31 -23.5t22 -9.5l-14 12q-20 13 -23 13t-26 24zM316 -3
q-6 7 -11.5 10t-5.5 -3.5t-6 -9.5q-4 -2 3 -3h9h16z" />
    <glyph glyph-name="V" unicode="V" horiz-adv-x="611" 
d="M19 683q2 4 7.5 4.5t9.5 -3.5t101 -5.5t121 2.5q26 4 28 0q9 -14 -17 -18q-9 -2 -25 -2q-29 -2 -35.5 -3.5t-6.5 -7.5q0 -21 46 -116q27 -56 40.5 -89.5t33.5 -97.5q17 -56 28 -87l9 -24l6 19q76 239 97 281q20 39 23 80l2 27l-46 1q-52 1 -52 10q0 2 2 5q4 6 187 8h32
v-8q1 -5 -0.5 -7t-9.5 -3q-12 -2 -48 -2t-40 -3q-5 -2 -9 -41q-3 -26 -6 -36t-13 -30q-13 -26 -69 -193q-53 -163 -62 -181q-8 -17 -10 -28q-1 -11 -6 -17q-12 -14 -30 -84q-7 -26 -10 -32.5t-8 -7.5q-8 -1 -11.5 4.5t-9.5 24.5q-7 24 -32 69q-22 40 -34 68.5t-30 84.5
q-16 50 -42 116q-27 69 -47 144q-6 23 -29 67q-32 60 -35 76q-2 8 -3.5 9.5t-7.5 0.5q-1 0 -8.5 -1.5t-11.5 -1.5q-14 -3 -21 -7q-18 -9 -18 7q0 7 10 12q22 11 48 11q11 0 12 5zM137 655q2 4 -4 4q-5 0 -3 -6q2 -4 6 -13q3 -5 5.5 -9t4 -6.5t1.5 -1.5q2 2 -4.5 14.5
t-5.5 17.5zM89 560q0 7 -18 33q-4 4 -4 3q0 -3 9.5 -21.5t11 -18.5t1.5 4zM258 467q0 3 -8 17l-7 11q0 -2 7 -17zM223 350q-4 0 -9 5q-7 6 -5.5 0.5t10.5 -26.5q10 -25 7 -31q-4 -7 2 -19.5t8 -12.5t3 1t1 4t-1 7.5t-3 11.5q-6 17 -8 40q-2 20 -5 20zM276 289q-2 5 -9 31
q-5 16 -7.5 20.5t-5.5 3.5q-5 -1 -5.5 -5.5t4.5 -10.5q4 -4 11 -23q8 -20 12 -21q2 -1 0 5zM208 275q-12 25 -14 25t11 -33q11 -24 14 -24q2 7 -11 32zM300 232q-1 6 -8 21l-4 8q-1 -3 8 -23l4 -8v2zM277 189q0 6 -5 13q-4 6 -4 2q-1 -5 4 -13q4 -8 5 -5v3zM238 137l-27 56
l7 -20q16 -38 20 -39v3zM266 138l-14 37v-2q0 -6 6.5 -26t9.5 -24l-2 13v2zM313 121q4 10 -2 17l-6 7l1 -7q0 -8 2 -18l2 -9zM289 51q0 1 -1.5 1.5t-3.5 0.5q-5 0 -3 -5t2 -8t3 2t3 9z" />
    <glyph glyph-name="W" unicode="W" horiz-adv-x="921" 
d="M29 680q40 3 103 2.5t98 -4.5q14 -1 17 -2.5t3 -6.5q0 -6 -3 -7t-18 -2l-22 -1l2 -10q2 -9 19 -44q18 -37 41 -93q15 -38 52 -129q30 -73 46 -121q7 -21 12 -35t6 -14q1 2 10 28q15 43 37 77l10 16l-7 23q-7 20 -20 55q-13 33 -24 76q-12 43 -37 95q-26 52 -28 59
q-2 5 -14 5q-30 0 -34 9q-2 7 9 9q13 2 75 3q84 0 107 2q170 12 222 6q10 -2 12.5 -3.5t2.5 -6.5v-8h-45h-45l-13 -26q-15 -31 -32 -82l-18 -55l22 -58q50 -129 77 -224q7 -25 9 -24q8 5 28 91q17 74 31 116.5t43 111.5q15 37 31.5 81.5t16.5 50.5q0 3 -24 5q-49 4 -49 17
q0 7 6 7.5t34 -3.5q22 -4 78 0q56 3 60 -1q13 -13 -15 -17q-11 -1 -26 -1q-17 0 -30 -2q-9 -1 -11.5 -4t-5.5 -16q-12 -45 -49 -131q-28 -65 -42 -109.5t-31 -120.5q-10 -45 -16.5 -62.5t-23.5 -43.5q-18 -28 -25 -42q-5 -10 -18.5 -50.5t-19.5 -62.5q-3 -11 -10.5 -11
t-11.5 8q-73 145 -117 268l-14 41l-14 -27q-16 -31 -28 -65q-12 -37 -39 -92q-35 -74 -48 -113q-6 -17 -9 -21.5t-7 -4.5q-5 0 -8 3.5t-7 13.5q-6 16 -11 46q-5 27 -13.5 49t-31.5 70q-29 57 -87 216q-30 84 -86 194q-37 73 -37 76q0 4 -29 4q-21 0 -25 1t-5 6q-1 7 3 9
q6 2 61 6zM164 657q-3 5 -8 5q-4 0 1 -9q5 -8 8 -5q3 2 -1 9zM582 637l10 19h-27q-68 -2 -75 -4q-4 -2 0 -9q6 -8 15 -34q10 -29 22 -57l13 -30l16 47q16 47 26 68zM84 633q-5 14 -9.5 14t-4.5 -1.5t8.5 -14t9.5 -12.5v1q-1 2 -2 5.5t-2 7.5zM387 641q-3 3 -13 5
q-8 1 -9 0.5t2 -3.5q4 -5 14 -5q7 0 6 3zM452 628q-7 12 -10 15.5t-9 3.5q-9 0 -9 -2q0 -10 11 -10q3 1 6.5 -3.5t9.5 -15.5q9 -20 13 -22q3 -1 1 5q-2 7 -13 29zM453 500q-3 18 -25 60l-4 5q-1 -2 7.5 -25.5t14.5 -36.5l9 -17zM114 530q-12 25 -17 29q-2 2 -1 -2
q2 -5 8 -18q12 -24 15 -32t6 -5q1 3 -11 28zM192 509q-30 46 -30 43q0 -1 9 -17q6 -10 28 -51q10 -19 14.5 -25.5t6.5 -5.5q5 3 0.5 11t-28.5 45zM511 494q-13 26 -15 25q0 -3 9 -24.5t11 -25.5q2 -1 3.5 0.5t-8.5 24.5zM255 453q0 8 -5 15q-4 5 -4 2q0 -4 4 -14l4 -8
q1 0 1 5zM498 440q-6 13 -9 12q0 -3 4 -12t6 -9q1 0 0.5 2.5t-1.5 6.5zM197 353q-13 43 -16 41q-1 -1 -1 -4q0 -5 12 -39.5t16 -40.5l3 -4q0 1 -1 5q-1 1 -3 7t-5 16.5t-5 18.5zM274 366q-7 12 -10 16l-1 1q0 -4 6 -16q8 -17 8 -19q0 -1 3 -1t-6 19zM319 279q-22 42 -23 42
t1 -7q1 -7 20 -41.5t21 -34.5l-2 6q-3 5 -7.5 14.5t-9.5 20.5zM586 239q0 10 -5 15q-4 6 -4 -1q0 -8 4 -15l5 -8v9zM358 210q-1 6 -5 13l-4 10v-9q-1 -7 1 -13q3 -8 7 -4q1 1 1 3zM528 167l-17 35q0 -2 7.5 -19.5t15.5 -34.5l7 -16q2 1 -13 35zM636 156q-2 2 -4 6
q-1 5 -3 0.5t-3 -18.5l-2 -14l7 12q8 13 5 14zM320 132q-4 21 -6 23q-3 2 -3 -2q1 -5 5 -26q4 -25 4 -40v-17l7 14q6 13 2 20q-4 6 -9 28zM287 115q-2 16 -4 21q-1 4 -2 4t-2 -4q-2 -4 2.5 -20t6.5 -16q1 0 0.5 4.5t-1.5 10.5z" />
    <glyph glyph-name="X" unicode="X" horiz-adv-x="696" 
d="M346 687q17 6 19 6q2 1 5.5 -3.5t3.5 -8.5q0 -5 -22.5 -13.5t-46.5 -11.5l-24 -4l10 -14q24 -31 53 -108q31 -86 36 -86q4 0 30.5 41t42.5 73q25 47 38.5 66.5t13.5 20.5q0 2 -26 2q-47 0 -48 10q0 3 3 7t15 4t67 -4q79 -4 106 -2q28 3 32 -2q9 -12 -7 -15q-13 -2 -54 -3
q-55 -2 -64 -7q-18 -10 -60 -91q-27 -52 -49 -82q-24 -34 -26 -36q-2 -4 13 -30q26 -46 42 -82q76 -168 151 -276l24 -35l16 -1q9 -1 35 -3q13 0 16 -1.5t4 -6.5q1 -6 -3 -8q-5 -2 -41.5 -2.5t-36.5 1.5q-2 2 -50 6q-50 4 -104 0q-124 -10 -133 -7q-4 1 -3 9q1 6 3 7.5
t11 1.5q111 6 111 9q0 1 -18 26q-21 32 -61 120q-25 57 -62 107l-13 18l-18 -28q-16 -26 -70 -107q-89 -137 -86 -138h4q1 0 9.5 -0.5t24 -1t27.5 -1.5l55 -1v-8v-8h-72q-54 0 -108 4.5t-63 9.5q-12 6 -2 15q5 4 39 -1q40 -5 49 -4t19 13q9 11 29 43q16 26 78 120
q61 93 65 101l6 10l-9 11q-32 45 -56 88q-15 25 -26 44q-13 21 -17 37q-7 32 -62 119l-37 59l-27 1q-20 1 -24 2.5t-5 6.5q-1 7 2 10q3 1 56 -1q46 -2 130 -3q62 0 85.5 2.5t54.5 13.5zM145 588q-30 47 -37 56q-5 6 -5 5q1 -4 31 -51q29 -45 35 -57q2 -4 4.5 -6.5t3.5 -1.5
q3 2 1 5q-1 1 -5 7.5t-13 19.5t-15 23zM152 647q0 3 -7 3q-4 0 -4.5 -1t1.5 -4q3 -3 6.5 -2.5t3.5 4.5zM222 647l-4 2q-5 1 -14 1q-21 0 -21 -5t-6 -7q-4 -1 -5.5 -3.5t0 -4.5t4.5 -2q7 0 14 -10q15 -21 14 -12q-1 3 -5 12q-12 23 -2 27q6 2 10 -2.5t15 -27.5q15 -28 24 -36
q8 -8 17 -23q8 -13 25 -37q17 -23 15 -28q-1 -3 22.5 -44t26.5 -41q1 0 -2.5 8t-10.5 20q-13 25 -26 51q-11 25 -36 59q-20 27 -39 62.5t-16 40.5zM249 643q0 4 -3.5 4t-3.5 -2t13.5 -28.5t15 -27.5t1.5 1q0 11 -13 32q-10 19 -10 21zM221 578q-11 16 -12 16l6 -15
q3 -7 15 -30l1 -2q22 -42 23 -54q0 -11 13 -31q11 -18 12 -17t-5 15q-9 16 -17 39t-7 28q2 6 -8 20q-11 14 -21 31zM210 484q-15 34 -20 31q-1 0 -1 -5q0 -6 19 -48t33 -57l14 -16l-16 33q-19 38 -29 62zM343 258q-1 12 -10 24q-5 7 -7 8.5t-5 -2.5q-3 -5 8 -21l15 -18
q1 0 -1 9zM404 202q-21 37 -23 38t0 -6q3 -10 27 -50t27 -40q1 0 0.5 1t-2 3.5t-3.5 5.5q-6 11 -26 48zM483 140q0 3 -8 12l-8 9l6 -12q5 -12 9 -12q1 0 1 3zM564 18q-9 12 -20 24l-11 13l13 -19q12 -18 12 -22t8 -5l7 -2zM508 28q-3 9 -10 15q-5 4 -5.5 4t1.5 -5
q10 -25 6 -30q-1 -1 3 -2t12 -1q13 0 13 2q1 1 -1 3q-4 5 -9.5 5t-9.5 9z" />
    <glyph glyph-name="Y" unicode="Y" horiz-adv-x="621" 
d="M198 684q8 5 11 1q2 -2 48 -2h46v-8q0 -5 -2.5 -7t-14.5 -3q-16 -2 -45 -2l-27 -1l2 -11q3 -17 32 -63q13 -22 23 -47q12 -27 25 -58q23 -56 51 -89l15 -16l10 24q16 40 55 107q51 86 60 123l5 17l-51 3q-50 3 -53 8q-3 6 0 9q2 2 95.5 3t133.5 0q4 0 3 -9l-1 -8l-53 -2
l-53 -1l-5 -21q-8 -28 -20 -54t-41 -75q-40 -68 -54 -102.5t-24 -88.5q-5 -26 -7 -99t1 -139l2 -61h42q41 0 43 -3t0 -9q-1 -4 -31.5 -6t-141.5 -5q-57 -2 -105.5 0.5t-57.5 7.5q-5 3 -6 9t3 8q3 2 31 -1q17 -2 49 -5l22 -1v156q0 158 -4 171q-21 71 -88 158q-26 36 -43 59
q-13 19 -29 40q-14 18 -20 31q-6 14 -18 25q-7 8 -12.5 9.5t-23.5 2.5q-18 2 -21.5 3t-3.5 7v8h42q42 0 45 4q6 9 18 -1q5 -4 71 -2q66 3 72 6zM50 649q-1 6 -5 7q-2 1 -2 -2q-1 -1 -1 -2q0 -5 12 -22t14 -16q2 2 -7 15q-8 14 -11 20zM117 635q-3 6 -7 6q-5 0 0 -12t8 -15
q2 -2 2 3q2 10 -3 18zM162 624q-2 10 -6 12q-2 0 -1 -4q0 -2 2 -7q5 -13 6 -11q0 1 -1 10zM225 587q-15 22 -16 22q-2 0 3 -7q7 -11 18 -29q13 -23 14 -23q3 0 -19 37zM172 462q-4 10 -8 11l3 -7l1 -2q6 -11 8 -11q1 1 -4 9zM271 358q1 13 -1 15t-4 -3q-2 -6 -2 -18
q0 -9 2 -10q4 -1 5 16zM328 295q-2 43 -5 43q-2 0 -2 -21t1 -42.5t3 -23.5q3 -3 3 3q1 7 0 41zM239 293q0 5 -3 12q-2 1 -3 -6q0 -11 3.5 -11t2.5 5zM260 204q1 34 0 34q-2 0 -2.5 -17t0.5 -30l2 -13v26zM263 149q1 7 0 14q-1 -3 -1 -7zM236 48q-3 4 -4 29l-1 25l-1 -31v-16
t0.5 -9t1.5 -3.5t3 -0.5q4 2 1 6zM312 81q3 3 0 10q-3 0 -4 -3q2 -8 4 -7zM320 41q1 12 -3 14q-2 1 -2 -2q-1 -5 2 -15q3 -7 3 -3v6zM296 39q-1 8 -2 8q-5 -1 -9 -10q-2 -6 5 -6q5 0 6 1.5t0 6.5zM242 17q0 4 -6 10l-6 5q0 -1 1 -5q2 -5 2 -13q0 -5 2 -6.5t11 -0.5
q15 0 21 2l8 2l-7 3q-7 2 -11 -1t-9.5 -1.5t-5.5 5.5z" />
    <glyph glyph-name="Z" unicode="Z" horiz-adv-x="542" 
d="M349 679q7 11 16 2q3 -4 52 -2q10 0 75 3l27 1l3 -9q3 -9 -6 -25.5t-46 -67.5q-36 -51 -45 -66t-26 -53q-32 -70 -156 -293q-67 -120 -71 -138q-2 -9 3.5 -10.5t20.5 3.5t41 3q85 -6 154 -4l56 3l23 22q23 23 31.5 43.5t15.5 66.5q5 35 9 45t12 7q5 -1 4 -15.5t-9 -66.5
q-9 -63 -8 -69q2 -6 -2 -14q-5 -9 -7 -25q-2 -14 -7 -17.5t-16 -0.5q-8 2 -111 1q-103 0 -134 4q-22 2 -29.5 1.5t-26.5 -7.5q-24 -9 -35 -5q-10 4 -38 1q-28 -4 -31 -5q-4 -3 -38 -3q-35 -1 -43 5l-7 5l12 23q11 22 51 89q34 58 44.5 78.5t36.5 79.5q46 104 87 156
q37 47 75 136q12 27 24.5 60t11.5 34q-2 1 -93 2l-93 1l-15 -8q-44 -21 -73 -82q-16 -32 -18 -43t-8 -27q-4 -10 -6.5 -13.5t-7.5 -3.5q-8 0 -9 3q-2 4 6 28q6 18 14.5 59.5t10.5 62.5q4 40 12 45t186 -1q67 -3 83 -2.5t18 3.5zM111 656q5 6 1 6q-7 0 -8 -4q-2 -6 -1 -6.5
t8 4.5zM499 660q0 2 -8 2.5t-16.5 -1t-10.5 -3.5q-4 -5 -11 -5t-11 -7q-2 -8 -6 -10q-3 -2 -15.5 -27t-11.5 -27l1 1q1 1 2 3t2.5 4.5t3.5 6t4 6.5q27 49 41 46q8 -1 11 4q3 6 9 6.5t8 -5.5q2 -4 5 0t3 6zM381 653q-4 2 -7 3q-10 0 -11 -3q-1 -2 2 -2q2 -1 5 -1q10 0 11 3z
M402 620q6 12 5 13l-8 -12q-3 -9 -3 -11zM350 522q3 12 0 12q-1 0 -1 -6.5t-3 -11.5q-3 -6 -5 -14l-2 -10l5 8q4 8 6 22zM314 521q0 9 -4 -1q-1 -2 -2 -5q-2 -7 -1.5 -7.5t3.5 3.5q4 6 4 10zM268 257q5 9 8 15l3 6q-2 0 -12 -16t-12 -23l-1 -7q2 3 14 25zM162 252l2 7
q-1 0 -11.5 -21.5t-21 -43.5t-9.5 -22q2 0 20.5 36.5t19.5 43.5zM88 48q-4 3 -6 9q0 5 -6 -6q-2 -2 -3 -5q-8 -17 -8 -20.5t8 -3.5q9 0 14 11q5 12 1 15zM489 33q3 4 5 7v4l-11 -11t-6 -11q4 0 12 11zM124 30q-3 5 -8 5t-8 -6q-2 -5 -1 -6t9 -1t10 1.5t-2 6.5z" />
    <glyph glyph-name="bracketleft" unicode="[" horiz-adv-x="360" 
d="M104 673q5 5 119 5l115 -1v-8q0 -5 -2.5 -7t-10.5 -3q-12 -2 -45 -2l-33 -1l-1 -63q0 -48 -2.5 -72.5t-12.5 -59.5q-4 -18 -6 -78.5t1 -90.5q4 -33 10 -254q3 -114 6 -135q1 -4 3 -15.5t2 -14.5l2 -11h41q33 0 40.5 2.5t9.5 12.5q1 5 7.5 6.5t9.5 -3.5q4 -4 0.5 -15.5
t-9.5 -16.5q-7 -4 -48 -4q-43 -1 -75 -7q-76 -14 -103 -4q-10 4 -13.5 7.5t-6.5 12.5q-4 14 1 51q6 39 5 127q0 90 -3 108q-4 18 -3 40q0 22 -4 244t-1 234q2 11 7 16zM130 656q0 3 -6.5 3t-6.5 -3t6.5 -3t6.5 3zM152 622l1 37q-1 -1 -2 -7q-7 -31 -4 -51q2 -13 3 -2
q1 6 2 23zM180 648q2 11 -2 11q-6 0 -2 -15q3 -7 3 -2q1 1 1 6zM202 650q0 9 -3 9t-1 -9q1 -9 2.5 -9t1.5 9zM226 640q1 19 -2 19t-3 -11t3 -20q1 -6 2 1v11zM195 534q1 7 0 12q-1 3 -2 0v-7l1 -7zM158 514l-1 26q-6 -2 -7 -6.5t-1 -21.5q0 -24 4.5 -24t4.5 26zM191 487
q2 13 0 26q0 8 -1 0v-13zM157 406q0 10 -2 19q-3 8 -3 2q0 -5 3 -19l2 -13v11zM210 126q1 55 0 55t-2 -17.5t-1 -39t1 -32.5q1 -14 2 4v30zM133 131q0 24 -3 28q-1 2 -2 -2q-4 -23 2 -41q2 -5 2 1q1 4 1 14zM126 -124q1 1 0 21l-1 20l-3 -19q-3 -28 4 -22zM175 -108
q-2 17 -5 17t-1 -9q0 -2 1.5 -9t1.5 -10l4 -8q1 3 -1 19zM161 -150q-11 2 -15 4q-3 2 -5 -1t5 -5q5 -1 14 -1l12 1z" />
    <glyph glyph-name="backslash" unicode="\" horiz-adv-x="470" 
d="M67 672q0 6 1.5 7.5t6.5 1.5q8 0 12 -10t18 -21q22 -18 72 -114q26 -49 34 -52q6 -2 8 -6.5t5 -19.5q6 -23 54 -117q49 -95 96 -167q30 -45 38 -59t6 -18q-3 -6 11 -22q42 -48 41 -57q-1 -5 -3.5 -6t-13.5 -1q-10 -1 -14.5 1t-14.5 13l-13 14l7 -14q6 -13 4.5 -19.5
t-8.5 -4.5q-13 1 -39 71q-9 24 -22 40q-36 49 -66.5 102.5t-35.5 77.5q-4 25 -23 53q-38 60 -105 192q-56 111 -56 135z" />
    <glyph glyph-name="bracketright" unicode="]" horiz-adv-x="302" 
d="M241 676q5 1 29 2h23l4 -11q5 -12 5 -29t-8 -70.5t-14 -75.5q-5 -20 -7 -61.5t1 -74.5q2 -42 6 -166q3 -123 11 -180q8 -53 9 -96q0 -49 -10 -60t-56 -12q-38 0 -39.5 -4t-8 -3.5t-8.5 4.5q-3 5 -73 12l-70 7v8q0 5 2 6.5t13 1.5q18 1 58 -3q42 -5 43 -4t-2 17
q-6 31 1 124q6 57 2 139q-3 80 -3 291v212l-42 -2h-2q-46 -3 -53.5 -2.5t-8.5 7.5v1q-1 8 6 10q6 1 97 6q91 6 95 6zM173 623q1 8 0 17l-1 -1q-1 -3 -1 -8l1 -10zM233 604q0 18 -3 14q0 -1 -1 -3q-1 -4 1 -15l2 -7zM186 456q0 24 -3 38l-2 14l-1 -17q0 -15 3 -38l2 -20z
M170 237q1 19 0 37h-1v-19v-21q0 1 1 3zM242 223q0 16 -3 36l-2 13v-23v-1q-1 -31 2 -36q3 7 3 11zM208 130q2 3 0 17l-3 10l-1 -4q-2 -6 -2 -25l2 -9q2 9 4 11zM176 92q1 8 0 17l-1 -1v-8zM256 45q-2 33 -4 43t-3 -2q-1 -27 4 -53l5 -22zM176 18q1 13 0 25q-1 5 -1 0v-13
v-15q1 1 1 3zM239 -116q0 22 -1.5 22t-1.5 -18q0 -17 -3 -20t-17 0q-8 2 -10.5 4t-4.5 8q-1 6 -1.5 5.5t-0.5 -9.5v-14h20h20v22zM179 -134q1 3 0 10l-1 7l-2 -7q-4 -11 1 -11z" />
    <glyph glyph-name="asciicircum" unicode="^" horiz-adv-x="474" 
d="M271 682q7 6 9 6q5 0 13.5 -18.5t12.5 -41.5q2 -9 15 -36t25 -45q32 -50 60 -112q20 -46 27.5 -60.5t22.5 -33.5q18 -23 18 -27t-7 -10q-6 -5 -52 -8q-49 -2 -63 3.5t-30 32.5q-10 19 -28 41q-63 80 -73 101l-7 17l-14 -29q-65 -145 -112 -165q-24 -11 -24 5q0 6 10 11
q53 21 123 193q18 45 41 98q26 61 26 67.5t7 10.5zM234 520q2 5 0 5q-1 0 -3 -4q-3 -9 7 -34l3 -5q2 2 -3 18t-4 20zM385 330q-18 14 -20 14q-3 0 -1 -8q1 -8 -6 -10q-6 -2 -3 -6q4 -4 25 -4h22z" />
    <glyph glyph-name="underscore" unicode="_" horiz-adv-x="513" 
d="M12 -92q2 5 11 3q59 -13 277 -16q137 -2 159 1q19 3 24.5 1.5t5.5 -8.5q0 -5 2.5 -6.5t10 -2t9.5 -2t2 -6.5t-2 -6.5t-8 -2.5q-7 -1 -9 -2.5t-2 -5.5q0 -7 -5 -10q-7 -2 -84 -5q-169 -6 -236 -12q-42 -3 -97.5 5t-64.5 19q-4 4 -2 12t14 8q11 0 15 7q2 6 1 7.5t-7 3.5
q-19 5 -14 18zM189 -124q2 1 -1 1h-7l-5 -1q7 -1 13 0zM188 -150q8 1 -7 2h-40l-47 -2q14 -2 47 -2t47 2z" />
    <glyph glyph-name="grave" unicode="`" horiz-adv-x="320" 
d="M138 654q5 5 16.5 -4.5t39.5 -43.5q47 -57 51 -61l10 -12l-7 13q-8 15 -26.5 39.5t-28.5 34.5q-13 12 -13 18q0 4 9 11t14 7q4 0 9 -6q6 -6 12 -2t11 -0.5t16 -24.5q5 -8 15 -26t11 -20q12 -21 12 -28q0 -5 14 -35q13 -27 15 -36.5t-2 -16.5q-10 -17 -34 9
q-21 22 -83.5 98t-62.5 80t2 6z" />
    <glyph glyph-name="a" unicode="a" horiz-adv-x="458" 
d="M196 442q5 1 12.5 2t12 1.5t4.5 1.5q4 0 37 -5q93 -12 114 -56q10 -20 11.5 -42.5t-2.5 -83.5q-4 -50 -7 -99q-1 -20 1.5 -54.5t6.5 -47.5q10 -28 25 -28q12 0 25 18q5 8 12 9.5t9 -4.5q3 -9 -11 -25.5t-40 -32.5q-19 -13 -54 -13t-64 13q-12 6 -25.5 18t-13.5 18
q0 3 -26 -21q-26 -25 -41.5 -32.5t-39.5 -5.5q-47 3 -75 30q-15 14 -18.5 28.5t-1.5 49.5q2 32 8.5 49t24.5 35q20 21 58 36.5t78 19.5l22 1l-9 93q-7 79 -9 102q0 6 -2 7t-14 -1q-33 -4 -63.5 -16t-46.5 -29l-11 -11l27 1q26 1 37.5 -4t21.5 -21q20 -34 0 -62
q-12 -17 -35.5 -25.5t-44.5 -2.5q-19 5 -27.5 17.5t-11.5 39.5q-3 30 10 56.5t39 42.5q38 25 97 33zM266 417q-2 5 -7 5t1 -6q6 -8 7 -5q0 2 -1 6zM314 408q-4 4 -14 6l-9 3l6 -7q6 -7 14 -7q5 0 5.5 1t-2.5 4zM288 334q4 14 2 17q-3 2 -5 -4q-2 -7 -2 -17q0 -5 1 -6z
M86 343q0 2 -3.5 2.5t-7 -0.5t-4.5 -3q-1 -4 0 -10l2 2q1 7 7 7t6 2zM115 314q-9 16 -10 4q0 -6 3.5 -12t7.5 -6q5 0 4 4zM76 309q-4 10 -6 10q-1 -1 0 -7.5t3.5 -15.5t5.5 -13l4 -4q0 1 -2 9q-2 11 -5 21zM366 280q2 13 1 17t-6 6l-7 4l2 -20q2 -20 4 -34q1 -15 3 -15
q1 1 1 11q0 11 2 31zM360 213q1 9 0 16q-1 -5 -1 -9zM240 196q-1 6 -4.5 6.5t-25.5 -2.5q-16 -2 -23.5 -9t-16.5 -25q-10 -23 -4 -67t20 -44q5 0 8 -7q3 -5 10 -13l6 -6l11 10q9 11 15 13q5 1 5 69q0 69 -1 75zM141 121q2 7 0 14q0 -3 -1 -7zM275 34l-9 13q-8 0 8 -16l9 -11
zM128 32l-6 8q-1 -1 1 -6q3 -7 7 -8q1 -1 1 0q0 2 -3 6zM377 30.5q0 2.5 -3 6.5t-5 -1t-1.5 -6.5t4.5 -1.5q5 0 5 2.5zM189 7q-1 3 -5 4q-6 0 -7 -2q-1 -1 2 -3q1 0 2 -1q5 -1 8 2zM360 6q-7 3 -11.5 3t-10.5 -3q-5 -2 1 -2q3 -1 10 -1q11 2 11 3zM120 -2q-4 5 -9 5
q-14 0 4 -6q7 -2 7 -1z" />
    <glyph glyph-name="b" unicode="b" horiz-adv-x="494" 
d="M143 677q22 15 32 18.5t13 -4t3.5 -91t-2.5 -118.5q-9 -108 -2 -108q2 0 7 7q8 9 22 19q48 33 125.5 19.5t114.5 -62.5q26 -36 34.5 -96t-5.5 -112.5t-41.5 -91t-63.5 -55.5q-29 -14 -49.5 -18t-56.5 -4q-42 0 -55 6q-15 6 -92 8q-10 1 -36 -5q-18 -4 -22 -4t-10 5
q-9 6 -11 21t-3 212q0 231 2 324l2 74l-26 2q-24 1 -40.5 7t-17.5 13q-1 8 5 9t22 -3q38 -10 72 -4q28 5 42 10.5t37 21.5zM71 486q3 7 0 32l-3 24v-31q2 -25 3 -25zM100 366q-2 58 -4 82l-3 19l-2 -12q-3 -13 -0.5 -63.5t6.5 -69.5l3 -10q1 4 0 54zM309 382l-8 21h-13
q-28 0 -53 -16t-37 -41l-8 -18l4 -92q5 -95 15 -187q4 -34 11 -40q15 -12 52 -12h13l11 37q66 209 13 348zM421 360q-2 7 -20 16l-10 4l1 -1q11 -9 18 -16q13 -12 12 -8q0 1 -1 5zM422 269q-2 36 -5 40q-2 5 -2 -5q-1 -13 4 -43l4 -28zM68 212q3 6 0 36l-3 29v-36
q1 -29 3 -29zM150 245q3 14 -2 14q-12 0 -4 -34l4 -12v6q1 12 2 26zM358 236q2 3 -2 12q-3 9 -4 2v-14l2 -13q2 10 4 13zM351 171q1 7 0 13q-1 2 -1 -1q-1 -2 0 -6v-7zM157 109q-3 31 -7 32q-2 0 -4 -5q0 -2 3 -17.5t6.5 -29.5t4.5 -13t-3 33zM390 118q-3 3 -5 7l-2 -7v-4
q0 -20 -2 -27q0 -3 1 -3t5 12q7 20 3 22zM161 33q0 -2 -6 1q-4 2 -5 1.5t-2 -6.5q-1 -9 -9 -10q-5 -2 4 -4q5 -1 13 -2q23 -3 28 -3t5 4q0 5 -11 4q-8 -1 -10.5 0.5t-3.5 8.5zM74 21q0 4 -3.5 4t-3.5 -9.5t5 -9.5t4 5q-2 6 -2 10zM109 20q-3 8 -10 1q-4 -4 -3 -7.5t7 -1.5
q7 1 7.5 2t-1.5 6zM361 16q0 2 -1 2q-6 0 -13 -4l-4 -4q1 0 6 1q8 2 12 5z" />
    <glyph glyph-name="c" unicode="c" horiz-adv-x="402" 
d="M227 438q29 4 61 -2.5t52 -20.5q31 -20 51 -56q9 -17 9 -39q0 -23 -6 -31q-19 -25 -47.5 -23t-41.5 29q-7 15 -7 41t8 49l7 22l-11 5q-10 4 -33 6t-40 0l-18 -3v-11q0 -13 -9 -48q-32 -123 -27 -218q1 -32 6 -47.5t19 -35.5q11 -16 24 -37l10 -18h16q38 0 74.5 20.5
t50.5 49.5q12 27 23 17q4 -4 3 -7.5t-7 -17.5q-18 -38 -59 -60t-94 -22q-34 0 -53 6q-63 19 -107 71.5t-54 120.5q-5 34 4 81t26 78q19 35 68.5 64.5t101.5 36.5zM179 400l3 6l-13 -6l-13 -6h10q9 0 13 6zM339 391q-8 5 -10 -2q-2 -3 -1 -4t4 1q5 2 8 2q4 0 -1 3zM113 318
l2 16q-1 0 -3 -3q-9 -12 -4 -22q2 -6 4 2q0 3 1 7zM106 278q3 3 1 13l-1 11l-5 -11q-5 -11 -1 -13q3 -3 6 0zM71 264q3 12 1 13q-1 1 -2 -2q-3 -6 -2 -15v-4q1 0 3 8zM102 223q2 37 1 39l-1 -4q-2 -3 -5 -9q-5 -11 -5.5 -35t4.5 -27q2 -1 3 3q2 6 3 33zM66 224q2 11 0 19
l-1 -1v-9zM155 149q0 29 -3 29t-3 -20.5t3 -29.5q2 -8 3 21zM169 60q-18 28 -19 28q-4 0 20 -35q7 -11 11 -17t7 -9.5t4 -3.5h3q1 2 -3 6q-6 4 -23 31z" />
    <glyph glyph-name="d" unicode="d" horiz-adv-x="502" 
d="M427 684q20 11 25 12t12 -4q5 -4 5.5 -12.5t0.5 -50.5q0 -53 -4 -235q-8 -297 -3 -347l2 -19h19q13 0 15.5 -1t1.5 -7t-7 -8.5t-36 -8.5q-42 -9 -73 -15q-51 -11 -58 -3q-3 4 -5 17l-2 14l-15 -11q-11 -8 -38.5 -22t-32.5 -14q-3 0 -6.5 -4.5t-27 -3.5t-40.5 6
q-31 9 -59 28.5t-44 43.5q-9 13 -19 25q-12 14 -8 18q3 5 -2 18q-16 45 -13 112q4 113 64 171q30 30 82 45q33 11 58 10q59 -2 90 -23l9 -6l-2 68q-2 66 -4 109l-2 41l-26 2q-23 2 -38.5 8t-15.5 13q0 13 24 5q14 -4 29 -6q24 -4 67 7t77 28zM373 631q2 8 1.5 9t-7.5 -2
q-6 -2 -1 -9q2 -5 3 -5t4 7zM410 506q1 10 0 18l-1 -1v-9zM448 456q1 13 0 26q-1 7 -1 -1q-1 -4 -1 -12l1 -16q1 1 1 3zM283 405q-9 5 -22 8t-21.5 3t-9.5 -3q0 -4 -8 -7q-6 -3 -21.5 -33.5t-21.5 -50.5q-5 -17 -4 -84t6 -100q5 -32 15.5 -74t17.5 -59q4 -10 6.5 -13t7.5 -2
q9 0 33 12.5t39 24.5l17 13l2 73q2 68 1 171l-1 97l-9 8q-9 7 -27 16zM412 342q-4 34 -4 1q0 -18 3 -18t1 17zM139 341q3 9 2 9l-4 -4q-9 -12 -4 -15q2 0 6 10zM98 325q7 17 6 18q-1 0 -6 -5t-10.5 -11.5t-8.5 -11.5q-3 -6 -3 -7t7 0q6 0 8.5 2.5t6.5 14.5zM445 323
q1 8 0 15q-1 4 -1 0q-1 -2 -1 -8l1 -9zM385 304q1 8 0 16q-1 -6 -1 -9zM442 240q0 66 -1 66t-2.5 -21.5t-1.5 -44.5t2 -38l2 -14q1 4 1 50v2zM382 259q1 10 0 20q-1 -5 -1 -10zM75 248q4 32 3 33l-1 -1l-2.5 -2.5t-2.5 -3.5q-5 -7 -6.5 -18t1.5 -14q4 -2 4 -13q0 -5 1 1
q1 5 3 18zM379 209q1 7 0 12q-1 3 -1 0q-1 -3 0 -7zM160 146q-2 6 -10 8l-8 1q1 -5 8.5 -32t8.5 -28t5 2q5 3 -4 49zM358 76q0 33 -1 33q-4 0 -5 -19.5t3 -34.5q2 -10 2 2q1 5 1 19zM86 68q1 0 -4 9t-5 3q0 -5 -7 -7q-8 -2 -3 -10q3 -4 10 0l4 2t3 2t2 1zM149 75q0 3 -3 3
q-8 0 -2 -9l4 -4q3 -3 3.5 -2.5t-0.5 4.5q-2 5 -2 8zM121 30q-5 11 -9 11q-5 0 -1 -5l7 -7l9 -9zM446 28q0 6 -2.5 6.5t-3.5 -3.5q-1 -2 -1 -4q-2 -8 2 -6q5 2 5 7zM196 -10q-9 7 -13 9.5t-13 1t-9 -3.5q0 -4 12.5 -10t20.5 -5l9 1z" />
    <glyph glyph-name="e" unicode="e" horiz-adv-x="423" 
d="M224 428q4 1 9.5 1.5t8.5 1t4 0.5q5 1 32 -4t44 -10q27 -9 46 -26q16 -15 32.5 -38.5t20.5 -37.5q7 -28 -6 -41q-11 -11 -69 -12q-16 0 -22 -3q-7 -4 -13 0q-6 3 -65 3h-59l-2 -25q-4 -46 0 -91.5t12 -62.5q16 -30 43 -44q24 -11 57.5 -10t60.5 14l17 9l12 36
q13 39 21 39q2 0 6 -3q5 -5 -3 -29q-22 -78 -70 -107q-33 -20 -76.5 -22t-84.5 12t-78 43t-58 67q-29 53 -20.5 128.5t49.5 126.5q58 74 151 85zM205 397q6 9 4 9q-7 -1 -10 -3t-2 -4q2 -4 -6 -16q-16 -24 -10 -24q5 0 11 14t13 24zM259 401q-5 5 -9 5q-6 0 -16.5 -9
t-16.5 -20q-7 -12 -15 -38.5t-11 -43.5l-2 -14h46h46l-1 41q-3 59 -21 79zM124 363q0 3 -1 3q-2 0 -18 -17t-16 -19t9 6q9 9 18 17q8 7 8 10zM142.5 339.5q3.5 3.5 2.5 8.5q-2 8 -5 1q-1 -2 -1 -7q0 -6 3.5 -2.5zM361 306q0 1 -8 22l-6 13v-3q4 -18 14 -32zM174 312
q5 27 4.5 27.5t-7 -2.5t-8.5 -17q-4 -31 2 -33q2 -1 4 5t5 20zM62 246q2 10 3.5 18t2.5 12.5t0 4.5l-7 -14q-16 -36 -15 -96q0 -33 2 -41q1 -4 2 2q1 9 3 34q2 46 9 80zM93 59q-4 6 -11 19l-8 11v-5q0 -8 11 -19zM220 27q-3 4 -6 4q-10 0 12 -12q5 -3 11 -6q20 -10 41 -10
q30 1 29 4q-1 2 -19 2q-19 0 -40.5 6t-27.5 12zM336 10l6 5h-2q-1 0 -3.5 -0.5t-4.5 -1.5q-8 -1 -8 -3.5t1.5 -3.5t4 0t6.5 4zM226 -12q0 1 -1.5 2t-3.5 2.5t-5 3.5q-7 5 -9 5t-3 -4q-1 -3 1 -4.5t9 -3.5q11 -1 12 -1z" />
    <glyph glyph-name="f" unicode="f" horiz-adv-x="413" 
d="M249 690q40 8 79.5 -2t59.5 -33q10 -12 18.5 -35.5t4.5 -31.5q-3 -8 -5 -19q-2 -12 -11 -24.5t-20 -18.5q-13 -7 -28.5 -7t-26.5 7q-27 18 -32.5 61t15.5 72q8 11 4 13q-7 5 -36.5 1t-35.5 -10q-12 -13 -19 -121q-2 -21 -4 -57t-3 -43q-2 -30 2.5 -30t37.5 4q32 3 37 -2
t1 -10q-3 -6 -32 -8t-39 -4l-10 -1l-3 -61q-2 -54 2.5 -157.5t10.5 -140.5l2 -10h32q32 0 36 -4t3 -9.5t-6 -6.5q-9 -3 -141 3q-33 2 -40 1t-9 -6q-4 -6 -9.5 -6.5t-7.5 5.5q-2 4 -10 4t-51 -5l-20 -2l1 9q1 8 9 10.5t38 6.5q28 3 30 5t2 181t-2 181q-3 3 -31 4
q-22 2 -26 3.5t-4 7.5l-1 8h33h33v19q0 88 32 153q21 40 59 69t81 37zM166 620l3 8q-1 0 -6 -6t-5 -7q0 -7 6 1zM349 600q-7 22 -9 22q-2 -2 -1 -12.5t3.5 -25t4.5 -20.5l6 -12l1 13q1 12 -5 35zM385 612q-6 9 -8 9l1 -3q0 -3 2 -9.5t3 -11.5l6 -24v15q0 15 -4 24zM104 474
q1 7 0 13q-1 2 -1 -1q-1 -2 0 -6zM116 246q2 7 0 13q0 2 -1 -1v-6zM184 214q-1 34 -3 36v-33q1 -16 2 -23q1 -9 1 1v19zM120 196q1 7 0 13q-1 2 -2 -1v-6l1 -7zM98 99q1 13 0 27q-1 7 -1 -1q-1 -5 -1 -13l1 -15q1 1 1 2zM98 54q1 8 0 17l-1 -1q-1 -3 -1 -8l1 -9zM125 38
q-2 7 -4 10q-1 1 -2 -1q0 -2 1 -5q1 -8 4 -10q2 -1 2 2q0 1 -1 4zM180 34.5q0 9.5 -3 9.5t-1 -7q2 -6 -3 -9q-4 -3 2 -3q5 0 5 9.5z" />
    <glyph glyph-name="g" unicode="g" horiz-adv-x="547" 
d="M196 442q21 5 62 4q43 -2 65 -10q20 -7 29.5 -12.5t24.5 -19.5l14 -13l10 10q10 11 33 21q22 11 47 11q22 0 33 -4.5t20 -16.5q16 -21 12 -49t-24 -43q-17 -13 -45.5 -9.5t-39.5 19.5q-4 7 -4 24t4 32q5 15 4 16.5t-13.5 -6.5t-16.5 -13q-3 -3 -1.5 -8t8.5 -20
q18 -35 18 -80q0 -97 -88 -139q-30 -14 -52 -19t-59 -7q-64 -2 -104 15l-14 7l-7 -9q-7 -9 -9 -17q-2 -9 3.5 -20t13.5 -16q36 -18 135 -1q41 7 78.5 6.5t52.5 -7.5q21 -12 45 -49q25 -38 25 -74q0 -29 -14.5 -55.5t-53.5 -66.5q-56 -58 -107 -73q-46 -13 -105.5 -16
t-90.5 6q-34 9 -46.5 15.5t-20.5 16.5q-47 61 -14 127q9 20 30.5 40t33.5 20q9 0 9 2l-10 11q-25 26 -31 72q-4 45 6 49q5 2 24.5 21.5t23.5 19.5t7.5 3.5t-11.5 18.5q-30 30 -43 77t-1 85q14 45 54.5 78t99.5 46zM270 422q0 4 -3 5t-16 1q-21 -1 -28.5 -3t-15.5 -12
q-17 -19 -23 -51.5t-6 -106.5q1 -76 6 -97t4 -24q-5 -7 48 -5q37 1 43 6q5 6 17 73q15 95 -13 174q-13 33 -13 40zM498 387q2 10 -2 10q-7 0 -9 -25l-1 -17l5 11q5 9 7 21zM85 332q2 1 1 14l-1 12l-6 -9q-4 -6 -4 -8.5t3 -5.5q5 -5 7 -3zM87 267q-1 13 -4 30l-3 14v-17
q0 -19 5 -30l4 -12zM376 265q1 3 -2 10l-3 8l-2 -8q-2 -7 2 -9.5t5 -0.5zM408 222q3 9 -2 9q-4 0 -4 -9.5t1 -9.5t5 10zM162 169q-2 20 -5 21l-2 -9q0 -14 4 -19t4 -2q0 2 -1 9zM118 158q2 4 -0.5 7t-5.5 1q-4 -2 0.5 -6t5.5 -2zM340 154q6 4 1 8q-4 4 -7 -4q-3 -7 -1.5 -8
t7.5 4zM121 48q-13 4 -20 10l-2 1q1 -2 4 -5q9 -10 20 -10h12zM342 53l24 2l-28 1l-24 -2q4 -3 28 -1zM285 50q-2 3 -5 3q-3 -1 -25 -5l-24 -4l20 1q19 2 28 2q3 0 4.5 1t1.5 2zM425 -11q-10 18 -16 20l-3 -1q0 -1 5 -7q9 -9 14.5 -22t2.5 -17q-4 -4 -2 -29l2 -24l4 10
q6 13 3.5 33.5t-10.5 36.5zM374 -42q-9 2 -14 3q-5 2 -5 0.5t12 -9t17 -9.5q4 -2 3 1q0 1 -1 4q-4 8 -12 10zM349 -62q-30 15 -89 7q-89 -11 -115 -9l-20 2l-4 -10q-3 -9 -3.5 -38.5t2.5 -45.5q15 -77 97 -81q49 -2 94.5 22.5t64.5 65.5q10 18 9.5 29t-9.5 30
q-7 13 -11.5 17.5t-15.5 10.5zM103 -63q1 7 -3 7q-8 0 -2 -9q3 -5 5 2zM123 -214q-4 5 -7 12q-3 3 -4 3t-4 -4q-3 -6 -1 -9t12 -6q7 -1 7.5 -0.5t-3.5 4.5z" />
    <glyph glyph-name="h" unicode="h" horiz-adv-x="536" 
d="M153 685q45 22 57.5 10t16.5 -83q2 -48 -2 -120q-5 -77 -5 -89q0 -10 2 -11q1 -1 4 2q22 19 63 29.5t72 4.5q17 -2 22 1t10.5 1t5.5 -8t5 -8q8 -2 23 -19t22 -32q20 -40 20 -115q0 -49 -4 -89q-5 -38 -1 -99l4 -60l24 2q31 3 37 2t7 -8q0 -7 -6.5 -9t-44.5 -6
q-37 -4 -93 -4t-63 4q-6 3 -23 8q-27 9 -16 20q4 3 7 3t14 -4q16 -6 17 -4q1 1 5 27q10 87 2.5 201.5t-26.5 161.5q-3 9 -5.5 10.5t-9.5 0.5q-12 -3 -31 -13t-30 -20l-13 -11v-157q0 -153 2 -169q2 -11 5 -13t22 -5q10 -1 13 -4t1 -10q-2 -5 -5 -5.5t-16 0.5q-18 2 -24 -2
q-7 -3 -13 2t-47 5q-36 0 -46 -1.5t-10 -7.5t-4.5 -9.5t-9.5 -1.5t-5 8q0 5 -2.5 5.5t-14.5 -0.5q-19 -3 -33 -7q-16 -4 -21 -2q-3 1 -3.5 8t2.5 9q2 2 36 9l34 6l-1 59q0 46 -7 210q-6 158 -8 250l-2 100h-25q-25 0 -33 2.5t-8 9.5v8h36q67 1 120 27zM202 657q0 7 -1 7.5
t-8 -4.5l-7 -5l8 -4q6 -2 7 -1.5t1 7.5zM124 615q4 4 2.5 6.5t-6.5 0.5q-6 -4 -11 -2q-4 2 -4 -1q0 -2 4.5 -6.5t7.5 -13.5l3 -10v11q1 12 4 15zM195 462q0 38 -3 71l-2 34v-47q0 -48 2 -70l2 -15q1 3 1 27zM154 356q0 14 -8 71l-9 59l1 -55q1 -46 2.5 -57.5t6.5 -11.5t6 -8
l1 -5v7zM435 327q-8 24 -14 29q-1 1 0 -3q2 -6 6 -16.5t7 -18.5l4 -8q1 1 -3 17zM96 327q3 4 0 13q-2 5 -2 6l-1 -10q1 -9 3 -9zM198 226q1 30 0 62l-1 7v-37q0 -34 1 -32zM95 290q1 7 0 12q-1 3 -2 0v-7l1 -7zM140 274q-2 7 -4.5 7t-1.5 -7q2 -9 7 -41l7 -30q1 3 -2 32
t-6 39zM98 246q1 7 0 13q-1 2 -2 -1v-6l1 -7zM402 172q0 6 -6 6q-5 0 -5.5 -2.5t0.5 -12.5l4 -16q1 1 1 7q0 8 3 10t3 8zM179 34q1 8 -3 39l-5 25q-1 -1 -1 -4q-2 -10 3 -39q4 -21 6 -21zM382 56q2 8 2 13.5t-1 5.5q-2 0 -5 -22l-1 -20q2 3 5 23zM201 32q1 9 0 16
q-1 -6 -1 -9zM120 23.5q0 1.5 -5 4.5q-6 3 -10 -1q0 -5 6 -5q9 0 9 1.5zM407 14q-6 14 -8 14t-7 -16l-5 -15h13q14 0 14 1q0 2 -7 16zM359 1q-4 4 -5 10q0 3 -1 4l-2 -5q-3 -13 6 -13q5 0 2 4z" />
    <glyph glyph-name="i" unicode="i" horiz-adv-x="261" 
d="M113 680q11 8 16 9.5t17 -0.5q34 -3 54 -25t20 -55q0 -31 -18 -50.5t-49 -23.5q-30 -3 -51 18q-23 24 -23 64q0 22 7.5 35.5t26.5 27.5zM146 566q-7 12 -8 12v-4q1 -3 2 -8q3 -13 7 -13q5 0 -1 13zM199 450q16 6 19 -3q3 -11 -2 -73q-4 -57 -8 -180.5t-2 -148.5
q1 -20 8.5 -27.5t27.5 -9.5q15 -2 18 -5t-3 -11q-3 -4 -16.5 -4t-78.5 3q-93 3 -118 2l-28 -1l-1 10q-1 7 2 10t20 12q23 12 29.5 22.5t8.5 38.5q8 113 8 211q0 46 -2.5 58.5t-13.5 22.5q-7 7 -21 4q-13 -2 -25 -3q-7 0 -8.5 1.5t-0.5 7.5q1 7 9 9.5t40 6.5q39 5 60.5 10.5
t42.5 18.5q25 13 35 18zM99 40.5q0 9.5 -1.5 9.5t-2.5 -9q-2 -10 1 -10t3 9.5zM158 11q0 1 -9 8q-7 4 -8.5 4.5t-3.5 -3.5t-1 -6q1 0 7 -1.5t10 -2t5 0.5z" />
    <glyph glyph-name="j" unicode="j" horiz-adv-x="237" 
d="M134 682q16 5 26 4q12 -2 28.5 -12t23.5 -19q10 -11 11.5 -30t-5.5 -35q-10 -23 -28.5 -35.5t-36.5 -9.5q-20 4 -36 17.5t-21 30.5q-6 21 -1.5 43.5t15.5 33.5q8 6 24 12zM174 657q-7 8 -10 5q0 -1 10 -11q7 -6 7 -4t-7 10zM117 612q1 16 -3 18q-2 1 -2 -4q-2 -11 2 -23
q2 -7 3 1v8zM168 602q-6 16 -10.5 22.5t-8.5 3.5q-6 -4 18 -34l7 -8zM180 441q3 9 9 9q7 0 7 -3q0 -2 13 -1q13 2 17 -3.5t7 -30.5q3 -22 3 -144t-3 -171q-5 -87 -31 -208q-18 -78 -71 -115q-31 -21 -70.5 -32t-66.5 -5q-20 4 -28 6q-7 1 -17 14t-15 27q-9 26 2.5 54.5
t35.5 38.5q18 7 39 2t32 -20q15 -20 3 -61q-7 -24 -7 -26q0 -9 10 1q3 3 5 8q20 36 29 153q5 64 3 216.5t-8 207.5l-2 17l-35 1l-35 1v7q0 6 2.5 7.5t11.5 2.5q15 2 47 1q30 -2 45.5 2t40.5 20q23 15 27 24zM105 370q0 5 -3.5 5t-2.5 -13l1 -10q1 1 2 4q2 8 3 14zM149 360
q3 2 2 7q-2 10 -6 -1q-2 -7 -2 -14l1 -8q0 1 1 4q1 10 4 12zM201 315q1 7 0 13q-1 2 -1 -1q-1 -2 0 -7v-7zM207 261q0 11 -2 25l-2 16l-1 -18q0 -16 3 -25l2 -5v7zM201 137q1 7 0 14q-1 -4 -1 -7zM111 91q2 22 0 29q-1 2 -1 -1q-1 -5 -1 -22v-30z" />
    <glyph glyph-name="k" unicode="k" horiz-adv-x="538" 
d="M174 690q28 26 37 3q8 -21 4 -274q-2 -174 -2 -175q1 -1 12.5 10.5t30.5 32t40 44.5l50 58l-32 2l-33 1v10v9l29 2q29 3 40 5q32 9 42 -1q6 -5 39 1q14 2 22 2.5t13 0t6.5 -2.5t0.5 -6q-1 -7 -20 -11q-15 -3 -39 -6q-15 -1 -19 -3.5t-10 -11.5q-7 -12 -41 -46
q-33 -32 -33 -35t23 -27q20 -20 26 -30.5t15 -38.5t16.5 -41t31.5 -43q26 -32 43 -62q17 -31 23.5 -37t26.5 -8q15 -1 18.5 -2t3.5 -7v-8l-50 -2q-41 -1 -125 -2q-74 0 -76 4q-2 7 4.5 10.5t24.5 4.5l23 1l-31 49q-32 52 -55 81q-26 33 -33 43l-8 13l-2 -15q-5 -36 1 -110
q3 -38 5.5 -44t13.5 -6q10 0 15 -4.5t1.5 -9.5t-13.5 -7q-13 -2 -16 -6q-7 -10 -16 1q-4 5 -38 3t-37 -7q-3 -4 -8.5 -4t-7.5 4q-2 5 -26 5q-28 1 -45 3q-14 1 -17 2.5t-4 7.5q-1 8 2.5 8.5t26.5 0.5l21 -1l-2 19q-2 24 -4 61q-2 49 10 172q13 126 7 237q-1 31 -6 76t-7 49
q-2 2 -21 3q-16 2 -20.5 4.5t-2.5 10.5q1 5 5.5 5.5t26.5 -1.5q31 -2 49 2q41 7 71 34zM199 640.5q0 9.5 -3 10.5q-2 1 -4 -2t-4 -8.5t-2 -10.5q1 -2 2 -2q2 3 6 3q5 0 5 9.5zM136 599q4 3 3 17l-2 10l-1 -2q-6 -14 -2 -24q1 -2 2 -1zM97 586q-2 20 -4 20q-1 0 -1 -7t2 -18
l4 -20q1 6 -1 25zM101 504q1 8 0 17l-1 -1v-8zM107.5 415q-0.5 12 -2.5 19q-2 5 -2 -1q-1 -3 -1 -12q0 -20 3 -19t2.5 13zM195 421q1 7 0 13q-1 2 -2 -1v-6l1 -7zM145 384q1 7 0 12q-1 3 -2 0v-7l1 -7zM291 275l-6 8q0 1 -4.5 -3t-11.5 -11l-16 -16l-31 -30l8 -14
q12 -22 16 -24l-5 13q-11 22 -11 25q0 4 11 15q11 10 17 6q4 -2 5 -1.5t1 5.5q0 8 4 10q5 3 7 9q2 5 12 3l10 -2zM170 235q-4 32 -6 35q-3 3 -2 -5q0 -10 5 -45q5 -29 6 -27q2 2 -3 42zM302 216q-8 9 -12 17q-4 6 -4 1q0 -4 3 -14q4 -13 32 -51q6 -8 6 -6q0 4 -10 25t-15 28
zM132 121q1 10 0 21q-1 -5 -1 -11zM377 68q-16 22 -22 21q0 -6 16.5 -30.5t25.5 -32.5q21 -19 19 -12q-1 5 -12 18q-18 21 -27 36zM196 25q0 3 -5 4t-6 -3q-2 -5 -1 -7q2 -1 7 1t5 5zM450 25q-15 7 -15 5q0 -1 5 -8q7 -10 17 -10q19 0 -7 13zM380 11q0 1 -12 7l-13 6l5 -7
q5 -8 12.5 -8t7.5 2z" />
    <glyph glyph-name="l" unicode="l" horiz-adv-x="288" 
d="M193 696q12 10 21 10l8 -1v-41q0 -32 -4 -119q-5 -82 -4.5 -206.5t5.5 -185.5q5 -63 5 -102v-38l32 -1q24 -1 28 -2t4 -7t-4 -7t-26 -2q-29 0 -35 -6q-9 -10 -15 -2q-3 4 -20 4.5t-82 -0.5l-96 -1l-1 10q-1 9 4.5 16t11.5 5q5 -2 5 -8q0 -4 2 -5t10 1q12 1 16 1q3 0 4 22
t1 107q1 156 12 212q11 58 4 193q-5 82 -6 84q-3 2 -42 -1q-31 -3 -39.5 -2t-8.5 7q0 7 8 9.5t40 5.5q41 3 44 8q8 11 16 2q7 -6 58 13q26 10 44 27zM105 626q2 6 1.5 7t-4.5 1q-5 0 -6 -5t2 -21l3 -13v12q0 11 4 19zM152 607.5q0 23.5 -2 23.5q-3 0 -9 -4q-3 -5 -1 -5
q4 0 5 -4t1 -20q-1 -14 2.5 -14t3.5 23.5zM193 427q1 49 0 89l-2 39l-2 -46q-2 -45 0 -89l2 -43zM119 529q2 15 -1 15t-4 -16.5t1 -29.5l1 -12l1 14q0 10 2 29zM100 357q1 9 1.5 15t-0.5 6q-2 0 -6 -30t-2 -31q1 -1 3 6q2 8 4 34zM157 252v73q0 -1 -5 -2t-4 -55q0 -54 5 -71
q3 -13 4 -4v59zM202 56q2 20 0 29l-2 10l-3 -9q-3 -9 -2.5 -24t3.5 -20q2 -3 3 2q1 3 1 12zM161 68q0 16 -3 16t-3 -5.5t-3 -8.5q-4 -3 3 -11l6 -7v16zM176 12q1 1 -6 4q-28 12 -36 10q-4 -1 -4 -5.5t15 -6.5q10 -1 21 -3q6 -1 10 1z" />
    <glyph glyph-name="m" unicode="m" horiz-adv-x="780" 
d="M179 428q11 18 22 7q6 -6 9 -35l2 -29l7 7q18 22 61.5 38t81.5 16q28 0 53 -13t41 -36q3 -4 8.5 -2t29.5 14q79 39 133 40q25 0 41 -8q50 -24 65 -94q6 -33 4.5 -76t-13.5 -128q-10 -71 -9 -98t14 -30q8 -2 25 0q26 3 26 -9q0 -7 -13 -9t-52 -2q-53 1 -73 2q-28 2 -62 4
l-42 2v8q0 5 3 6.5t17 3.5q16 2 23 6.5t15 17.5q5 8 6 22t1 78q0 131 -16 201q-5 26 -19.5 41t-34.5 15q-12 0 -67 -31q-8 -4 -9.5 -17.5t1.5 -45.5q3 -37 3 -79q0 -44 3.5 -106t6.5 -77q6 -32 28 -32q6 0 7.5 -1.5t0.5 -8.5l-1 -10l-106 1q-106 1 -109 3q-4 5 0 12.5
t14 12.5q13 8 19 24q12 36 13 169q0 139 -11 164q-9 18 -49 18h-23l-17 -17q-19 -19 -22 -31q-12 -34 -9 -174q2 -83 6.5 -105.5t24.5 -35.5q16 -11 22 -13q5 -2 5 -6q0 -8 -18 -9.5t-112 -1.5h-123v9q0 6 2 7.5t12 3.5q30 4 36 28q11 45 15 170q3 74 -3 100q-6 27 -4 37
q1 7 -1 9t-11 5q-14 4 -35 4q-22 0 -23 6t2 9t53 6q100 5 125 43zM404 402q-15 7 -20 7q-3 0 1 -2q2 -1 5 -2q30 -11 43 -31q9 -16 9 -8q0 5 -13.5 17.5t-24.5 18.5zM189 370q1 33 0 33t-7 -3.5t-2 -7.5q3 -4 2 -16q-2 -11 2 -26l5 -14v34zM350 385.5q-2 6.5 -10 2.5
q-4 -1 0.5 -6.5t7.5 -15.5l3 -11v13q1 11 -1 17.5zM379 338q-6 12 -7 12q-2 -1 -1.5 -5.5t3 -10.5t4.5 -9q4 -5 3 -20q-1 -16 1 -28q3 -10 3 1v17q-1 31 -6 43zM106 313q-2 31 -6 31q-3 0 -3 -14.5t2 -34.5t6 -37l6 -25l-1 25q-1 1 -2 23t-2 32zM360 240q1 13 0 25q0 5 -1 0
v-13zM426 235q-3 26 -5 24t2 -47l3 -20l1 6q3 13 -1 37zM667 238q0 10 -3 17q-2 4 -2 -4q1 -2 1 -6q2 -17 3 -16q1 0 1 9zM97 138q4 17 2 33l-3 15v-16q-1 -22 -2 -32l-2 -18zM387 114q-5 41 -6 42t-1 -20q0 -33 9 -61q1 -3 2 -3q1 2 -4 42zM164 74q0 2 -4 14q-3 7 -4 7
t-1 -4q0 -9 5 -14q3 -4 4 -3zM628 50q5 23 2 26q-2 2 -4 -4q0 -2 -1 -5q-2 -14 -4 -25q-3 -14 -1 -14q2 1 8 22zM359 14q-5 7 -7.5 7.5t-5.5 -4.5q-4 -4 -3 -5.5t11 -3.5l11 -2zM181 11q-11 2 -50 2.5t-39 -1.5t48 -2z" />
    <glyph glyph-name="n" unicode="n" horiz-adv-x="532" 
d="M189 435q17 18 28 8q3 -4 3 -28v-25l18 16q53 48 122 38q86 -14 111 -105q10 -37 6 -225q-1 -26 -1 -36t1 -23t2 -16t6 -9t8.5 -7.5t13.5 -6.5q17 -9 21.5 -14.5t-0.5 -12.5q-4 -6 -48 -3q-50 2 -81 5q-36 2 -73 2q-29 1 -36.5 3.5t-4.5 12.5q2 8 23 10q32 4 32 220
q1 79 -4 103t-23 37q-9 7 -25.5 8t-28.5 -5q-33 -17 -37 -47q-3 -19 4 -165t11 -150q1 -1 15 -4q13 -2 16.5 -7.5t-3 -12t-45.5 -7.5q-33 -2 -123 1l-84 2l-1 9q-1 6 3 8t26 5q27 4 36 43.5t9 154.5q0 70 -3 96t-13 46l-7 14l-27 1q-21 0 -28 3t-5 10q2 5 42 7q39 2 63 7
q23 4 46.5 15.5t34.5 23.5zM437 369q-7 14 -19 25l-11 11l9 -13q10 -14 17 -32q25 -63 25 -58q0 7 -7.5 32t-13.5 35zM354 373q-1 4 -8 8l-4 1q0 -2 4 -10q7 -12 8 -8q1 5 0 9zM396 331q-1 11 -6 19l-3 5q0 -1 1 -11q2 -12 4 -35l3 -20l1 16v26zM431 279q-2 15 -5 15t1 -18
q0 -2 1 -6q3 -13 4 -12q2 1 -1 21zM146 250q-1 24 -4 28q-2 4 -2 -2q-1 -10 4 -31l4 -18zM398 251q1 8 0 16q-1 3 -1 -1q-1 -2 -1 -8l1 -9zM402 216q0 19 -2 21q-1 1 -1 -21l1 -21q3 2 2 21zM110 171q1 7 0 14q-1 -3 -1 -7zM455 113q0 40 -1 40q-3 0 -4 -22.5t1 -36.5l3 -12
q0 3 1 31zM153 38q-2 8 -4 28q-1 13 -3 15q-1 2 -3 -2q-1 -5 -5 -21q-4 -18 -2.5 -22.5t12.5 -4.5q5 0 5.5 1.5t-0.5 5.5zM422 69q-2 10 -5 14q-3 3 -3 -1t5 -14l5 -10zM96 36q3 13 1 12q-1 -1 -5 -12q-4 -13 -2 -13q4 1 6 13zM380 30q0 17 -1.5 17t-4.5 -13q-3 -10 -5 -17
q-1 -2 0 -3.5t4 -1.5q5 0 6 3t1 15zM405 16q-1 8 -3 17q-2 5 -2.5 5t-0.5 -10q0 -15 3 -17q1 -1 2 0.5t1 4.5z" />
    <glyph glyph-name="o" unicode="o" horiz-adv-x="490" 
d="M215 439q41 11 44 5q2 -3 29 -4q25 -2 40.5 -7.5t47.5 -24.5q63 -37 91 -93q23 -47 23 -106q0 -75 -42 -137q-51 -74 -140.5 -97.5t-166.5 17.5q-19 9 -44.5 34.5t-37.5 46.5q-39 67 -34 146q2 50 24 93q47 96 166 127zM268 417q-11 10 -38 1q-13 -5 -19.5 -22.5
t-14.5 -70.5q-9 -58 -14 -107q-5 -72 7 -127.5t39 -82.5q14 -14 14 -18q0 -15 27 14q25 26 31 46q11 35 16 120q3 67 -8.5 138.5t-27.5 88.5q-6 6 -6 10q0 5 -6 10zM449 305q-12 24 -30 43l-18 19l11 -15q11 -16 17 -23q7 -7 7 -12q0 -4 8 -20q7 -14 17 -40l9 -22
q1 7 -6.5 31t-14.5 39zM177 331.5q4 25.5 2 26.5l-1 -6q-2 -7 -4 -18q-4 -25 -3 -26q2 -2 6 23.5zM339 255q0 5 -3 15l-2 10v-10q0 -10 2 -15l3 -5v5zM401 238q0 8 -2 12q-2 3 -2.5 2.5t-0.5 -4.5q0 -6 3 -12l1 -3q1 3 1 5zM53 155q-2 20 -4 54l-2 36l-2 -22q-3 -23 1 -48
q4 -35 7 -34q1 0 0 14zM345 168.5q0 25.5 -3 34.5q-1 6 -2 -18v-16q0 -37 2 -35q3 9 3 34.5zM397 160q2 2 -3 17l-4 15v-12q1 -19 7 -20zM165 109q-1 13 -4 13q-2 0 -2.5 -3.5t0.5 -8.5t3 -8q3 -5 3 0v7zM134 89q-1 5 -6 5q-7 0 2 -12q5 -7 6 -3q1 2 -2 10zM178 39
q-4 8 -13 20l-6 9q-1 -1 -1 -6q0 -8 13 -20q10 -9 10.5 -8.5t-3.5 5.5zM138 44q-19 18 -20 18t1 -2l6.5 -6.5l9.5 -9.5q18 -19 20 -19l-2 3q-2 2 -6 6.5t-9 9.5z" />
    <glyph glyph-name="p" unicode="p" horiz-adv-x="527" 
d="M163 422q29 16 31 16q10 0 13 -26l2 -17l19 10q21 11 55.5 19t62.5 8q21 1 28.5 -1t24.5 -11q23 -12 50 -38.5t41 -51.5q38 -65 36 -134.5t-43 -125.5q-76 -102 -183 -92q-48 5 -71 20l-11 8l-2 -40q-2 -28 -0.5 -88t4.5 -88l1 -17l35 -2q39 -2 39 -9q1 -2 -1 -5
q-4 -5 -39 -5t-39.5 -2.5t-13.5 2.5q-11 5 -52 4.5t-74 -6.5q-52 -10 -69 3q-7 6 -3 12q3 5 9 4q8 -2 31 -1.5t25 2.5q3 2 -1 110t-8 140q-4 34 -2 105q6 154 1 187q-4 20 -4 39v18l-15 -1q-13 0 -30 -2q-27 -5 -27 7q0 6 11 9t50 7q45 5 67.5 11t51.5 22zM378 406
q-4 3 -12 5l-7 1q0 -1 4 -4q10 -8 16 -5q1 1 -1 3zM307 402q-6 4 -11.5 3.5t-23.5 -5.5q-40 -11 -54 -28l-8 -10l4 -94q3 -95 3 -157q0 -63 7 -76q11 -23 38 -30q26 -7 30.5 -6t15.5 18q30 47 37 83q11 54 9 128t-15 118q-5 17 -14.5 33.5t-17.5 22.5zM353 385q-6 4 -7 1
q0 -1 6 -14l6 -14l-1 12q-1 13 -4 15zM173 340q1 13 0 25q-1 5 -1 0q-1 -4 -1 -13l1 -15q1 1 1 3zM84 354q3 12 2.5 15t-3.5 3q-6 0 -7 -13q-1 -18 4 -25q0 1 4 20zM396 344q-9 18 -12 20q-7 4 9 -45q6 -19 12 -32q10 -25 12 -25q1 10 -7 39.5t-14 42.5zM110 267
q-6 53 -7 55q-1 0 -1 -8.5t0.5 -22t1.5 -29t2.5 -29.5t2.5 -22l5 -18v7q0 16 -4 67zM498 258q0 6 -2 12q-3 1 -3 -3q-1 -10 3 -12q1 -1 2 0t0 3zM379 218q5 8 0 27l-5 19v-26q0 -23 1 -23q1 -1 4 3zM185 199q1 7 0 13q-1 2 -1 -1v-6zM476 178q-3 19 -6 25l-1 -1q2 -9 3 -25
q3 -14 5 -16q2 -1 -1 17zM410 156q-6 6 -8 1q0 -2 -4 -22q-3 -21 1 -30t7 -4q3 7 5 29t-1 26zM139 75q0 32 -3 47l-2 17l-1 -20q-2 -33 3 -57l2 -10q1 2 1 23zM484 109q8 15 5 16q-1 0 -5 -3q-6 -3 -18 -33l-5 -12l7 8q8 10 16 24zM367 92l2 25q-1 -2 -4 -18q-4 -19 -6 -29
v-7l1 1q3 3 7 28zM85 69q0 1 -1.5 4.5t-1.5 4.5l-1 -27q2 -44 5 -53q1 -5 2 4v25q-1 38 -3 42zM346 30l-2 7q-1 -1 -5 -9q-5 -8 -3 -8q1 0 4 1q6 1 6 9zM380 11l13 7h-1q-3 1 -25 -9l-11 -7q9 1 24 9zM154 -12q0 8 -2 14l-3 4v-4q0 -6 3 -14l2 -8v8zM195 -69q1 6 0 12
q-1 3 -2 -1v-6l1 -7zM148 -109q0 17 -2 29q-3 10 -2 -3q0 -5 1 -12l3 -29v15zM107 -180q1 9 -1 12q-1 1 -2 -1q0 -3 1 -9l2 -8v6z" />
    <glyph glyph-name="q" unicode="q" horiz-adv-x="527" 
d="M427 425q25 13 35 3q3 -3 3 -177.5t-3 -317.5q-3 -163 0 -165q4 -2 31 -2t31 -5t1 -10q-6 -9 -115 1q-55 5 -99 1q-39 -3 -50.5 -2t-11.5 10q0 7 6 9t31 2q26 0 30 2t0 104q-5 99 -3 116l2 15l-19 -7q-27 -12 -70 -13t-76 9q-30 9 -60.5 38t-47.5 65q-15 31 -19 50t-4 63
q0 53 7 72q15 41 52 78t80 50q17 5 18 8q4 5 140 -8q44 -4 67.5 -2t43.5 13zM292 397q-22 2 -55.5 4t-38.5 0q-4 -1 -6 -9.5t-6 -41.5q-25 -219 21 -323l9 -19l23 2q47 3 67 19q6 5 7.5 11.5t3.5 36.5q4 50 5.5 156.5t-1.5 130.5q-4 27 -4 28q-2 1 -25 5zM347 355
q-1 3 -2.5 12t-2.5 13l-2 7q0 -2 1 -12q1 -12 2 -45v-28l3 20q3 20 1 33zM385 388q-2 2 -7 2q-14 1 -14 -2t7 -3t14 3zM169 382q3 4 0 4q-2 0 -7 -3q-5 -4 -3 -5h3q5 0 7 4zM417 295q0 49 -1 49t-2 -14.5t-1 -31.5t1 -29q2 -20 2 1q1 8 1 25zM83 336q4 5 2 5q-1 0 -12 -14
t-15 -20q-4 -7 -1 -10q1 -2 7 6q2 4 5 9q11 20 14 24zM103 271q-4 45 -4 3q-1 -24 2 -24t2 21zM385 256q1 6 0 12q-1 3 -1 -1v-6zM388 213q1 9 0 18l-1 -1v-8zM447 169q3 17 -3 17q-2 1 -4 -4q-4 -7 -3.5 -14.5t3.5 -9.5q3 0 4.5 2t2.5 9zM443 42q2 52 2 70q-1 19 -3 -2
q-3 -36 -2 -82v-36zM358 49q0 73 -1 73q-2 0 -3.5 -26t-1 -57t2.5 -45q2 -12 2 21q1 14 1 34zM182 35q-5 16 -5 1q0 -7 4 -9q3 -1 3 1t-2 7zM388 -146q1 18 0 34q-1 -6 -1 -18zM439 -217q0 13 -2 14q-3 1 -5 -18q-1 -10 3 -10t4 14zM364 -222q0 2 -4 8q-3 4 -3.5 4t-0.5 -7
q0 -8 4 -8t4 3z" />
    <glyph glyph-name="r" unicode="r" horiz-adv-x="401" 
d="M274 426q31 11 64 0t51 -38q17 -25 9.5 -49t-35.5 -37t-54 -5.5t-39 33.5q-7 12 -7.5 32t5.5 31l5 10l-9 -5q-21 -11 -36 -46q-8 -17 -11 -56q-3 -37 -2 -154t4 -120q4 -4 50 -2q13 0 18 -4t0 -12q-7 -12 -111 -2q-117 10 -126 1q-5 -4 -21 -3q-6 0 -9 6.5t0 12.5
q4 6 16 6t21 12q20 24 25 55t5 124q1 103 -11 144l-3 11l-34 3q-34 4 -37 6q-4 2 -3 8t5 8q5 2 41 -2q35 -5 60 -5q20 1 39 5.5t22 10.5q1 4 6 4t5 3t9 8q11 6 19.5 -2t8.5 -26v-15l10 13q18 25 50 36zM196 386q0 14 -2 14t-3 -15q0 -11 2 -12q3 -1 3 13zM338 378
q-5 10 -8.5 10t4.5 -10l7 -9q1 0 0.5 1t-1.5 3.5t-2 4.5zM374 374l-8 10q-1 -1 1 -10q3 -10 1 -19q-1 -4 0.5 -8.5t4 -6.5t4.5 -1q4 3 2.5 15t-5.5 20zM167 372q0 5 -0.5 5.5t-4.5 -2.5q-4 -2 1 -6q3 -3 3.5 -2.5t0.5 5.5zM333 340q0 6 -13 18q-3 2 -3 1q0 -5 4.5 -13
t7.5 -8q4 0 4 2zM128 158q3 12 -2 26l-5 14v-10q0 -12 2 -27l3 -16zM178 104q-2 11 -7 13q-2 1 -2.5 0.5t0.5 -3.5q1 -4 3 -20q3 -16 5 -16q5 0 1 26zM136 77q4 3 3 14q-1 6 -2.5 7t-2.5 -2q-1 -4 -1 -11q2 -8 3 -8zM152 32q-7 2 -11 5q-3 2 -10 -0.5t-7 -5.5t18 -3l13 2z
" />
    <glyph glyph-name="s" unicode="s" horiz-adv-x="340" 
d="M157 438q37 4 65.5 -8.5t42.5 -40.5q6 -13 7 -13t0 4q-1 6 -2 26.5t0 27.5q1 4 9 3q6 -1 7.5 -4.5t3.5 -20.5q2 -26 3 -67l1 -43l-8 -1q-7 -1 -11.5 7.5t-18.5 45.5q-9 25 -15 34q-17 26 -54 30.5t-60 -16.5q-19 -18 -19 -44t19 -40q16 -12 61 -25q53 -14 88 -49
q63 -62 63 -110q0 -32 -34 -77.5t-72 -64.5q-46 -24 -90 -11q-42 12 -71 41l-13 13l-3 -21q-3 -17 -7 -23.5t-11 -4.5q-4 2 -4.5 5.5t1.5 16.5q3 19 3 70v52h8q5 0 6.5 -3.5t3.5 -18.5q4 -33 16 -52.5t38 -37.5q57 -37 113 -8l21 11v22q0 22 -9.5 37t-28.5 27.5t-59 30.5
q-50 21 -71 37.5t-33 43.5q-8 17 -8 53q0 83 52 130q34 31 70 36zM227 257q-16 9 -18 8l11 -7q15 -9 18 -12q4 -3 4 0t-15 11zM133 170q-11 8 -17 8t8 -8q16 -8 17 -7t-8 7zM299 82q0 6 -6 1l-2 -4q-2 -6 -1 -6.5t4 2.5q5 4 5 7z" />
    <glyph glyph-name="t" unicode="t" horiz-adv-x="355" 
d="M177 540q9 9 19 -6q6 -10 6 -26q0 -15 3 -56l4 -39l62 -1q68 -1 68 -9q1 -2 -1.5 -5.5t-13.5 -4.5t-53 0l-62 1l-2 -43q-14 -289 1 -320q4 -7 13 -14.5t15 -3.5q7 3 14 -1q7 -3 28 6q38 18 52 45q11 20 20 10q5 -4 4.5 -6.5t-6.5 -14.5q-10 -19 -34.5 -37t-49.5 -24
q-17 -3 -56 -7q-43 -4 -71 1q-50 9 -65 28q-15 21 -4 109q5 39 7 72q1 24 -1 88t-5 91l-3 18l-25 -2q-26 -2 -29 1q-5 3 -3 12q0 6 3.5 8.5t14.5 6.5q17 7 40 21q25 14 33 20q29 17 51.5 38t22.5 32q0 8 3 12zM89 418.5q0 6.5 -3 6.5t-3 -6.5t3 -6.5t3 6.5zM93 379
q-1 15 -4.5 15t-1.5 -10q2 -9 3 -23q0 -9 0.5 -9t1.5 5q3 7 1 22zM157 355q0 29 -2 34q-2 4 -2 -2q-2 -13 2 -42l2 -11v21zM96 126.5q0 4.5 -4 6.5q-2 1 -2 -3q-1 -1 -1 -3q1 -7 3 -7q4 2 4 6.5zM96 25q-1 1 -2 3l-8 9l1 -5q0 -8 9 -13l7 -5zM150 19q-12 4 -16 7q-4 2 -5 -1
q-2 -1 2.5 -4t12.5 -6t17 -6t18 -4.5t15 -1.5l-30 12q-8 3 -14 4z" />
    <glyph glyph-name="u" unicode="u" horiz-adv-x="552" 
d="M439 426q27 3 37 -5t4 -65q-8 -71 -11 -176q-2 -69 -5 -109q-4 -37 -2 -38q1 -1 37 2q31 3 42.5 0.5t9.5 -11.5q-1 -4 -6.5 -6t-27.5 -6q-31 -6 -51 -4q-19 1 -63 -6q-43 -8 -50 -16q-7 -7 -9.5 -7.5t-8.5 4t-8 21.5l-2 17l-18 -14q-28 -21 -49.5 -27.5t-67.5 -9.5
q-49 -3 -79 18q-24 15 -37 53q-5 14 -6 34t-2 109q0 125 2 170l3 46h-21q-19 0 -27.5 3t-7.5 10l1 7l92 -1q93 -1 100 -5q8 -3 9.5 -17t-1.5 -67q-2 -59 -1 -186q1 -84 2 -105.5t4.5 -29.5t6.5 -9.5t11 -1.5q16 0 46.5 20t36.5 34q4 8 4.5 38t-0.5 187v116l-26 1
q-21 2 -28.5 5.5t-6.5 11.5q1 4 5 5.5t19 2.5q23 1 38 -1q15 -3 58 2q13 2 32.5 4t21.5 2zM356 388q2 9 -2.5 9t-4.5 -16l1 -12q2 1 6 19zM434 384q2 7 -1 7q-4 0 -5 -4t1 -6q3 -3 5 3zM111 348q4 28 2 29q-3 3 -4 -6q-2 -10 -3 -39l1 -26q1 12 4 42zM180 363q0 6 -3.5 6
t-2.5 -12l1 -8q1 0 2 3q3 6 3 11zM173 323q1 8 0 15q-1 4 -1 0q-1 -2 -1 -8l1 -9zM195 245q1 27 0 54l-1 1v-28zM390 202q-1 24 -2 26l-3 -19q0 -12 1 -14q2 -2 4 -11v18zM446 98q3 12 2 48q-1 25 -2 25q-4 -1 -3 -52l1 -28q1 2 2 7zM195 92q1 8 0 15q-1 3 -1 0q-1 -3 -1 -9
l1 -8zM116 68l-7 17q0 -2 1 -7q3 -22 7 -22q1 0 1 1.5t-0.5 4.5t-1.5 6zM408 34.5q0 12.5 -1.5 12.5t-1.5 -5q0 -4 -7 -9q-5 -4 -4 -7.5t8 -3.5q6 0 6 12.5zM126 12q-5 4 -9 1q1 -2 13 -10.5t19 -10.5h2q0 2 -9 7q-15 10 -16 13z" />
    <glyph glyph-name="v" unicode="v" horiz-adv-x="468" 
d="M-31 420q3 9 105 2q32 -3 101 -6q64 -3 64 -10q0 -2 -2 -5q-3 -6 -29 -7q-21 0 -22 -4q-2 -5 25 -60q24 -48 33 -75q12 -40 16 -53q7 -27 10 -27q2 0 19.5 38t31.5 72q22 56 29 98l2 13l-28 3q-29 4 -32 7t-1 10q1 5 4.5 5.5t16.5 -1.5q42 -5 110 2q34 4 40 2q4 -2 5 -8
t-2 -8q-2 -1 -43 -6t-49 -5q-3 0 -3 -9q0 -10 -8.5 -43t-16.5 -56q-12 -30 -39 -89q-27 -62 -38.5 -92t-23.5 -76q-15 -52 -18 -58t-10.5 -5t-13.5 8q-5 7 -25 55q-20 51 -43 91q-65 122 -84 174q-22 61 -40 90q-9 14 -12.5 16.5t-13.5 2.5q-11 0 -14.5 3.5t-0.5 10.5z
M84 292q-7 14 -9 14q-4 0 11 -32l8 -14l-1 6q-1 9 -9 26z" />
    <glyph glyph-name="w" unicode="w" horiz-adv-x="630" 
d="M177 431q24 3 40 2q12 0 15 -1.5t3 -7t-4 -7t-25 -4.5l-30 -3q-2 -1 -2 -4t4 -12.5t10 -23.5t17 -36q28 -58 34 -83q6 -23 10 -36l3 -11l32 61q52 105 52 142q0 11 5 15q7 6 14 -1t18 -30q44 -86 79 -171q10 -24 12 -24q1 0 3 6q16 39 57 155l15 44l-39 -3
q-27 -1 -33 -0.5t-9 4.5q-3 7 0.5 12t66.5 5q104 0 104 -12q0 -2 -3 -6q-4 -5 -36 -3l-31 3l-2 -9q-6 -25 -64 -180q-19 -54 -27 -60q-8 -7 -20 -47q-13 -45 -16 -58q-11 -55 -16 -67.5t-16 -9.5q-13 3 -22 42q-6 20 -43.5 121t-40.5 101t-12.5 -23.5t-12.5 -37.5
q-4 -21 -11 -27q-7 -7 -24 -78q-18 -70 -18 -80q0 -22 -14 -22q-8 0 -14 13.5t-20 62.5q-15 52 -29 85t-55 114q-48 94 -59 128l-10 33l-15 2q-28 4 -28 15q0 7 7 10t15 -1q9 -5 67 -4t118 7zM152 402q0 7 -6 7t-6.5 -1.5t2.5 -7.5q4 -7 7 -6t3 8zM110 260q1 8 -13 34
l-12 19q1 -4 13 -32q11 -26 12 -21zM411 244q0 7 -9 22q-8 11 -9 10t9 -21q6 -14 8 -14q1 -1 1 3zM236 170q0 11 -1 11q-2 0 -3 -8.5t1 -10.5q3 2 3 8zM424 102q0 5 -6 0q-2 -1 -2 -3q-9 -32 -8 -46z" />
    <glyph glyph-name="x" unicode="x" horiz-adv-x="466" 
d="M320 428q17 1 59.5 0.5t66.5 -2.5q14 -2 17 -3.5t3 -6.5v-8h-34q-30 0 -38.5 -5.5t-30.5 -38.5q-19 -28 -57 -68l-39 -39l11 -20q11 -20 24 -51q25 -57 36 -61q7 -3 9 -11q2 -9 14 -26t22 -38q10 -20 17 -30q6 -8 10.5 -9.5t25 -2t24 -1.5t3.5 -7q0 -5 -3 -7t-16 -3
q-15 -2 -54 -4q-36 -2 -40 -4q-6 -3 -12 0t-25 1q-19 -1 -56.5 1.5t-51.5 7.5q-14 4 -15 10q-1 8 5 9.5t20 -1.5q16 -4 38 -6l21 -2l-14 14q-13 12 -30.5 42.5t-29.5 61.5q-11 28 -16 36q-5 5 -11 -3q-5 -6 -25 -35q-32 -47 -51 -67l-20 -22l8 -2q20 -3 30 -5q17 -3 22.5 -7
t2.5 -10q-2 -5 -10.5 -4.5t-43.5 5.5q-46 7 -78 0q-25 -5 -25 8q0 11 41 14q28 1 28 3.5t23 25.5q15 16 52.5 68t37.5 58q0 3 -26 52t-44 80q-20 34 -41 56q-21 23 -21 25q0 3 -23 2q-18 -2 -24.5 1.5t-4.5 10.5q3 6 26.5 7.5t116.5 1.5q118 0 122 -5t0 -10q-3 -6 -28 -5
h-25l4 -11q5 -10 30 -59t28 -52q1 -2 19 16t39 41t29 36q18 26 24 33l6 7l-37 -1q-26 -1 -32 0t-7 5q-1 6 3.5 9t20.5 5zM78 395q2 5 -3 5t-5 -4.5t3 -4.5t5 4zM174 395q0 5 -9 5q-6 0 -6.5 -0.5t3.5 -4.5q12 -8 12 0zM136 362q-4 4 -10 7q-4 3 -4 1.5t3 -7.5q5 -10 10 -8
q4 2 1 7zM165 328q2 2 -8 13q-6 7 -6 4q3 -5 6 -9t5 -6.5t3 -1.5zM219 138q-8 15 -9 15v-2q1 -2 2 -5.5t3 -7.5q7 -16 9.5 -16t-5.5 16zM337 83q-30 49 -35 48q0 -5 12 -23.5t21 -26.5l9 -8zM272 55q-9 13 -12 14q-1 0 5 -9t14 -19.5t11 -13.5l-9 16q-4 6 -9 12zM348 4
q1 0 -1 3t-6.5 8.5t-10.5 11.5l-20 21l13 -18q10 -16 16 -22t9 -4z" />
    <glyph glyph-name="y" unicode="y" horiz-adv-x="469" 
d="M283 414q4 5 11 4q45 -12 119 -15l56 -1v-8q0 -6 -3 -7.5t-17 -2.5q-19 -2 -46 0l-25 1l-7 -20q-8 -23 -16 -59q-19 -76 -44 -141.5t-75 -170.5q-31 -65 -44 -103q-19 -59 -38 -88t-49 -46q-29 -16 -47.5 -15t-37.5 20q-26 27 -20 57q2 11 10 24t14 18q16 11 37 0
q14 -7 24 -33.5t6 -45.5l-2 -11l9 6q26 16 40.5 39t31.5 73q16 45 23 62l10 24l-32 66q-26 56 -88 195q-13 30 -28.5 65t-24.5 54t-10 23l-6 13l-23 -1q-23 0 -26 2q-4 2 -3.5 8t5.5 8q5 3 96 3q89 0 96 3q6 2 9.5 -1.5t28.5 -1.5q18 2 22.5 1t6.5 -5q5 -8 -1 -11.5
t-26 -4.5l-25 -2l6 -23q11 -41 39 -117t43 -108l10 -19l15 36q27 69 48 151q11 44 17 62l5 17h-8q-13 0 -36 5q-33 6 -33 15q0 3 3 6zM60 365q5 3 -7 10l-11 6l2 -7q7 -18 11 -17q0 5 5 8zM128 375q5 5 1 6h-16l-14 -2q7 -2 14 -10t7 -4t8 10zM193 204q-13 30 -19 33
q0 -3 11 -26t13 -25q3 -1 -5 18zM248 123l-9 14v-1q0 -2 6.5 -14.5t7.5 -12.5t0.5 2t-2 5zM238 59q-5 0 -8 6l-3 4q0 -3 5 -14t8 -7t2 7.5t-4 3.5zM230 28q0 2 -5 4q-6 3 -4 -6q1 -1 1 -3q2 -5 5 -1t3 6zM51 -157q-5 6 -14 2q-8 -3 -1 -5q3 -1 8 -1q8 0 8 2q0 1 -1 2z
M63 -235q-7 1 -10 4q-4 4 -4 -1.5t10 -4.5q10 0 4 2z" />
    <glyph glyph-name="z" unicode="z" horiz-adv-x="377" 
d="M281 422q5 7 19 -2q8 -5 31 -3q24 2 31 2t11 -5q5 -5 -1 -16q-4 -11 -31 -46q-44 -60 -71 -103.5t-59 -109.5q-28 -56 -47 -86q-18 -29 -18 -31q0 -9 82 -11l60 -2l14 26q15 26 29 60t18 37q5 3 10 -1.5t5 -11.5t-4 -27q-4 -17 -5 -34q-1 -49 -15 -60l-8 -8l-97 2
q-212 3 -225 9q-14 7 5 43q25 51 75 118q45 61 85 140q39 78 39 92q0 3 -59 3t-59 -5t-19 -32q-18 -27 -21 -46q-4 -21 -7.5 -28.5t-10.5 -7.5q-14 0 -6 22q4 11 7 56q3 43 7 51t24 10q23 2 115 2q94 0 96 3zM225 344v5q-2 -1 -7 -7q-11 -17 -8 -17q1 -1 6 4q7 9 9 15z
M67 18q0 1 -2 8q-3 6 -8 -2q-4 -6 -3.5 -7t6.5 -1q8 0 7 2zM320 16v6q-1 0 -5 -6q-4 -7 0.5 -7t4.5 7z" />
    <glyph glyph-name="braceleft" unicode="{" horiz-adv-x="366" 
d="M302 667q22 7 43 4t21 -13q0 -4 -2.5 -5t-13.5 -1q-16 1 -34 -2.5t-20 -8.5q-5 -9 -11 -147q-5 -97 -35 -152q-10 -18 -30.5 -36.5t-40.5 -29.5l-24 -11l18 -9q42 -22 66.5 -48.5t37.5 -63.5q5 -15 6.5 -32t1.5 -92q0 -102 2 -115q5 -25 21 -28q9 -3 12 -7q2 -4 22 -5
q15 -1 18 -2t3 -6.5t-3.5 -7.5t-18.5 -3q-21 -3 -56 0.5t-54 9.5q-50 18 -71 68q-5 13 -5.5 28.5t-0.5 92.5q1 78 -1 106t-10 46q-4 12 -18 21.5t-32 12.5q-20 4 -26 7t-5 10q1 6 27 21q30 16 41.5 31t14.5 45.5t-6 80.5q-8 58 -4 93t21 62q28 44 90 67q21 9 23 12q2 2 10 2
q7 0 23 5zM266 517q2 11 0 23q0 6 -1 0v-12zM223 338q9 14 7 18q-3 4 -5 -3q-2 -6 -13 -23q-7 -11 -5 -10q6 4 16 18zM182 302q5 4 3 4h-3q-5 0 -7 -3q-3 -5 0 -5q2 0 7 4zM167 236q-1 1 -17 7l-15 7l9 -8q9 -7 17 -8zM232.5 183q1.5 2 -8.5 12l-11 10l9 -12q9 -12 10.5 -10
zM256 141q-6 19 -10 18q0 -4 6 -15q4 -7 4 -8v5zM199 125.5q0 3.5 -3 8.5q-4 5 -4 -2t4 -9q3 -1 3 2.5zM195 74q1 7 0 14q-1 4 -1 0q-1 -2 -1 -7l1 -8z" />
    <glyph glyph-name="bar" unicode="|" horiz-adv-x="292" 
d="M215 694q48 11 66 2q9 -4 10.5 -13.5t-1.5 -36.5q-4 -35 -10 -351q-4 -266 -5 -300t-3 -44t3 -10q3 0 4.5 -2t1 -7.5t-2.5 -14.5t-6 -24q-11 -43 -12 -50q-4 -22 -14 -28t-36 -2q-34 5 -42 22q-7 14 0 96q3 39 2 188q0 104 1.5 138.5t7.5 97.5q8 85 8 201q-1 114 2 124
q1 6 5 8.5t21 5.5zM254 678q1 1 -0.5 2t-3.5 1t-3 -1t-1 -2q1 -3 4 -3t4 3zM228 658q2 4 -3 4t-5 -4.5t3 -4.5t5 5zM270 645q0 14 -1 14t-3 -7q-5 -21 1 -21q3 0 3 14zM211 573q3 28 -1 46l-5 17l1 -25q2 -27 2 -45l1 -14zM205 399q3 3 2 25l-1 16v-12q-1 -16 -3 -25v-5z
M232 -48q-2 21 -4 22q-4 4 -4 -44l1 -34l5 18q6 18 2 38zM193 -79q-3 3 -4 9l-3 -32q-1 -39 0 -48l2 -6q1 2 4 18q8 51 1 59zM242.5 -133q3.5 12 2.5 13q-3 2 -5 -9q-1 -6 -3 -15q-2 -17 -5 -19t-1 -5q4 -4 7 8q1 3 1 7q0 8 3.5 20z" />
    <glyph glyph-name="braceright" unicode="}" horiz-adv-x="348" 
d="M75 673q3 14 23 4q7 -4 33 -6q70 -5 113 -50.5t52 -122.5q4 -47 -8 -107q-5 -22 -5 -46t5 -33q8 -17 38 -31q27 -12 20 -23q-3 -4 -35 -29q-23 -17 -28 -22.5t-7 -16.5q-3 -14 5 -55q7 -33 8 -53t-3 -60q-6 -62 -21 -94t-46 -46q-25 -12 -84.5 -24t-71.5 -7q-5 2 -5 10
q0 13 23 19q10 2 27.5 20.5t26.5 35.5q14 25 17 46t3 76q0 48 2 75t6.5 49.5t17.5 35t29 22.5t46 22l24 11l-27 7q-53 13 -78 31.5t-33 50.5q-3 11 -6 108q-2 73 -5 102.5t-12 50.5q-12 28 -32 32q-16 3 -12 18zM164 584q0 5 -6 13q-5 6 -6 5l1 -4q1 -6 3 -15q2 -6 5 -6t3 7
zM240 590q2 3 -4 9q-5 4 -5.5 4t2.5 -6q4 -9 5 -9t2 2zM267 530q0 12 -3 17q-2 3 -3 -2q-1 -12 3 -22q3 -1 3 7zM195 506q0 8 -3 14q-2 -1 -2 -8q-1 -15 2.5 -15t2.5 9zM238 486q-3 22 -7 20q-1 -1 -3 -8q-3 -11 7 -31q2 -5 3 -3q2 1 0 22zM242 415q0 16 -3 16t-1 -14
q4 -32 4 -2zM264 331q0 7 -3 7t-3 -5t3 -6q2 -1 2.5 0t0.5 4zM320 262l-14 -2q-2 0 -4 -1q-10 -3 -6 -7q4 -6 24 10zM210 210q7 8 7 9q-1 3 -12 -6q-10 -8 -6 -10q3 -2 11 7zM163 -61q9 24 7 25l-3 -5l-1 -2q-3 -10 -11 -26q-11 -21 -9 -21q1 0 4 2q5 4 13 27zM181 -109
q4 3 -2 3q-8 0 -13 -5q-6 -4 -3 -4q2 0 6 1q8 2 12 5z" />
    <glyph glyph-name="asciitilde" unicode="~" horiz-adv-x="521" 
d="M485 408q10 11 19 10q14 -3 16 -16t-8 -33q-7 -15 -40 -49t-49 -43q-55 -32 -142 -5q-25 8 -36.5 8t-75.5 -5q-31 -3 -61 -4q-19 -1 -24.5 0t-11.5 6q-13 13 1 26q8 8 16 22q13 21 48.5 44t65.5 28q22 4 41.5 0t54.5 -21q38 -19 55 -24.5t37 -5.5q21 0 35 7t31 26
q20 21 28 29zM239 351l-1 1h-10l-8 -1q10 -1 19 0z" />
    <glyph glyph-name="quotedblleft" unicode="&#x201c;" horiz-adv-x="485" 
d="M419 692q11 4 23 4.5t14 -2.5q4 -6 -0.5 -11t-14.5 -6q-21 -3 -44.5 -24t-40.5 -52q-28 -50 -27 -99t30 -65q4 -2 4 0t-2 8q-4 13 -3 33t6 30q14 29 43.5 35.5t53.5 -9.5t23 -47q0 -34 -25.5 -59t-58.5 -25q-26 0 -53 19t-33 41q-6 17 -4.5 48t7.5 50q16 48 44 84t58 47z
M435 481q-6 9 -10 -1q-1 -3 -1 -7q0 -7 4 -7t6.5 6t0.5 9zM381 465q-4 18 -4 3q0 -8 3 -10q2 -1 2 2q0 2 -1 5zM183 681q10 2 14 1h2.5t4.5 -1t4 -1q8 -2 10.5 -7t-1.5 -9.5t-18 -2.5q-15 2 -29 -8q-23 -15 -41 -52q-22 -43 -22 -87q0 -43 13 -60q5 -6 5 0q0 4 -1 22
q-1 29 6 44q7 16 16.5 20.5t33.5 4.5q52 0 69 -27q13 -21 -2.5 -62.5t-41.5 -55.5q-11 -6 -19 -6t-23 4q-47 14 -67 57q-6 13 -7 21.5t-1 35.5q0 40 7 60q14 45 38.5 75t49.5 34zM192 524q-3 4 -13 4q-6 0 -7 -1t0 -4q1 -2 4 -11q2 -6 7 -6t9 6q3 8 0 12zM215 459q2 8 -1 11
t-3 -8l2 -7q0 1 2 4zM186 418v4l-9 -3l-8 -2l9 -2q8 -2 8 3z" />
    <glyph glyph-name="quotedblright" unicode="&#x201d;" horiz-adv-x="489" 
d="M138 677q12 4 34 3q57 -2 80 -53q8 -16 8 -54q-1 -38 -9 -61q-16 -47 -46 -79t-64 -39q-30 -7 -30 6q0 5 6 8.5t14 3.5q18 0 44.5 22t40.5 49q30 56 24.5 106.5t-42.5 64.5q-21 9 -12 -2l3 -3q15 -17 11 -36q-2 -8 -10 -30q-14 -39 -48 -57q-12 -6 -27.5 -5.5t-28.5 7.5
q-16 9 -21 18.5t-5 31.5t7 37.5t26 33.5q22 21 45 28zM154 633q-1 9 -6 10q-4 1 -5 -1t6 -11l6 -8zM172 598q2 9 1 10l-4 -7q-2 -8 0 -9l3 4v2zM87 554q-2 4 -4 24l-2 16q-1 0 -2 -8q-2 -9 1.5 -22.5t7.5 -13.5zM396 675q0 3 7.5 3t10.5 -8t6 -8q5 0 30 -26.5t30 -36.5
q8 -14 9 -36.5t-4 -42.5q-13 -47 -55 -88.5t-72 -36.5q-13 1 -18 6t-2 11q4 5 9 4q20 -3 33.5 3.5t36.5 30.5q38 37 49 82q7 26 0.5 45.5t-28.5 41.5l-18 17v-16q0 -57 -28 -81q-8 -6 -12.5 -7t-22.5 0q-24 3 -33 9t-15.5 25.5t-6.5 27.5q0 28 21 53q21 24 55 25q18 0 18 3z
M399 642q0 7 -5 9q-3 1 -3 -2q1 -2 2 -6l6 -16l1 1q-1 11 -1 14zM374 610q0 10 -6 13q-3 1 -5 -3q-5 -13 1 -23q3 -5 6 0q4 5 4 13z" />
    <glyph glyph-name="uni3000" unicode="&#x3000;" horiz-adv-x="1000" 
 />
  </font>
</defs>
</svg>
